<svg width="21" height="24" viewBox="0 0 21 24" fill="none" xmlns="http://www.w3.org/2000/svg">
<path fill-rule="evenodd" clip-rule="evenodd" d="M0 19.7113L0 21.4268H8.57739V19.7113H0ZM8.57739 9.24689V14.7364L7.63387 15.4226H5.9184L5.14643 14.7364V9.24689L6.00417 8.5607H7.71965L8.57739 9.24689ZM13.7238 17.8243V23.3138L12.8661 24H11.1506L10.2929 23.3138V17.8243L11.1506 17.1381H12.8661L13.7238 17.8243ZM0 11.1339L0 12.8494H3.43096L3.43096 11.1339H0ZM10.2929 12.8494V11.1339L20.5857 11.1339V12.8494L10.2929 12.8494ZM15.4393 19.7113V21.4268H20.5857V19.7113H15.4393ZM15.4393 6.15903V0.686659L14.5816 0.000469208H12.9519L12.0941 0.686659V6.15903L12.9519 6.84522H14.5816L15.4393 6.15903ZM0 2.55653L0 4.27201H10.2929V2.55653H0ZM17.1548 4.27201V2.55653H20.5857V4.27201H17.1548Z" fill="#26283A"/>
</svg>
