<svg width="31" height="30" viewBox="0 0 31 30" fill="none" xmlns="http://www.w3.org/2000/svg">
<g clip-path="url(#clip0)">
<path d="M15.98 24.3498C27.524 24.3947 26.3452 18.1985 26.3452 18.1985L5.84167 18.6059C5.84167 18.6059 4.97435 24.3068 15.98 24.3498Z" fill="#FDBD1D"/>
<path d="M15.98 24.3486C23.5951 24.3783 25.6738 21.6926 26.2064 19.8598C24.6624 21.1739 21.6832 22.3277 15.9728 22.3051C10.3622 22.2834 7.45604 21.1303 5.95977 19.863C6.40916 21.5445 8.31368 24.3178 15.98 24.3486Z" fill="#DF9E1D"/>
<path d="M6.18392 20.4879C7.84699 21.5931 10.7864 22.5217 15.9677 22.5421C21.2359 22.5682 24.249 21.6383 25.961 20.5013C26.0591 20.2928 26.141 20.077 26.2058 19.8559C24.6618 21.17 21.6826 22.3238 15.9722 22.3012C10.3616 22.2795 7.45543 21.1264 5.95917 19.859C6.01684 20.0744 6.09201 20.2848 6.18392 20.4879Z" fill="#FFD711"/>
<path d="M8.62232 16.4731C6.56425 16.4659 4.89245 17.3406 4.88828 18.4279C4.88411 19.5151 6.5487 20.4052 8.60677 20.4125C10.6648 20.4197 12.3379 19.5455 12.3458 18.46C12.3537 17.3745 10.6836 16.4864 8.62232 16.4731Z" fill="#A29C26"/>
<path d="M8.62057 16.8367C6.95126 16.8331 5.58196 17.3947 5.58058 18.0883C5.5792 18.7818 6.9352 19.3564 8.61075 19.363C10.2863 19.3696 11.6506 18.8057 11.652 18.1121C11.6534 17.4185 10.2974 16.8439 8.62057 16.8367Z" fill="#E0E21B"/>
<path d="M5.84169 18.6063C6.31267 19.0492 7.37507 19.3608 8.61079 19.3658C9.84651 19.3709 10.9101 19.0708 11.3858 18.6273C10.8407 19.0111 9.80181 19.268 8.61109 19.2642C7.42037 19.2604 6.38385 18.9943 5.84169 18.6063Z" fill="#C5D82D"/>
<path d="M5.64311 18.6425L4.93938 18.4055C5.13115 20.0141 7.76487 20.3049 7.76487 20.3049C7.4843 20.2029 7.42726 19.4001 7.42726 19.4001C6.64151 19.4074 5.64311 18.6425 5.64311 18.6425Z" fill="#8A871E"/>
<path d="M8.06957 19.7311C8.06665 20.819 9.73056 21.7073 11.7893 21.7163C13.848 21.7254 15.5192 20.8488 15.5239 19.7603C15.5287 18.6718 13.8629 17.7842 11.8036 17.7764C9.74429 17.7686 8.07432 18.6426 8.06957 19.7311Z" fill="#A29C26"/>
<path d="M8.76609 19.3919C8.76297 20.0892 10.1189 20.6607 11.7963 20.6666C13.4736 20.6725 14.8349 20.1087 14.8357 19.4164C14.8365 18.724 13.4816 18.147 11.8055 18.1416C10.1294 18.1363 8.76564 18.699 8.76609 19.3919Z" fill="#E0E21B"/>
<path d="M9.02354 19.9097C9.49577 20.3532 10.5563 20.6655 11.7939 20.6699C13.0314 20.6742 14.0919 20.3742 14.5683 19.9325C14.0244 20.3169 12.9856 20.5738 11.7936 20.5695C10.6016 20.5651 9.56512 20.299 9.02354 19.9097Z" fill="#C5D82D"/>
<path d="M8.825 19.9472L8.12127 19.7102C8.31305 21.3188 10.9474 21.6114 10.9474 21.6114C10.6662 21.5076 10.6104 20.7053 10.6104 20.7053C9.82464 20.7126 8.825 19.9472 8.825 19.9472Z" fill="#8A871E"/>
<path d="M16.8428 22.2449C18.8973 22.1228 20.5096 21.1444 20.4454 20.0572C20.3812 18.9699 18.6624 18.1897 16.6078 18.3117C14.5533 18.4338 12.9392 19.4129 13.0052 20.4994C13.0712 21.586 14.7882 22.3669 16.8428 22.2449Z" fill="#A29C26"/>
<path d="M16.7803 21.1991C18.4536 21.0998 19.7768 20.4545 19.7319 19.756C19.6869 19.0575 18.3058 18.5791 16.6263 18.6755C14.9468 18.7719 13.6304 19.4189 13.6753 20.1174C13.7203 20.8159 15.107 21.2984 16.7803 21.1991Z" fill="#E0E21B"/>
<path d="M16.7803 21.1998C18.0145 21.1267 19.0576 20.7563 19.5043 20.2871C18.9842 20.7053 17.9637 21.027 16.7744 21.0983C15.5851 21.1696 14.5349 20.9655 13.9623 20.6134C14.4664 21.0277 15.5461 21.2729 16.7803 21.1998Z" fill="#C5D82D"/>
<path d="M15.9955 22.1889C15.7086 22.1038 15.6031 21.3072 15.6031 21.3072C14.8174 21.3631 13.7759 20.6648 13.7759 20.6648L13.0586 20.4731C13.3496 22.061 15.9955 22.1889 15.9955 22.1889Z" fill="#8A871E"/>
<path d="M23.2248 20.0415C25.2793 19.9195 26.8928 18.9416 26.8274 17.8538C26.762 16.766 25.0443 15.9863 22.9898 16.1084C20.9353 16.2304 19.3224 17.2101 19.3872 18.2961C19.452 19.3821 21.1726 20.1586 23.2248 20.0415Z" fill="#A29C26"/>
<path d="M23.1622 18.9997C24.8355 18.9004 26.1588 18.2551 26.1138 17.5566C26.0689 16.8581 24.6878 16.3797 23.0083 16.4761C21.3288 16.5725 20.0136 17.2201 20.0573 17.918C20.101 18.6159 21.4907 19.0953 23.1622 18.9997Z" fill="#E0E21B"/>
<path d="M25.8876 18.0888C25.3674 18.5071 24.3482 18.8294 23.1577 18.9001C21.9672 18.9708 20.9182 18.7673 20.3524 18.4169C20.8509 18.8301 21.9294 19.0747 23.1636 19.0016C24.3978 18.9284 25.4397 18.5575 25.8876 18.0888Z" fill="#C5D82D"/>
<path d="M22.3776 19.9891C22.0907 19.904 21.9851 19.1074 21.9851 19.1074C21.1995 19.1633 20.1579 18.465 20.1579 18.465L19.4419 18.2739C19.7317 19.8612 22.3776 19.9891 22.3776 19.9891Z" fill="#8A871E"/>
<path d="M20.8991 21.4233C22.954 21.47 24.6423 20.6152 24.6664 19.5342C24.6904 18.4531 23.0346 17.5246 20.9752 17.4878C18.9157 17.4511 17.232 18.296 17.2079 19.377C17.1839 20.458 18.8414 21.3828 20.8991 21.4233Z" fill="#A29C26"/>
<path d="M20.9196 20.3743C22.5965 20.4073 23.9658 19.8685 23.9794 19.1715C23.993 18.4745 22.6457 17.8812 20.9701 17.8488C19.2945 17.8163 17.9245 18.3533 17.9103 19.0516C17.8961 19.7498 19.2445 20.3406 20.9196 20.3743Z" fill="#E0E21B"/>
<path d="M23.7058 19.6832C23.1555 20.0586 22.1137 20.2989 20.9193 20.2736C19.725 20.2484 18.6948 19.9685 18.1598 19.5717C18.6242 20.0222 19.6816 20.3512 20.9172 20.3759C22.1529 20.4007 23.2248 20.1152 23.7058 19.6832Z" fill="#C5D82D"/>
<path d="M20.0588 21.3036C19.7793 21.196 19.737 20.394 19.737 20.394C18.9497 20.3884 17.9632 19.6079 17.9632 19.6079L17.2629 19.3603C17.4312 20.967 20.0588 21.3036 20.0588 21.3036Z" fill="#8A871E"/>
<path d="M26.9045 15.6974C26.8478 15.4052 26.8496 14.9974 26.5739 14.8035C26.329 14.6316 25.7641 14.6279 25.4657 14.5739C24.7229 14.4402 24.1182 14.6489 23.3802 14.6647C22.6826 14.6751 21.963 14.5113 21.2637 14.4799C20.4797 14.4409 19.6825 14.4565 18.8953 14.4571C17.5695 14.4465 16.2446 14.3558 14.9165 14.3502C13.5884 14.3446 12.2958 14.3541 10.9888 14.3781C10.1841 14.3933 9.40027 14.2891 8.59748 14.3264C7.44878 14.3726 5.86172 14.3586 5.02283 15.2162L5.11336 15.0806C4.84705 15.1175 4.76628 15.3624 4.98216 15.5314C4.92366 15.6895 4.7727 15.9806 4.78231 16.1522C4.79828 16.4437 5.05276 16.5821 4.93332 16.8774C5.28209 16.9504 5.50338 17.3619 5.58896 17.654C5.637 17.8116 5.47478 17.9836 5.65274 18.1395C5.76006 18.2351 6.09631 18.1655 6.23447 18.195C6.61053 18.2747 6.99375 18.4139 7.36017 18.524C7.72129 18.6396 8.07205 18.7853 8.40871 18.9598C8.68547 19.1025 8.8696 19.3266 9.16783 19.4657C9.5212 19.6168 9.68418 19.7657 10.003 19.9843C10.7218 20.4789 11.7259 20.2347 12.5534 20.379C13.0194 20.4611 13.4712 20.4044 13.9302 20.5212C14.2986 20.614 14.648 20.5521 14.9672 20.6235C15.3562 20.7046 15.6071 20.9842 16.0483 20.9894C16.4895 20.9946 16.6696 20.8233 17.041 20.7337C17.4234 20.6667 17.7983 20.5621 18.1603 20.4217C18.5543 20.2575 18.9901 20.2709 19.3896 20.1928C19.7891 20.1148 20.2523 20.1637 20.6064 20.0007C20.801 19.9091 20.8743 19.7519 21.1062 19.6944C21.291 19.65 21.5047 19.6965 21.6933 19.6538C22.0373 19.5594 22.3705 19.4291 22.6873 19.265C23.0521 19.0918 23.4765 19.1135 23.8175 18.8806C24.2166 18.611 24.4437 18.4237 24.9124 18.2625C25.4787 18.0708 25.7184 17.938 26.031 17.4533C26.1408 17.3208 26.2437 17.1827 26.3394 17.0396C26.4086 16.8911 26.3734 16.6408 26.4527 16.5198C26.7324 16.0729 27.0249 16.3187 26.9045 15.6974Z" fill="#8E3423"/>
<path d="M19.8912 19.5675C19.9563 19.5386 19.976 19.4703 20.0335 19.4349C20.0911 19.3994 20.145 19.4109 20.1887 19.3888C20.3885 19.286 20.5445 19.1764 20.7941 19.1819C20.9858 19.1878 21.0081 19.2604 21.1876 19.1588C21.312 19.0877 21.4291 19.0223 21.5579 18.9578C21.8173 18.8308 22.0688 18.6884 22.3112 18.5313C22.5723 18.3492 22.8934 18.2862 23.1606 18.104C23.2824 18.0204 23.3986 17.9289 23.5086 17.8303C23.6182 17.7564 23.7184 17.6695 23.807 17.5714L23.7764 17.6012C23.7274 17.5525 23.663 17.5225 23.5942 17.5163C23.5013 17.4932 23.4106 17.4621 23.3231 17.4233C23.14 17.347 22.9014 17.4742 22.6954 17.5316C22.2173 17.6641 21.7519 17.8315 21.2807 17.9885C20.6019 18.2127 19.9149 18.4286 19.2421 18.6724C18.6408 18.8903 18.0076 19.0948 17.4229 19.3584C17.1748 19.4769 16.9349 19.6116 16.7046 19.7618C16.4163 19.9402 16.1138 20.0711 15.8302 20.2655C15.6675 20.3734 15.35 20.5656 15.6859 20.7117C15.767 20.7495 15.8544 20.699 15.931 20.7074C16.0076 20.7158 16.0528 20.746 16.122 20.7539C16.2863 20.7729 16.3568 20.6933 16.4989 20.6396C16.6381 20.5947 16.7739 20.5397 16.9052 20.4751C17.009 20.4187 17.0151 20.4382 17.1004 20.4279C17.1597 20.4283 17.2183 20.4144 17.2712 20.3875C17.5518 20.2449 17.7668 20.0869 18.0815 20.0407C18.3262 19.9996 18.5675 19.9405 18.8035 19.8639C19.068 19.7822 19.263 19.6407 19.5646 19.6553C19.562 19.6563 19.5599 19.6583 19.5587 19.6609C19.5575 19.6634 19.5573 19.6663 19.5582 19.669C19.6634 19.5965 19.784 19.6148 19.8912 19.5675Z" fill="#6D2312"/>
<path d="M4.8739 15.2656C4.86528 15.3103 4.86921 15.3566 4.88527 15.3992C4.90133 15.4418 4.92889 15.4791 4.96488 15.5071C4.97536 15.4846 4.98525 15.4634 4.99397 15.4447C4.93335 15.4017 4.89062 15.338 4.8739 15.2656Z" fill="#6D2312"/>
<path d="M5.05719 15.091L5.04191 15.0955L5.02903 15.1232C5.03519 15.1099 5.04679 15.1007 5.05719 15.091Z" fill="#6D2312"/>
<path d="M4.95754 16.7901C4.95228 16.818 4.94458 16.8454 4.93453 16.872C5.2833 16.945 5.50458 17.3566 5.59018 17.6487C5.59377 17.6587 5.59552 17.6693 5.59534 17.68C5.60266 17.6395 5.60131 17.598 5.5914 17.5581C5.50722 17.2728 5.29309 16.8752 4.95754 16.7901Z" fill="#6D2312"/>
<path d="M24.91 18.1753C24.4408 18.3378 24.2144 18.5269 23.8164 18.794C23.4777 19.022 23.0521 18.9997 22.6849 19.1779C22.3689 19.3422 22.0363 19.4723 21.6928 19.5659C21.5042 19.6087 21.2892 19.5616 21.1051 19.6079C20.875 19.6647 20.8036 19.8243 20.6053 19.9141C20.2517 20.0728 19.7849 20.0283 19.3872 20.1057C18.9896 20.1831 18.5514 20.1716 18.1585 20.3333C17.7973 20.4749 17.4227 20.5797 17.0405 20.6459C16.6702 20.733 16.4642 20.9043 16.0478 20.9016C15.6313 20.8988 15.3539 20.6175 14.9667 20.5357C14.6457 20.4681 14.2963 20.5269 13.9279 20.4341C13.4701 20.3179 13.0171 20.374 12.5523 20.2924C11.7198 20.1458 10.7157 20.39 10.002 19.8977C9.68242 19.6773 9.51943 19.5284 9.16731 19.3778C8.86319 19.2482 8.68147 19.0222 8.40695 18.8714C8.07046 18.6976 7.71993 18.5524 7.35907 18.4374C6.99199 18.3255 6.60943 18.1881 6.23338 18.1085C6.09522 18.079 5.75896 18.1485 5.65222 18.0517C5.60684 18.0146 5.57722 17.9617 5.56934 17.9036C5.56097 17.9478 5.56484 17.9934 5.58054 18.0356C5.59624 18.0777 5.62317 18.1147 5.6584 18.1427C5.76573 18.2383 6.10198 18.1687 6.24014 18.1982C6.6162 18.2779 6.99942 18.4171 7.36584 18.5272C7.72696 18.6427 8.07771 18.7885 8.41438 18.9629C8.69114 19.1057 8.87527 19.3298 9.17349 19.4688C9.52686 19.6199 9.68984 19.7689 10.0087 19.9874C10.7275 20.4821 11.7316 20.2379 12.559 20.3822C13.0251 20.4643 13.4769 20.4076 13.9359 20.5244C14.3043 20.6172 14.6537 20.5553 14.9728 20.6267C15.3619 20.7078 15.6128 20.9874 16.054 20.9926C16.4951 20.9977 16.6752 20.8265 17.0467 20.7369C17.4291 20.6698 17.804 20.5653 18.1659 20.4248C18.56 20.2607 18.9958 20.2741 19.3953 20.196C19.7947 20.1179 20.258 20.1669 20.612 20.0038C20.8066 19.9123 20.88 19.7551 21.1118 19.6976C21.2966 19.6531 21.5104 19.6997 21.6989 19.6569C22.043 19.5626 22.3761 19.4323 22.6929 19.2682C23.0578 19.095 23.4821 19.1167 23.8232 18.8838C24.2223 18.6142 24.4494 18.4269 24.918 18.2656C25.4844 18.074 25.7241 17.9412 26.0367 17.4565C26.1464 17.3239 26.2493 17.1859 26.345 17.0428C26.4143 16.8943 26.3791 16.644 26.4583 16.5229C26.7079 16.1213 26.9625 16.2659 26.9391 15.8828C26.9176 16.1538 26.6855 16.0683 26.4577 16.433C26.3846 16.5508 26.418 16.8049 26.3457 16.9535C26.2734 17.102 26.12 17.2387 26.0373 17.3672C25.7155 17.8521 25.4825 17.9804 24.91 18.1753Z" fill="#6D2312"/>
<path d="M4.78662 16.082C4.78352 16.1037 4.78247 16.1256 4.78348 16.1474C4.79186 16.364 4.9402 16.4954 4.96354 16.6734C4.99017 16.4534 4.80906 16.3173 4.78662 16.082Z" fill="#6D2312"/>
<path d="M7.99136 17.48C8.75706 17.7535 12.216 21.2395 13.1634 21.4686C14.1108 21.6977 19.2145 19.1025 21.1112 18.7944C23.0079 18.4864 25.6752 16.2879 25.9031 15.747C26.131 15.2061 22.2939 15.8672 22.2939 15.8672L11.6291 16.6667L6.7384 15.1761C6.7384 15.1761 5.69796 15.9837 5.56183 16.344C5.4257 16.7044 7.22566 17.2065 7.99136 17.48Z" fill="#F7D924"/>
<path d="M7.99281 17.3281C7.30547 17.082 5.78342 16.6517 5.58245 16.3074C5.57561 16.3188 5.56996 16.331 5.56558 16.3436C5.42944 16.7039 7.23065 17.2066 7.99751 17.4776C8.76438 17.7486 12.2221 21.2371 13.1696 21.4662C14.117 21.6953 19.2206 19.1001 21.1173 18.792C23.014 18.484 25.6814 16.2855 25.9093 15.7446C25.9179 15.727 25.9204 15.7071 25.9165 15.6879C25.9125 15.6687 25.9022 15.6514 25.8873 15.6387C25.5502 16.241 22.9664 18.3418 21.1175 18.6417C19.2221 18.9504 14.1154 21.5457 13.1698 21.3159C12.2242 21.0861 8.75726 17.601 7.99281 17.3281Z" fill="#F9EF79"/>
<g style="mix-blend-mode:multiply">
<path d="M9.45019 17.2876C10.5021 17.4425 10.5005 18.104 11.3151 18.5006C12.1298 18.8972 15.3697 19.5983 17.2352 19.1846C19.1007 18.7708 20.2725 18.5349 20.7555 18.4472C21.2385 18.3594 22.3137 17.6076 22.6797 17.3407C22.9821 17.1156 24.1445 16.8936 24.8524 16.812C25.4195 16.3518 25.8197 15.9399 25.903 15.7448C26.1304 15.2052 22.2938 15.865 22.2938 15.865L11.629 16.6645L6.73833 15.1739C6.44017 15.4065 6.15518 15.6555 5.88468 15.9197C6.51606 16.2141 8.56584 17.1578 9.45019 17.2876Z" fill="#E9C66D"/>
</g>
<path d="M4.51397 13.9952C4.50746 15.6054 7.53198 16.9216 11.2663 16.9372C15.0005 16.9528 18.0327 15.6628 18.041 14.0488C18.0492 12.4348 15.023 11.1223 11.2892 11.1055C7.55555 11.0886 4.52048 12.3849 4.51397 13.9952Z" fill="#C50E40"/>
<path d="M8.35283 15.8521C8.35863 16.1527 8.45646 16.4443 8.63312 16.6876C9.50243 16.8463 10.3842 16.9266 11.2679 16.9273C15.0023 16.946 18.0326 15.6566 18.0409 14.0426C18.0357 13.7415 17.9381 13.4494 17.7611 13.2058C16.8918 13.0477 16.01 12.9675 15.1264 12.9661C11.3902 12.9511 8.3576 14.2455 8.35283 15.8521Z" fill="#AA0535"/>
<path d="M5.405 13.8722C5.2861 13.7362 5.01606 13.5237 4.95798 13.1791C4.95798 13.1791 4.03744 14.1368 5.28078 15.1647C5.28078 15.1647 5.11671 14.6826 5.16332 14.5175C5.20993 14.3524 5.52456 14.01 5.405 13.8722Z" fill="#D84359"/>
<path d="M20.8267 16.9709C24.5628 16.9859 27.5949 15.6927 27.6027 14.083C27.6104 12.4733 24.5846 11.1566 20.8509 11.1397C17.1172 11.1228 14.0809 12.4186 14.0744 14.0289C14.0679 15.6391 17.0918 16.9565 20.8267 16.9709Z" fill="#C50E40"/>
<path d="M14.0745 14.0279C14.0692 15.6387 17.0925 16.9543 20.8268 16.9699C21.7128 16.9771 22.5976 16.9047 23.4707 16.7536C23.6497 16.5121 23.7494 16.221 23.7559 15.9204C23.7624 14.3101 20.7391 12.9945 17.0041 12.9771C16.1205 12.9714 15.2382 13.045 14.3678 13.197C14.1872 13.4374 14.0848 13.7274 14.0745 14.0279Z" fill="#AA0535"/>
<path d="M26.9505 14.6082C26.9922 14.7796 26.8271 15.254 26.8271 15.254C28.0793 14.2368 27.1653 13.2713 27.1653 13.2713C27.1045 13.6167 26.8337 13.8261 26.7117 13.9606C26.5897 14.0952 26.906 14.4431 26.9505 14.6082Z" fill="#D84359"/>
<path d="M9.28806 15.8666C9.28155 17.4768 12.3048 18.7924 16.0404 18.8086C19.7759 18.8248 22.8073 17.5298 22.8144 15.9183C22.8215 14.3068 19.7964 12.9919 16.0627 12.975C12.329 12.9582 9.29458 14.2563 9.28806 15.8666Z" fill="#C50E40"/>
<path d="M16.0439 17.2536C19.0861 17.2658 21.5557 16.4386 21.5598 15.4061C21.564 14.3735 19.1011 13.5265 16.0589 13.5143C13.0166 13.5021 10.5471 14.3293 10.5429 15.3618C10.5388 16.3944 13.0016 17.2414 16.0439 17.2536Z" fill="#DA6E65"/>
<path d="M16.0454 17.2505C18.2896 17.2594 20.2207 16.8125 21.0812 16.1625C20.0934 16.7303 18.212 17.1033 16.0469 17.1008C13.8818 17.0984 12.0021 16.6989 11.0175 16.1228C11.8749 16.7793 13.8026 17.2422 16.0454 17.2505Z" fill="#F59278"/>
<path d="M13.9002 17.3032C12.4721 17.3133 10.6573 16.1784 10.6573 16.1784L9.38075 15.8277C9.73269 18.2036 14.5115 18.644 14.5115 18.644C14.0028 18.4873 13.9002 17.3032 13.9002 17.3032Z" fill="#AA0535"/>
<path d="M4.6145 11.555C4.60423 14.2451 8.69623 16.4419 15.8882 16.4702C23.0801 16.4985 27.1897 14.3345 27.1999 11.6444C27.203 10.8787 24.5362 4.32586 15.9356 4.29537C7.3349 4.26489 4.6176 10.7893 4.6145 11.555Z" fill="#DF9E1D"/>
<path d="M4.61372 11.5552C4.60345 14.2454 8.69544 16.4421 15.8874 16.4704C23.0793 16.4988 27.1889 14.3348 27.1992 11.6447C27.157 11.3368 27.0656 11.0378 26.9286 10.7589C25.8963 12.8813 22.0112 14.4436 15.8924 14.4235C9.7737 14.4034 5.90611 12.8005 4.88826 10.67C4.75038 10.9487 4.65771 11.2475 4.61372 11.5552Z" fill="#FDBD1D"/>
<path d="M4.72704 11.0849C5.90489 13.1199 9.81836 14.6212 15.8947 14.6443C21.971 14.6673 25.8957 13.1995 27.0845 11.1713C27.043 11.0487 26.9905 10.9103 26.9241 10.7563C25.8919 12.8787 22.0067 14.4409 15.8879 14.4208C9.76922 14.4008 5.90605 12.8014 4.88819 10.6709C4.82403 10.8248 4.76992 10.9637 4.72704 11.0849Z" fill="#FFD711"/>
<path d="M16.8304 5.17879C16.4996 5.17797 16.486 5.67295 16.8137 5.67385C16.8462 5.67495 16.8786 5.66963 16.9091 5.6582C16.9395 5.64677 16.9674 5.62945 16.9912 5.60724C17.0149 5.58503 17.0341 5.55836 17.0475 5.52874C17.061 5.49913 17.0685 5.46716 17.0696 5.43465C17.0707 5.40214 17.0653 5.36974 17.0539 5.33929C17.0425 5.30884 17.0252 5.28094 17.003 5.25718C16.9807 5.23342 16.9541 5.21427 16.9245 5.20082C16.8948 5.18737 16.8629 5.17989 16.8304 5.17879Z" fill="#FCCA17"/>
<path d="M14.1183 5.82901C14.0861 5.82807 14.054 5.83347 14.0239 5.84492C13.9939 5.85636 13.9663 5.87362 13.9429 5.89571C13.9195 5.9178 13.9006 5.94428 13.8875 5.97365C13.8743 6.00302 13.867 6.0347 13.8661 6.06688C13.8651 6.09906 13.8705 6.1311 13.882 6.16119C13.8934 6.19128 13.9107 6.21882 13.9328 6.24224C13.9549 6.26566 13.9813 6.2845 14.0107 6.29768C14.0401 6.31086 14.0718 6.31813 14.1039 6.31907C14.436 6.32047 14.4509 5.82916 14.1183 5.82901Z" fill="#FCCA17"/>
<path d="M18.0217 6.8913C17.8491 6.88986 17.8623 7.14512 18.0348 7.14656C18.2073 7.14801 18.1942 6.89275 18.0217 6.8913Z" fill="#FCCA17"/>
<path d="M19.8224 6.83492C19.4922 6.83286 19.4754 7.32484 19.8075 7.32624C19.8412 7.32977 19.8753 7.3263 19.9076 7.31606C19.9399 7.30582 19.9697 7.28902 19.9953 7.26672C20.0208 7.24442 20.0414 7.21709 20.0559 7.18644C20.0704 7.1558 20.0784 7.12249 20.0794 7.08861C20.0805 7.05473 20.0745 7.021 20.0619 6.98953C20.0493 6.95806 20.0303 6.92953 20.0062 6.90572C19.9821 6.88191 19.9533 6.86334 19.9217 6.85115C19.89 6.83897 19.8562 6.83345 19.8224 6.83492Z" fill="#FCCA17"/>
<path d="M14.6287 8.29949C14.5637 8.29759 14.5006 8.32158 14.4533 8.36619C14.406 8.4108 14.3784 8.47237 14.3765 8.53736C14.3746 8.60235 14.3986 8.66543 14.4432 8.71272C14.4878 8.76002 14.5494 8.78766 14.6143 8.78956C14.6465 8.7905 14.6786 8.78509 14.7087 8.77365C14.7387 8.7622 14.7663 8.74494 14.7897 8.72285C14.8131 8.70077 14.832 8.67428 14.8451 8.64491C14.8583 8.61554 14.8656 8.58387 14.8665 8.55169C14.8675 8.51951 14.8621 8.48746 14.8506 8.45737C14.8392 8.42728 14.8219 8.39974 14.7998 8.37632C14.7777 8.3529 14.7513 8.33406 14.7219 8.32088C14.6925 8.3077 14.6608 8.30043 14.6287 8.29949Z" fill="#FCCA17"/>
<path d="M15.4384 6.86836C15.3909 6.86904 15.3836 6.937 15.4304 6.93757C15.4772 6.93813 15.4852 6.86893 15.4384 6.86836Z" fill="#FCCA17"/>
<path d="M11.2306 7.2427C11.1984 7.24176 11.1664 7.24716 11.1363 7.25861C11.1062 7.27005 11.0787 7.28731 11.0553 7.3094C11.0318 7.33149 11.013 7.35797 10.9998 7.38734C10.9866 7.41671 10.9794 7.44839 10.9784 7.48057C10.9775 7.51275 10.9829 7.5448 10.9943 7.57489C11.0058 7.60497 11.023 7.63251 11.0451 7.65593C11.0672 7.67935 11.0937 7.69819 11.1231 7.71137C11.1524 7.72456 11.1841 7.73183 11.2163 7.73277C11.5471 7.73358 11.5626 7.2441 11.2306 7.2427Z" fill="#FCCA17"/>
<path d="M11.8688 5.98019C11.5386 5.97813 11.5224 6.46887 11.8544 6.47026C11.8866 6.4712 11.9187 6.4658 11.9488 6.45435C11.9788 6.44291 12.0064 6.42565 12.0298 6.40356C12.0532 6.38147 12.0721 6.35499 12.0852 6.32562C12.0984 6.29625 12.1057 6.26457 12.1066 6.23239C12.1076 6.20021 12.1022 6.16816 12.0907 6.13808C12.0793 6.10799 12.062 6.08045 12.0399 6.05703C12.0178 6.03361 11.9914 6.01477 11.962 6.00159C11.9326 5.9884 11.9009 5.98113 11.8688 5.98019Z" fill="#FCCA17"/>
<path d="M14.5251 7.12653L14.4732 7.12056C14.4543 7.11861 14.4353 7.12122 14.4176 7.12816C14.4 7.13511 14.3843 7.14619 14.3718 7.16048C14.3593 7.17476 14.3505 7.19183 14.346 7.21025C14.3415 7.22866 14.3415 7.24789 14.346 7.26631C14.3177 7.40506 14.5176 7.48459 14.62 7.40172C14.643 7.38089 14.6594 7.35378 14.6671 7.32375C14.6747 7.29372 14.6735 7.26209 14.6633 7.23279C14.6532 7.20349 14.6347 7.17779 14.6102 7.15891C14.5856 7.14002 14.556 7.12876 14.5251 7.12653Z" fill="#FCCA17"/>
<path d="M8.23252 7.23135C8.20034 7.23041 8.16829 7.23582 8.1382 7.24726C8.10811 7.25871 8.08057 7.27597 8.05715 7.29805C8.03374 7.32014 8.0149 7.34663 8.00171 7.376C7.98853 7.40537 7.98126 7.43704 7.98032 7.46922C7.97938 7.5014 7.98478 7.53345 7.99623 7.56354C8.00767 7.59363 8.02493 7.62117 8.04702 7.64459C8.06911 7.668 8.09559 7.68684 8.12496 7.70003C8.15433 7.71321 8.18601 7.72048 8.21819 7.72142C8.54897 7.72224 8.56513 7.2315 8.23252 7.23135Z" fill="#FCCA17"/>
<path d="M9.9069 6.81516C9.93578 6.842 9.97364 6.8571 10.0131 6.8575C10.0525 6.85791 10.0907 6.84358 10.1201 6.81734C10.2402 6.70627 10.1091 6.55093 9.97138 6.58242C9.95173 6.5793 9.93164 6.5839 9.91531 6.59525C9.89897 6.6066 9.88766 6.62383 9.88373 6.64332C9.87063 6.67116 9.86585 6.70218 9.86997 6.73266C9.87408 6.76314 9.8869 6.79179 9.9069 6.81516Z" fill="#FCCA17"/>
<path d="M13.0594 8.21568C12.9911 8.2157 13.0037 8.31576 13.0702 8.3164C13.1367 8.31705 13.126 8.21633 13.0594 8.21568Z" fill="#FCCA17"/>
<path d="M16.6138 7.9139C16.5596 7.9585 16.5045 8.01482 16.533 8.08734C16.5475 8.12305 16.575 8.15195 16.6099 8.16825C16.6449 8.18454 16.6847 8.18703 16.7214 8.1752C16.736 8.1738 16.7502 8.16942 16.763 8.16233C16.7759 8.15524 16.7871 8.14558 16.7961 8.13397C16.8051 8.12235 16.8116 8.10901 16.8152 8.09479C16.8188 8.08056 16.8195 8.06574 16.8172 8.05125C16.8715 7.94443 16.7133 7.83419 16.6138 7.9139Z" fill="#FCCA17"/>
<path d="M20.379 8.81401C20.444 8.81591 20.507 8.79192 20.5543 8.74731C20.6016 8.7027 20.6293 8.64113 20.6312 8.57614C20.6331 8.51116 20.6091 8.44808 20.5645 8.40078C20.5199 8.35348 20.4583 8.32584 20.3933 8.32394C20.0625 8.32313 20.0464 8.81386 20.379 8.81401Z" fill="#FCCA17"/>
<path d="M23.5633 8.51515C23.7647 8.51642 23.7486 8.21874 23.5496 8.21864C23.3507 8.21853 23.366 8.50822 23.5633 8.51515Z" fill="#FCCA17"/>
<path d="M22.6483 7.2419C22.8504 7.24192 22.8336 6.94549 22.6347 6.94539C22.4357 6.94528 22.4492 7.23564 22.6483 7.2419Z" fill="#FCCA17"/>
<path d="M19.8839 5.79932C19.8691 5.78868 19.8516 5.78219 19.8334 5.7805C19.8152 5.77881 19.7969 5.78199 19.7803 5.78971C19.7637 5.79743 19.7495 5.80942 19.739 5.82444C19.7286 5.83947 19.7224 5.85699 19.7209 5.87522C19.721 5.89458 19.7265 5.91353 19.7369 5.92984C19.7474 5.94615 19.7622 5.95916 19.7798 5.96734C19.7973 5.97552 19.8168 5.97854 19.836 5.97603C19.8552 5.97353 19.8733 5.9656 19.8881 5.95319L19.9116 5.93223C19.9202 5.92718 19.9274 5.9201 19.9326 5.91161C19.9378 5.90311 19.9408 5.89346 19.9414 5.88352C19.942 5.87357 19.9401 5.86364 19.9359 5.8546C19.9317 5.84555 19.9254 5.83768 19.9175 5.83167L19.8839 5.79932Z" fill="#FCCA17"/>
<path d="M15.6385 6.05922C15.6077 6.12535 15.5879 6.16777 15.6311 6.23804C15.6408 6.25376 15.6543 6.26677 15.6704 6.2759C15.6864 6.28502 15.7046 6.28996 15.723 6.29025C15.7415 6.29054 15.7597 6.28618 15.7761 6.27757C15.7924 6.26897 15.8064 6.25638 15.8166 6.24098C15.8601 6.16711 15.8357 6.13144 15.8109 6.05451C15.8043 6.03659 15.7923 6.02118 15.7766 6.01046C15.7608 5.99974 15.7421 5.99425 15.723 5.99477C15.7039 5.99529 15.6855 6.00179 15.6704 6.01336C15.6552 6.02493 15.6441 6.04097 15.6385 6.05922Z" fill="#FCCA17"/>
<path d="M14.6409 4.89114C14.5759 4.88924 14.5128 4.91323 14.4655 4.95784C14.4182 5.00245 14.3906 5.06402 14.3887 5.129C14.3868 5.19399 14.4108 5.25707 14.4554 5.30437C14.5 5.35166 14.5616 5.3793 14.6266 5.3812C14.9574 5.38202 14.9729 4.89253 14.6409 4.89114Z" fill="#FCCA17"/>
<path d="M13.1413 5.21657C12.8099 5.21393 12.7944 5.70649 13.1264 5.70789C13.4585 5.70929 13.4734 5.21797 13.1413 5.21657Z" fill="#FCCA17"/>
<path d="M18.6568 5.25198C18.3254 5.24934 18.3087 5.74132 18.6425 5.74205C18.9764 5.74279 18.9939 5.25571 18.6568 5.25198Z" fill="#FCCA17"/>
<path d="M17.6982 6.05818C17.6877 6.07598 17.6789 6.09479 17.6721 6.11433C17.6635 6.13239 17.6615 6.15284 17.6663 6.17224C17.6711 6.19164 17.6824 6.20878 17.6984 6.22078C17.7187 6.23479 17.7434 6.24095 17.7679 6.23813C17.7924 6.23531 17.815 6.22369 17.8316 6.20544C17.9847 6.10517 17.7865 5.92765 17.6982 6.05818Z" fill="#FCCA17"/>
<path d="M16.6235 6.60284C16.2928 6.60202 16.2784 7.09209 16.6086 7.09415C16.9388 7.09622 16.9606 6.60657 16.6235 6.60284Z" fill="#FCCA17"/>
<path d="M13.206 6.99741C13.1972 6.99334 13.1234 6.93006 13.1086 6.95203L13.0315 6.94797C13.006 6.95432 12.9825 6.9668 12.9629 6.98434C12.949 6.99679 12.9377 7.01195 12.9298 7.0289C12.9219 7.04584 12.9175 7.06422 12.917 7.08291C12.9171 7.12163 12.9324 7.15876 12.9597 7.18626C12.9869 7.21375 13.0239 7.22941 13.0626 7.22984C13.103 7.23435 13.1436 7.22332 13.1761 7.19897C13.2086 7.17462 13.2306 7.1388 13.2377 7.09879C13.2394 7.08063 13.2374 7.06232 13.232 7.04492C13.2265 7.02751 13.2177 7.01137 13.206 6.99741Z" fill="#FCCA17"/>
<path d="M21.7129 6.66014C22.0444 6.66279 22.0598 6.17022 21.7272 6.17007C21.3946 6.16992 21.3809 6.65874 21.7129 6.66014Z" fill="#FCCA17"/>
<path d="M20.9331 7.11408C21.2645 7.11673 21.28 6.62416 20.948 6.62277C20.616 6.62137 20.6011 7.11268 20.9331 7.11408Z" fill="#FCCA17"/>
<path d="M10.7134 5.96274C10.7089 5.99594 10.7152 6.02969 10.7313 6.05906C10.7474 6.08843 10.7725 6.11188 10.8028 6.12599C10.8112 6.12976 10.8205 6.13112 10.8296 6.12992C10.8388 6.12872 10.8474 6.125 10.8545 6.11918C10.8616 6.11335 10.867 6.10566 10.87 6.09696C10.873 6.08825 10.8735 6.07889 10.8715 6.06991C10.859 6.03359 10.8521 5.99554 10.8512 5.95713C10.8501 5.87154 10.7129 5.87898 10.7134 5.96274Z" fill="#FCCA17"/>
<g style="mix-blend-mode:soft-light">
<path d="M5.08617 16.4054C5.15392 16.5631 5.40092 16.7664 5.53524 17.0159C5.66956 17.2653 5.78102 17.8505 5.98246 17.8518C6.26979 17.8603 6.55294 17.9228 6.81717 18.0359C7.15473 18.1721 8.23522 18.6273 8.46007 18.7185C8.68491 18.8097 8.5974 18.1992 8.39599 18.0415C8.19458 17.8837 8.01906 17.5467 7.6303 17.5204C7.24153 17.494 6.79805 17.2234 6.41426 17.1538C6.03048 17.0842 5.42494 16.4282 5.40342 16.2267C5.3819 16.0253 5.73992 15.8504 5.73992 15.8504L5.17688 15.4648C5.18984 15.5017 5.19451 15.5409 5.19057 15.5798C5.18663 15.6187 5.17417 15.6562 5.15407 15.6897C5.08923 15.7962 5.02149 16.2476 5.08617 16.4054Z" fill="white"/>
</g>
<path d="M25.8309 19.1906C25.8309 19.1906 25.4241 19.2941 25.259 19.1138C25.0939 18.9335 25.0356 18.7362 24.5539 18.9156C24.6299 19.0349 24.6808 19.1684 24.7035 19.308C24.7262 19.4476 24.7201 19.5904 24.6857 19.7275C24.6857 19.7275 25.4222 19.5196 25.8309 19.1906Z" fill="#8A871E"/>
</g>
<defs>
<clipPath id="clip0">
<rect width="23.2552" height="21.3167" fill="white" transform="translate(9.86365) rotate(25)"/>
</clipPath>
</defs>
</svg>
