<svg width="28" height="27" viewBox="0 0 28 27" fill="none" xmlns="http://www.w3.org/2000/svg">
<path d="M27.986 8.89678L26.8118 15.6611C26.6669 16.4083 26.0741 16.8626 25.3904 16.8712H8.27167L7.93179 18.7949H24.2471C25.1062 18.8605 25.6889 19.4716 25.6994 20.2532C25.6369 21.1141 25.0284 21.7009 24.2471 21.7116H6.20137C5.22541 21.6235 4.64345 20.8423 4.74905 19.974L5.52155 15.7541L4.34735 3.90108L1.01014 2.84617C0.194621 2.52103 -0.138229 1.7802 0.0522409 1.01548C0.368944 0.21849 1.12781 -0.145643 1.87534 0.0535867L6.13956 1.41886C6.71403 1.6351 7.0445 2.10729 7.12836 2.66001L7.37555 5.0182L26.719 7.1902C27.6078 7.38353 28.0903 8.09045 27.986 8.89678ZM10.623 24.7737C10.623 26.0032 9.63041 27 8.40593 27C7.18146 27 6.18886 26.0032 6.18886 24.7737C6.18886 23.5441 7.18149 22.5474 8.40593 22.5474C9.63039 22.5474 10.623 23.5442 10.623 24.7737ZM23.8589 24.7737C23.8589 26.0032 22.8663 27 21.6418 27C20.4173 27 19.4247 26.0032 19.4247 24.7737C19.4247 23.5441 20.4173 22.5474 21.6418 22.5474C22.8663 22.5474 23.8589 23.5442 23.8589 24.7737Z" fill="#26283A"/>
</svg>
