<svg width="22" height="27" viewBox="0 0 22 27" fill="none" xmlns="http://www.w3.org/2000/svg">
<path d="M18.2647 23.87C19.1791 24.8253 21.2687 24.7281 20.9714 22.6879C20.6741 20.6477 18.8283 21.975 17.5898 20.9901C16.3513 20.0052 15.5708 17.8114 15.5708 17.8114C14.4436 17.6001 14.2041 17.7537 13.9166 18.8611C13.9166 18.8611 15.5679 20.5068 15.9357 22.0398C16.3034 23.5727 14.3168 24.6816 16.0385 25.8172C17.7603 26.9529 18.7395 25.1043 18.2647 23.87Z" fill="#F0EABE" stroke="#D8D2A6" stroke-miterlimit="10"/>
<path d="M18.7596 16.9439C17.5901 15.2814 17.6324 16.3945 16.1981 14.1401C14.7637 11.8857 16.9956 6.09347 13.521 2.29629C7.6583 -4.10888 -2.33271 4.26603 0.493685 10.5669C2.60714 15.2645 8.64458 15.7717 10.0747 18.026C11.5048 20.2804 10.6622 19.6788 11.6696 21.4442C12.6771 23.2096 19.9304 18.6051 18.7596 16.9439Z" fill="#C46C1C"/>
<path d="M10.876 1.53134C10.8408 1.40876 10.7534 1.39044 10.645 1.34958C10.541 1.31194 10.434 1.28319 10.3251 1.26364C10.2993 1.25901 10.2726 1.2628 10.2491 1.27444C10.2256 1.28608 10.2064 1.30496 10.1944 1.3283C10.1825 1.35165 10.1783 1.37822 10.1825 1.40412C10.1868 1.43001 10.1992 1.45387 10.218 1.47216C10.3378 1.61306 10.6407 1.80749 10.814 1.699C10.8412 1.68164 10.862 1.65586 10.8732 1.62559C10.8844 1.59532 10.8854 1.56222 10.876 1.53134Z" fill="#E5A933"/>
<path d="M11.5862 3.64304C11.5422 3.49115 11.4574 3.35421 11.341 3.24713C11.3256 3.23425 11.3067 3.22605 11.2868 3.22351C11.2668 3.22096 11.2465 3.22417 11.2283 3.23275C11.2101 3.24133 11.1947 3.25494 11.184 3.27196C11.1733 3.28899 11.1676 3.30872 11.1677 3.32885C11.1713 3.47317 11.1985 3.61594 11.248 3.75153C11.2624 3.79637 11.294 3.83366 11.3359 3.85519C11.3778 3.87673 11.4265 3.88074 11.4714 3.86636C11.5162 3.85197 11.5535 3.82036 11.575 3.77848C11.5966 3.7366 11.6006 3.68788 11.5862 3.64304Z" fill="#E5A933"/>
<path d="M10.3124 4.08686C10.2166 3.953 10.1715 3.74446 10.0306 3.65569C10.0151 3.64776 9.99708 3.64627 9.98047 3.65154C9.96385 3.65682 9.94998 3.66844 9.94187 3.68387C9.84184 3.85437 9.96442 4.09954 10.0504 4.24749C10.1363 4.39544 10.4266 4.24749 10.3124 4.08686Z" fill="#E5A933"/>
<path d="M8.07214 2.80362C8.00067 2.73695 7.91259 2.69072 7.81713 2.66977C7.79998 2.66652 7.78229 2.66769 7.76572 2.67316C7.74915 2.67863 7.73424 2.68823 7.72241 2.70106C7.71057 2.71388 7.70219 2.72951 7.69806 2.74646C7.69392 2.76342 7.69417 2.78115 7.69878 2.79798C7.72833 2.89189 7.78464 2.97513 7.86081 3.0375C8.00874 3.17699 8.23135 2.92901 8.07214 2.80362Z" fill="#E5A933"/>
<path d="M8.2314 5.15651C8.19335 5.00293 8.00031 4.91416 7.87209 4.84371C7.80505 4.80153 7.73014 4.77341 7.65191 4.76106C7.57367 4.74871 7.49375 4.75238 7.41697 4.77185C7.39624 4.77851 7.37815 4.79158 7.36532 4.80918C7.35249 4.82678 7.34558 4.84799 7.34558 4.86977C7.34558 4.89155 7.35249 4.91277 7.36532 4.93037C7.37815 4.94797 7.39624 4.96104 7.41697 4.9677C7.52327 5.01005 7.62639 5.05996 7.72555 5.11706C7.83827 5.17483 7.94818 5.30023 8.07781 5.31291C8.09936 5.31885 8.12211 5.31892 8.1437 5.31311C8.16529 5.3073 8.18493 5.29583 8.2006 5.27987C8.21626 5.26392 8.22738 5.24407 8.23279 5.22238C8.23821 5.20069 8.23772 5.17795 8.2314 5.15651Z" fill="#E5A933"/>
<path d="M8.81752 8.76809C8.81657 8.7477 8.81037 8.7279 8.7995 8.71062C8.78864 8.69334 8.77349 8.67916 8.75553 8.66947C8.64904 8.62098 8.55066 8.55635 8.46389 8.47785C8.41035 8.41727 8.323 8.50181 8.35681 8.56662C8.38486 8.62088 8.41737 8.67272 8.45403 8.72159C8.51264 8.78035 8.57844 8.83148 8.64986 8.87376C8.66711 8.88406 8.68683 8.8895 8.70692 8.8895C8.72702 8.8895 8.74673 8.88406 8.76399 8.87376C8.783 8.86414 8.79845 8.84871 8.80808 8.8297C8.81771 8.81069 8.82102 8.78911 8.81752 8.76809Z" fill="#E5A933"/>
<path d="M5.64312 7.71353C5.80797 7.43174 5.42331 7.00906 5.16405 6.94002C5.09924 6.92311 5.06542 6.99497 5.08937 7.04569C5.14996 7.16686 5.22182 7.27394 5.29086 7.38947C5.3599 7.505 5.39936 7.64871 5.52335 7.73466C5.5322 7.74219 5.5426 7.74767 5.55381 7.75072C5.56502 7.75376 5.57677 7.7543 5.58821 7.75228C5.59965 7.75026 5.6105 7.74574 5.61999 7.73904C5.62949 7.73234 5.63738 7.72363 5.64312 7.71353Z" fill="#E5A933"/>
<path d="M4.49054 5.04366C4.52218 4.94111 4.51205 4.83021 4.46236 4.73509C4.43103 4.65865 4.38287 4.59026 4.32147 4.53501C4.31812 4.53003 4.31375 4.52582 4.30865 4.52266C4.30355 4.5195 4.29783 4.51747 4.29188 4.51669C4.27879 4.51429 4.26528 4.51597 4.25318 4.52152C4.24108 4.52706 4.23098 4.5362 4.22425 4.54769C4.13972 4.7055 4.18621 4.99857 4.34965 5.08734C4.36163 5.09433 4.37493 5.09876 4.38871 5.10033C4.40249 5.10191 4.41645 5.1006 4.4297 5.0965C4.44295 5.09239 4.4552 5.08557 4.46568 5.07647C4.47615 5.06738 4.48462 5.0562 4.49054 5.04366Z" fill="#E5A933"/>
<path d="M2.96608 5.76143C2.93227 5.63463 2.87168 5.43879 2.72513 5.41907C2.71391 5.41676 2.70223 5.41811 2.69183 5.42293C2.68143 5.42775 2.67286 5.43578 2.66736 5.44584C2.59409 5.55432 2.65891 5.72762 2.68145 5.84879C2.70963 5.98968 2.69977 6.13057 2.84631 6.21511C2.86166 6.22227 2.87884 6.22449 2.8955 6.22146C2.91216 6.21843 2.92747 6.2103 2.93931 6.1982C3.07035 6.08267 3.00554 5.91501 2.96608 5.76143Z" fill="#E5A933"/>
<path d="M5.01044 9.64204C4.94722 9.54841 4.87027 9.46481 4.78219 9.39406C4.70783 9.31754 4.6229 9.25206 4.52998 9.19962C4.50894 9.1895 4.48545 9.18559 4.46227 9.18837C4.43909 9.19114 4.41718 9.20048 4.39912 9.21528C4.38106 9.23008 4.36761 9.24973 4.36034 9.27191C4.35307 9.2941 4.35229 9.3179 4.35809 9.34052C4.39973 9.43543 4.45848 9.52188 4.53139 9.59554C4.60904 9.69774 4.70451 9.78509 4.81319 9.85338C4.84227 9.86683 4.87485 9.87075 4.90629 9.8646C4.93774 9.85844 4.96643 9.84251 4.9883 9.81909C5.01016 9.79567 5.02407 9.76594 5.02804 9.73415C5.03202 9.70236 5.02586 9.67012 5.01044 9.64204Z" fill="#E5A933"/>
<path d="M6.98869 13.0753C6.91955 13.008 6.83827 12.9544 6.74916 12.9175C6.65345 12.8631 6.5498 12.8241 6.442 12.8019C6.35747 12.7878 6.30111 12.909 6.38987 12.9428C6.55754 13.0217 6.75339 13.2035 6.95346 13.1809C6.96443 13.1785 6.9746 13.1733 6.98295 13.1658C6.9913 13.1583 6.99756 13.1488 7.00111 13.1381C7.00467 13.1274 7.00539 13.1161 7.00321 13.105C7.00103 13.094 6.99603 13.0838 6.98869 13.0753Z" fill="#E5A933"/>
<path d="M11.5707 14.9894C11.5355 14.7301 11.1072 14.6146 10.8902 14.6766C10.8712 14.6827 10.8545 14.6942 10.842 14.7098C10.8296 14.7253 10.822 14.7442 10.8202 14.764C10.8184 14.7838 10.8224 14.8037 10.8319 14.8213C10.8413 14.8388 10.8557 14.8532 10.8733 14.8626C10.9789 14.933 11.0987 14.9767 11.2114 15.0373C11.2572 15.0684 11.31 15.0877 11.365 15.0936C11.42 15.0995 11.4757 15.0918 11.527 15.0711C11.541 15.0627 11.5525 15.0507 11.5602 15.0363C11.5678 15.0219 11.5715 15.0057 11.5707 14.9894Z" fill="#E5A933"/>
<path d="M13.6066 11.961C13.6545 11.8201 13.5686 11.6483 13.5038 11.52C13.4389 11.3918 13.3882 11.2382 13.2699 11.172C13.2432 11.1589 13.2125 11.1566 13.1842 11.1655C13.1558 11.1744 13.132 11.1939 13.1177 11.2199C13.0487 11.3326 13.1247 11.482 13.1656 11.5905C13.2023 11.7385 13.2592 11.8807 13.3347 12.0132C13.3512 12.0375 13.3745 12.0565 13.4017 12.0678C13.429 12.0791 13.4589 12.0821 13.4878 12.0766C13.5167 12.071 13.5434 12.0571 13.5645 12.0366C13.5856 12.0161 13.6002 11.9898 13.6066 11.961Z" fill="#E5A933"/>
<path d="M14.483 8.7656C14.4665 8.75714 14.4474 8.7555 14.4297 8.76104C14.4121 8.76657 14.3973 8.77884 14.3886 8.79519C14.3504 8.88424 14.3439 8.98373 14.3703 9.07698C14.3697 9.1913 14.3957 9.30419 14.4464 9.40668C14.4543 9.41746 14.4644 9.42643 14.4761 9.433C14.4877 9.43956 14.5006 9.44358 14.514 9.44478C14.5273 9.44598 14.5407 9.44433 14.5533 9.43995C14.566 9.43557 14.5775 9.42855 14.5873 9.41936C14.7634 9.27001 14.662 8.86846 14.483 8.7656Z" fill="#E5A933"/>
<path d="M13.1642 7.28607C13.1374 7.20999 13.0712 6.96481 12.9472 7.00427C12.9301 7.00941 12.9147 7.01904 12.9025 7.03218C12.8904 7.04531 12.882 7.06146 12.8782 7.07895C12.8715 7.21714 12.8867 7.35554 12.9233 7.48897C12.9374 7.59465 12.9994 7.82996 13.1572 7.72992C13.315 7.62988 13.2107 7.4143 13.1642 7.28607Z" fill="#E5A933"/>
<path d="M11.7707 6.9039C11.8411 6.74751 11.6706 6.539 11.5213 6.49391C11.502 6.4897 11.4819 6.49327 11.4653 6.50382C11.4487 6.51438 11.4369 6.53107 11.4325 6.55027C11.4086 6.70524 11.5241 6.94898 11.6974 6.9518C11.7128 6.95126 11.7278 6.94651 11.7407 6.93807C11.7536 6.92962 11.764 6.91781 11.7707 6.9039Z" fill="#E5A933"/>
<path d="M13.8335 4.23626C13.8612 4.14437 13.8612 4.04633 13.8335 3.95444C13.8197 3.91001 13.7925 3.8709 13.7557 3.84241C13.7189 3.81393 13.6743 3.79746 13.6278 3.79522C13.6099 3.79115 13.5912 3.79263 13.5742 3.79946C13.5571 3.8063 13.5426 3.81816 13.5325 3.83347C13.5224 3.84879 13.5172 3.86682 13.5176 3.88516C13.518 3.9035 13.524 3.92128 13.5348 3.93613C13.5348 4.02913 13.5348 4.12353 13.5446 4.21794C13.5451 4.24387 13.5527 4.26917 13.5666 4.29104C13.5806 4.31292 13.6003 4.33053 13.6235 4.34194C13.6581 4.35892 13.6976 4.36292 13.7349 4.35321C13.7603 4.34442 13.7829 4.32891 13.8003 4.30832C13.8176 4.28774 13.8291 4.26283 13.8335 4.23626Z" fill="#E5A933"/>
<path d="M8.454 1.10784C8.40434 1.04585 8.33269 1.00539 8.25395 0.994895C8.17522 0.984397 8.09547 1.00467 8.0313 1.05148C8.01772 1.06617 8.00949 1.08501 8.00795 1.10496C8.00642 1.12491 8.01167 1.1448 8.02285 1.16139C8.10181 1.25622 8.21441 1.31682 8.33705 1.33047C8.36481 1.33605 8.39363 1.33248 8.4192 1.32031C8.44476 1.30813 8.4657 1.28801 8.47886 1.26294C8.49203 1.23787 8.49673 1.20921 8.49224 1.18125C8.48776 1.15329 8.47434 1.12754 8.454 1.10784Z" fill="#E5A933"/>
<path d="M6.48142 1.50562C6.40982 1.46762 6.32723 1.45569 6.24781 1.47189C6.16838 1.48808 6.09705 1.53139 6.04604 1.59439C6.03724 1.61089 6.03425 1.62988 6.03758 1.64829C6.0409 1.6667 6.05034 1.68345 6.06436 1.69584C6.127 1.73576 6.19905 1.75847 6.27325 1.76169C6.34746 1.7649 6.4212 1.74851 6.48706 1.71415C6.50489 1.70295 6.51949 1.68729 6.52943 1.66873C6.53936 1.65016 6.54429 1.62933 6.54372 1.60828C6.54315 1.58723 6.53711 1.56669 6.52618 1.54869C6.51526 1.53069 6.49983 1.51584 6.48142 1.50562Z" fill="#E5A933"/>
<path d="M4.79065 2.40234C4.79065 2.40234 4.79065 2.41221 4.80052 2.41785C4.81038 2.42349 4.80052 2.41785 4.80052 2.4249L4.79065 2.40234Z" fill="#E5A933"/>
<path d="M4.79769 2.41906C4.79015 2.39985 4.77819 2.38269 4.76276 2.36897C4.74734 2.35526 4.72889 2.34539 4.70893 2.34016C4.61659 2.31475 4.51924 2.31372 4.42638 2.33718C4.33353 2.36064 4.24835 2.40779 4.17916 2.47401C4.1705 2.48363 4.16448 2.49533 4.16171 2.50797C4.15893 2.52061 4.15949 2.53376 4.16333 2.54612C4.16716 2.55848 4.17415 2.56963 4.18359 2.57848C4.19303 2.58733 4.20462 2.59357 4.2172 2.5966C4.31934 2.62054 4.42529 2.62342 4.52858 2.60505C4.60587 2.60738 4.68262 2.59145 4.7526 2.55855C4.76606 2.55394 4.77826 2.54625 4.78823 2.5361C4.7982 2.52596 4.80567 2.51362 4.81004 2.50009C4.81442 2.48655 4.81558 2.47218 4.81344 2.45811C4.81129 2.44405 4.8059 2.43068 4.79769 2.41906Z" fill="#E5A933"/>
<path d="M5.59521 3.75253C5.52899 3.62995 5.30215 3.69336 5.3261 3.83707C5.35006 3.98079 5.35569 4.20059 5.50645 4.28512C5.52675 4.29541 5.54985 4.29878 5.57224 4.2947C5.59462 4.29063 5.61506 4.27935 5.63044 4.26258C5.76147 4.13014 5.66989 3.89343 5.59521 3.75253Z" fill="#E5A933"/>
<path d="M2.93924 4.27716C2.96719 4.24603 2.99175 4.21203 3.01251 4.17571C3.02844 4.16311 3.03922 4.14512 3.0428 4.12513C3.04638 4.10514 3.04251 4.08453 3.03194 4.06719C3.02136 4.04985 3.0048 4.03698 2.98539 4.03101C2.96597 4.02505 2.94505 4.02639 2.92656 4.0348C2.89583 4.03469 2.86516 4.03752 2.83497 4.04325C2.77447 4.06354 2.71744 4.093 2.66589 4.13062C2.6124 4.1599 2.56567 4.20014 2.52877 4.2487C2.49187 4.29726 2.46561 4.35305 2.45172 4.41243C2.44894 4.42583 2.44969 4.43971 2.45389 4.45273C2.4581 4.46574 2.46561 4.47744 2.4757 4.48668C2.48579 4.49591 2.4981 4.50237 2.51144 4.50541C2.52477 4.50845 2.53867 4.50797 2.55176 4.50402C2.6468 4.46901 2.73681 4.42163 2.81947 4.36312C2.86175 4.34762 2.89979 4.30957 2.93924 4.27716Z" fill="#E5A933"/>
<path d="M1.49089 8.45146C1.52893 8.33311 1.56557 8.21476 1.60079 8.095C1.64831 7.96795 1.67956 7.83539 1.69379 7.7005C1.69379 7.58496 1.55289 7.5596 1.48807 7.62582C1.38358 7.73424 1.3134 7.87108 1.28633 8.0192C1.25926 8.16733 1.2765 8.32014 1.3359 8.45851C1.34125 8.47536 1.35201 8.48997 1.36651 8.50009C1.38101 8.5102 1.39844 8.51525 1.4161 8.51444C1.43376 8.51364 1.45066 8.50703 1.46418 8.49565C1.47771 8.48426 1.48709 8.46873 1.49089 8.45146Z" fill="#E5A933"/>
<path d="M2.34187 11.2867C2.37154 11.1809 2.36255 11.068 2.31651 10.9683C2.28808 10.8351 2.21977 10.7137 2.12066 10.6202C2.10877 10.6099 2.0944 10.6027 2.07895 10.5995C2.0635 10.5964 2.04748 10.5972 2.03245 10.602C2.01743 10.6069 2.0039 10.6155 1.99319 10.6271C1.98248 10.6386 1.97494 10.6528 1.9713 10.6682C1.95535 10.8006 1.96932 10.9349 2.01216 11.0613C2.02087 11.1238 2.04609 11.1828 2.08522 11.2324C2.12435 11.2819 2.17598 11.3201 2.23479 11.343C2.2564 11.3474 2.27885 11.3442 2.29835 11.3339C2.31786 11.3236 2.33323 11.307 2.34187 11.2867Z" fill="#E5A933"/>
<path d="M3.6283 8.19739C3.63272 8.10652 3.61694 8.01579 3.5821 7.93174C3.54726 7.84769 3.49423 7.7724 3.42682 7.7113C3.41841 7.70396 3.40825 7.69892 3.39732 7.69666C3.38639 7.6944 3.37507 7.69499 3.36444 7.6984C3.35381 7.7018 3.34424 7.70788 3.33665 7.71607C3.32907 7.72425 3.32373 7.73426 3.32114 7.74511C3.30022 7.8388 3.30662 7.93653 3.33959 8.02669C3.37256 8.11685 3.4307 8.19566 3.50713 8.25375C3.51859 8.25966 3.53126 8.26287 3.54415 8.26314C3.55705 8.2634 3.56983 8.26071 3.58153 8.25527C3.59322 8.24983 3.60352 8.24178 3.61163 8.23175C3.61973 8.22172 3.62544 8.20997 3.6283 8.19739Z" fill="#E5A933"/>
<path d="M7.70864 6.94729C7.62189 6.83606 7.50783 6.74917 7.37754 6.69509C7.324 6.66692 7.24792 6.72186 7.27187 6.78245C7.33246 6.93461 7.49308 7.09382 7.66638 7.06423C7.67813 7.06101 7.68894 7.05501 7.69789 7.04675C7.70684 7.03848 7.71368 7.02818 7.71782 7.01672C7.72196 7.00526 7.72329 6.99297 7.7217 6.98089C7.7201 6.9688 7.71562 6.95728 7.70864 6.94729Z" fill="#E5A933"/>
<path d="M10.497 8.22351C10.4628 8.12989 10.4073 8.04548 10.335 7.97693L10.2222 7.87126C10.2096 7.85999 10.1321 7.79235 10.1631 7.83885C10.1512 7.82598 10.1355 7.81726 10.1184 7.81396C10.1012 7.81067 10.0834 7.81298 10.0676 7.82055C10.0518 7.82812 10.0389 7.84056 10.0307 7.85603C10.0225 7.8715 10.0195 7.88918 10.0222 7.90648C10.0348 7.87267 10.0334 7.87408 10.0222 7.90648C10.0173 7.92495 10.0173 7.94438 10.0222 7.96284C10.0426 8.01797 10.0726 8.06903 10.1109 8.11361C10.1839 8.21405 10.2912 8.28424 10.4125 8.31087C10.4243 8.31298 10.4364 8.31215 10.4479 8.30846C10.4593 8.30477 10.4696 8.29832 10.478 8.2897C10.4863 8.28107 10.4924 8.27052 10.4957 8.25898C10.4991 8.24744 10.4995 8.23526 10.497 8.22351Z" fill="#E5A933"/>
<path d="M12.8993 2.80943C12.9092 2.677 12.781 2.56147 12.6795 2.49525C12.6335 2.46114 12.5827 2.43407 12.5287 2.41494C12.5071 2.40856 12.4841 2.40856 12.4625 2.41494C12.4625 2.41494 12.4625 2.41494 12.4527 2.41494C12.4428 2.41494 12.4527 2.41494 12.4527 2.41494C12.4437 2.4153 12.4349 2.41786 12.4271 2.42239C12.4194 2.42693 12.4128 2.4333 12.4081 2.44095C12.4034 2.4486 12.4006 2.4573 12.4 2.46627C12.3994 2.47525 12.4011 2.48423 12.4048 2.49243C12.4043 2.51018 12.4087 2.52772 12.4174 2.54315C12.4457 2.58999 12.4803 2.63267 12.5203 2.66995C12.5921 2.76653 12.6898 2.84078 12.8021 2.88411C12.8135 2.88712 12.8255 2.88747 12.8371 2.88513C12.8487 2.88279 12.8596 2.87783 12.869 2.87062C12.8784 2.86341 12.886 2.85415 12.8913 2.84354C12.8965 2.83294 12.8993 2.82127 12.8993 2.80943Z" fill="#E5A933"/>
<path d="M15.1494 7.34956C15.189 7.18705 15.1696 7.01574 15.0944 6.86628C15.0795 6.8359 15.0566 6.81011 15.0282 6.79161H15.0141C15.0141 6.79161 15.0141 6.79161 14.993 6.77611C14.9709 6.76582 14.946 6.76301 14.9221 6.76809C14.8982 6.77317 14.8766 6.78588 14.8606 6.80429C14.853 6.81274 14.8474 6.82272 14.8441 6.83354C14.8407 6.84437 14.8398 6.85578 14.8412 6.86701C14.8427 6.87823 14.8466 6.88901 14.8526 6.89861C14.8586 6.90821 14.8666 6.91641 14.8761 6.92264C14.8833 6.97859 14.8936 7.0341 14.9071 7.0889C14.9188 7.19208 14.9514 7.29179 15.0029 7.38196C15.0118 7.39555 15.0247 7.40611 15.0397 7.41223C15.0548 7.41835 15.0714 7.41974 15.0873 7.41623C15.1032 7.41271 15.1176 7.40446 15.1287 7.39255C15.1398 7.38065 15.147 7.36565 15.1494 7.34956Z" fill="#E5A933"/>
<path d="M12.4442 5.7038C12.5302 5.58403 12.4513 5.4544 12.3893 5.34026C12.3428 5.27686 12.2188 5.26277 12.2103 5.38958C12.2019 5.5164 12.2202 5.68549 12.3639 5.72212C12.3778 5.72617 12.3924 5.72661 12.4065 5.72341C12.4205 5.7202 12.4335 5.71345 12.4442 5.7038Z" fill="#E5A933"/>
<path d="M11.5227 11.4126C11.4971 11.2738 11.4331 11.145 11.3381 11.0406C11.2658 10.9299 11.1827 10.8265 11.0902 10.7321C11.0813 10.7242 11.0705 10.7187 11.0589 10.7163C11.0473 10.7138 11.0352 10.7145 11.0239 10.7182C11.0126 10.7219 11.0025 10.7286 10.9946 10.7374C10.9867 10.7463 10.9813 10.7571 10.9788 10.7687C10.9715 10.9002 11.0143 11.0296 11.0986 11.1308C11.173 11.271 11.2809 11.3905 11.4128 11.4788C11.4243 11.4845 11.437 11.4872 11.4497 11.4867C11.4625 11.4862 11.475 11.4824 11.4859 11.4758C11.4969 11.4692 11.506 11.46 11.5124 11.4489C11.5188 11.4379 11.5224 11.4254 11.5227 11.4126Z" fill="#E5A933"/>
<path d="M9.75452 6.27676C9.78129 6.11192 9.63193 5.98652 9.50372 5.91044C9.48511 5.90182 9.46407 5.90002 9.44428 5.90535C9.42448 5.91068 9.40719 5.92281 9.39543 5.9396C9.38367 5.9564 9.3782 5.9768 9.37996 5.99722C9.38173 6.01765 9.39062 6.0368 9.40509 6.05133C9.5009 6.13023 9.54599 6.25845 9.66011 6.31903C9.66895 6.32358 9.67869 6.32608 9.68862 6.32635C9.69855 6.32662 9.70841 6.32465 9.71747 6.32059C9.72654 6.31653 9.73458 6.31048 9.74099 6.3029C9.7474 6.29531 9.75202 6.28638 9.75452 6.27676Z" fill="#E5A933"/>
<path d="M8.2624 10.7159C8.19539 10.601 8.09785 10.5068 7.9806 10.444C7.8552 10.3637 7.75517 10.2524 7.62977 10.1735C7.56214 10.1312 7.48887 10.1974 7.48887 10.2636C7.47619 10.5666 7.89043 10.8272 8.15109 10.8794C8.17165 10.883 8.19281 10.8806 8.21204 10.8724C8.23127 10.8643 8.24775 10.8508 8.2595 10.8336C8.27125 10.8163 8.27777 10.796 8.27829 10.7752C8.2788 10.7543 8.27328 10.7337 8.2624 10.7159Z" fill="#E5A933"/>
<path d="M10.6436 13.4589C10.4858 13.318 10.2646 13.132 10.0448 13.125C10.0232 13.1261 10.0025 13.1336 9.98514 13.1464C9.9678 13.1593 9.95463 13.177 9.94727 13.1973C9.93991 13.2175 9.93868 13.2395 9.94374 13.2605C9.9488 13.2815 9.95992 13.3005 9.97572 13.3152C10.1293 13.4716 10.3899 13.6351 10.6154 13.5886C10.6283 13.5846 10.6399 13.5773 10.6491 13.5673C10.6582 13.5574 10.6645 13.5452 10.6674 13.532C10.6703 13.5188 10.6696 13.5051 10.6654 13.4922C10.6612 13.4794 10.6537 13.4679 10.6436 13.4589Z" fill="#E5A933"/>
<path d="M7.26626 14.4854C7.09719 14.2501 6.77736 14.1416 6.51389 14.0528C6.49482 14.0487 6.47491 14.0509 6.45725 14.0592C6.43958 14.0675 6.42514 14.0814 6.41615 14.0987C6.40717 14.116 6.40415 14.1358 6.40755 14.155C6.41096 14.1742 6.4206 14.1918 6.43499 14.205C6.65478 14.36 6.92107 14.5516 7.193 14.5882C7.24794 14.5953 7.30289 14.5375 7.26626 14.4854Z" fill="#E5A933"/>
<path d="M4.83005 12.4561C4.72825 12.3842 4.62082 12.3205 4.50882 12.2659C4.423 12.2184 4.32299 12.2034 4.22703 12.2236C4.21166 12.2259 4.19763 12.2336 4.18748 12.2454C4.17733 12.2571 4.17175 12.2722 4.17175 12.2877C4.17175 12.3032 4.17733 12.3183 4.18748 12.33C4.19763 12.3418 4.21166 12.3495 4.22703 12.3518C4.21999 12.3335 4.22703 12.3363 4.2383 12.3518C4.25905 12.3667 4.2807 12.3804 4.30312 12.3927C4.35384 12.4293 4.40315 12.4645 4.45669 12.4969C4.50355 12.5374 4.55999 12.5653 4.62065 12.5779C4.68131 12.5905 4.74417 12.5873 4.80328 12.5688C4.81367 12.5644 4.82288 12.5576 4.83016 12.549C4.83745 12.5404 4.8426 12.5302 4.84521 12.5192C4.84781 12.5082 4.8478 12.4968 4.84517 12.4858C4.84253 12.4749 4.83736 12.4647 4.83005 12.4561Z" fill="#E5A933"/>
<path d="M6.38279 11.562C6.32362 11.4211 6.12496 11.1774 5.96011 11.3295C5.95892 11.3306 5.95795 11.3319 5.9573 11.3333C5.95664 11.3348 5.9563 11.3364 5.9563 11.338C5.9563 11.3396 5.95664 11.3411 5.9573 11.3426C5.95795 11.3441 5.95892 11.3454 5.96011 11.3464C6.00297 11.4087 6.05004 11.4681 6.10101 11.5239C6.16231 11.5783 6.23735 11.6149 6.31798 11.6296C6.35602 11.6395 6.3997 11.6 6.38279 11.562Z" fill="#E5A933"/>
<path d="M9.11057 12.6819C9.11057 12.5664 9.01053 12.503 8.93022 12.4368C8.84648 12.3599 8.7431 12.3077 8.63153 12.286C8.56531 12.2762 8.49064 12.3522 8.53995 12.4171C8.6147 12.5068 8.69772 12.5894 8.78792 12.6636C8.86682 12.7341 8.93727 12.8045 9.04716 12.7707C9.06585 12.7647 9.08211 12.7528 9.09352 12.7368C9.10494 12.7208 9.11091 12.7016 9.11057 12.6819Z" fill="#E5A933"/>
<path d="M12.5865 9.23974C12.5978 9.17237 12.5936 9.1033 12.574 9.03784C12.5545 8.97237 12.5202 8.91226 12.4738 8.86213C12.4572 8.83952 12.4334 8.82334 12.4062 8.81634C12.3791 8.80934 12.3504 8.81196 12.325 8.82376C12.2996 8.83555 12.279 8.85579 12.2669 8.88103C12.2547 8.90626 12.2516 8.93494 12.2582 8.96217C12.2853 9.09787 12.3622 9.21851 12.4738 9.30033C12.485 9.30579 12.4974 9.30851 12.5099 9.30826C12.5224 9.308 12.5346 9.30479 12.5456 9.29887C12.5566 9.29295 12.5661 9.28451 12.5732 9.27423C12.5803 9.26395 12.5849 9.25213 12.5865 9.23974Z" fill="#E5A933"/>
<path d="M15.0959 11.8C15.1105 11.7595 15.1164 11.7162 15.1129 11.6732C15.1095 11.6302 15.097 11.5884 15.0761 11.5506C15.0381 11.4436 15.0141 11.3351 14.9691 11.2294C14.9451 11.1716 14.8493 11.142 14.8282 11.2153C14.7549 11.4041 14.7535 11.7789 14.9888 11.8508C15.0097 11.855 15.0315 11.8524 15.0508 11.8433C15.0701 11.8341 15.0859 11.819 15.0959 11.8Z" fill="#E5A933"/>
<path d="M15.8483 14.3091C15.8505 14.2001 15.8185 14.0931 15.7567 14.0033C15.7031 13.8933 15.6196 13.8005 15.5157 13.7356C15.5027 13.729 15.4882 13.726 15.4736 13.7267C15.459 13.7274 15.4448 13.7318 15.4325 13.7396C15.4201 13.7474 15.41 13.7583 15.4031 13.7712C15.3962 13.7841 15.3928 13.7985 15.3932 13.8131C15.4125 13.9337 15.4608 14.0479 15.5341 14.1456C15.5862 14.2416 15.6698 14.3167 15.7708 14.3584C15.7791 14.3603 15.7877 14.3605 15.7961 14.359C15.8045 14.3575 15.8126 14.3544 15.8198 14.3499C15.827 14.3453 15.8332 14.3393 15.8381 14.3323C15.843 14.3253 15.8464 14.3174 15.8483 14.3091Z" fill="#E5A933"/>
<path d="M14.5126 14.0105C14.5506 13.802 14.4041 13.4567 14.1575 13.461C14.144 13.4615 14.1307 13.4651 14.1188 13.4715C14.1069 13.4779 14.0966 13.487 14.0887 13.498C14.0808 13.509 14.0755 13.5217 14.0733 13.5351C14.0711 13.5484 14.0719 13.5621 14.0758 13.5751C14.1138 13.6653 14.1716 13.7456 14.2167 13.8344C14.2555 13.929 14.325 14.0079 14.414 14.0584C14.4234 14.0632 14.4339 14.0657 14.4445 14.0657C14.4551 14.0658 14.4656 14.0634 14.4751 14.0588C14.4846 14.0542 14.493 14.0474 14.4995 14.039C14.506 14.0307 14.5105 14.0209 14.5126 14.0105Z" fill="#E5A933"/>
<path d="M13.1402 14.1749C13.0798 14.0412 13.0072 13.9134 12.9233 13.7931C12.8528 13.6783 12.7562 13.5817 12.6415 13.5113C12.5612 13.469 12.4344 13.5521 12.478 13.6522C12.5893 13.8959 12.7683 14.2003 13.0416 14.2933C13.0573 14.2976 13.0739 14.2973 13.0894 14.2925C13.1049 14.2876 13.1187 14.2784 13.1291 14.2659C13.1395 14.2534 13.1461 14.2382 13.1481 14.222C13.1501 14.2059 13.1473 14.1895 13.1402 14.1749Z" fill="#E5A933"/>
<path d="M14.6535 16.2604C14.6323 16.0307 14.3111 15.9264 14.1448 15.8207C14.0941 15.7883 14.0335 15.8588 14.0674 15.9053C14.1758 16.0603 14.3491 16.3745 14.576 16.3435C14.5865 16.3431 14.5969 16.3407 14.6065 16.3363C14.6161 16.3319 14.6248 16.3257 14.632 16.318C14.6392 16.3103 14.6448 16.3012 14.6485 16.2913C14.6522 16.2814 14.6539 16.2709 14.6535 16.2604Z" fill="#E5A933"/>
<path d="M13.7546 16.9827C13.7743 16.7728 13.5756 16.5713 13.4108 16.4685C13.315 16.4093 13.2262 16.5347 13.2699 16.6192C13.3593 16.7908 13.4894 16.9379 13.6489 17.0476C13.66 17.053 13.6723 17.0556 13.6847 17.055C13.697 17.0545 13.7091 17.0508 13.7196 17.0443C13.7302 17.0378 13.7389 17.0288 13.745 17.018C13.7511 17.0073 13.7544 16.9951 13.7546 16.9827Z" fill="#E5A933"/>
<path d="M12.2892 17.3159C12.2075 17.1327 12.1201 16.9242 11.9215 16.8425C11.9018 16.8308 11.8789 16.8261 11.8562 16.8289C11.8336 16.8318 11.8125 16.8421 11.7964 16.8583C11.7802 16.8744 11.7699 16.8955 11.767 16.9181C11.7642 16.9408 11.7689 16.9637 11.7806 16.9834C11.8692 17.1666 12.0229 17.3103 12.2117 17.3863C12.2582 17.4032 12.3075 17.3567 12.2892 17.3159Z" fill="#E5A933"/>
<path d="M10.7802 17.4101C10.7731 17.2367 10.628 17.117 10.5181 16.9972C10.4815 16.9578 10.2363 16.7661 10.2053 16.9155C10.1842 17.0296 10.2927 17.1452 10.3547 17.2297C10.4434 17.3481 10.5491 17.503 10.7168 17.4777C10.734 17.4766 10.7501 17.469 10.7619 17.4564C10.7737 17.4439 10.7802 17.4273 10.7802 17.4101Z" fill="#E5A933"/>
<path d="M10.3843 15.7811C10.3843 15.6304 10.1349 15.4824 10.0306 15.3951C9.9703 15.3349 9.89712 15.2892 9.81658 15.2614C9.73605 15.2335 9.65026 15.2243 9.56565 15.2345C9.55035 15.2388 9.53688 15.2481 9.52729 15.2608C9.5177 15.2735 9.51251 15.289 9.51251 15.3049C9.51251 15.3208 9.5177 15.3363 9.52729 15.349C9.53688 15.3617 9.55035 15.371 9.56565 15.3753C9.71782 15.3923 9.84745 15.5557 9.95876 15.6571C10.0701 15.7586 10.1912 15.9108 10.3265 15.8586C10.3438 15.8546 10.359 15.8447 10.3696 15.8305C10.3802 15.8163 10.3854 15.7988 10.3843 15.7811Z" fill="#E5A933"/>
<path d="M9.01755 14.4584C9.01073 14.351 8.96321 14.2503 8.88467 14.1767C8.80612 14.1031 8.70247 14.0623 8.59486 14.0625C8.57801 14.0637 8.56176 14.0692 8.54764 14.0785C8.53353 14.0877 8.52203 14.1005 8.51426 14.1155C8.50648 14.1304 8.50268 14.1472 8.50323 14.1641C8.50377 14.1809 8.50864 14.1974 8.51736 14.2118C8.61908 14.35 8.7571 14.4573 8.9161 14.5218C8.92681 14.5275 8.93882 14.5303 8.95094 14.5299C8.96306 14.5294 8.97486 14.5258 8.98514 14.5194C8.99543 14.513 9.00384 14.504 9.00953 14.4933C9.01522 14.4825 9.01798 14.4705 9.01755 14.4584Z" fill="#E5A933"/>
<path d="M8.65688 15.5299C8.59247 15.4004 8.48553 15.2969 8.35396 15.2368C8.24124 15.1861 8.1243 15.3355 8.22574 15.4228C8.33048 15.5071 8.44795 15.5741 8.57376 15.6215C8.58628 15.6273 8.60033 15.6289 8.61386 15.6262C8.62738 15.6234 8.63967 15.6164 8.64895 15.6062C8.65823 15.596 8.664 15.5831 8.66542 15.5694C8.66685 15.5556 8.66386 15.5418 8.65688 15.5299Z" fill="#E5A933"/>
<path d="M6.90412 9.33274C6.8341 9.17786 6.73456 9.03811 6.61106 8.92133C6.5989 8.91047 6.58353 8.90389 6.56728 8.90258C6.55103 8.90128 6.53481 8.90533 6.52107 8.91411C6.50734 8.92289 6.49686 8.93592 6.49123 8.95122C6.4856 8.96651 6.48513 8.98323 6.48989 8.99882C6.51134 9.08934 6.5534 9.17368 6.61278 9.24528C6.67216 9.31689 6.74727 9.37382 6.83226 9.41164C6.84306 9.41751 6.85552 9.41958 6.86764 9.41754C6.87976 9.41549 6.89084 9.40944 6.89911 9.40035C6.90739 9.39127 6.91238 9.37967 6.91329 9.36741C6.91419 9.35515 6.91097 9.34295 6.90412 9.33274Z" fill="#E5A933"/>
<path d="M16.3949 15.8225C16.374 15.729 16.3287 15.6428 16.2636 15.5725C16.1985 15.5022 16.116 15.4504 16.0244 15.4224C15.937 15.3956 15.8933 15.497 15.9243 15.5633C15.9934 15.7042 16.1723 15.8873 16.347 15.8817C16.3609 15.8796 16.3736 15.8724 16.3825 15.8614C16.3913 15.8505 16.3958 15.8366 16.3949 15.8225Z" fill="#E5A933"/>
<path d="M13.1036 15.3145C13.041 15.22 12.9606 15.1386 12.8669 15.075C12.8533 15.0623 12.8356 15.0552 12.817 15.0547C12.7985 15.0543 12.7804 15.0606 12.7662 15.0726C12.752 15.0845 12.7427 15.1012 12.74 15.1196C12.7372 15.1379 12.7413 15.1566 12.7514 15.1722C12.777 15.2318 12.8173 15.2839 12.8685 15.3236C12.9198 15.3633 12.9803 15.3892 13.0444 15.3991C13.0552 15.4012 13.0663 15.4002 13.0764 15.3961C13.0866 15.392 13.0953 15.3851 13.1016 15.3761C13.1079 15.3671 13.1114 15.3565 13.1118 15.3456C13.1121 15.3347 13.1093 15.3239 13.1036 15.3145Z" fill="#E5A933"/>
<path d="M16.4344 17.1059C16.4274 17.0086 16.4035 16.9133 16.364 16.8241C16.3569 16.7999 16.3412 16.7791 16.3199 16.7657C16.2986 16.7523 16.2731 16.7472 16.2482 16.7514C16.2234 16.7556 16.2009 16.7687 16.1851 16.7884C16.1693 16.808 16.1613 16.8327 16.1625 16.8579C16.1568 16.923 16.1726 16.9881 16.2075 17.0433C16.2424 17.0985 16.2944 17.1408 16.3555 17.1637C16.3646 17.1657 16.3739 17.1658 16.383 17.1639C16.3921 17.162 16.4006 17.1582 16.4081 17.1527C16.4156 17.1473 16.4218 17.1402 16.4264 17.1322C16.4309 17.1241 16.4336 17.1151 16.4344 17.1059Z" fill="#E5A933"/>
<path d="M15.4284 17.6623C15.4692 17.5214 15.3142 17.3806 15.2692 17.2608C15.2625 17.2393 15.2482 17.2209 15.229 17.2091C15.2098 17.1973 15.1869 17.1928 15.1647 17.1966C15.1425 17.2004 15.1224 17.2122 15.1082 17.2297C15.0939 17.2472 15.0866 17.2693 15.0874 17.2918C15.0874 17.4242 15.1846 17.7032 15.3396 17.7145C15.3582 17.7182 15.3775 17.7149 15.3939 17.7053C15.4102 17.6957 15.4225 17.6804 15.4284 17.6623Z" fill="#E5A933"/>
<path d="M14.4069 18.2826C14.4069 18.16 14.3026 18.0769 14.2082 18.0149C14.1138 17.9529 14.0518 18.1009 14.1364 18.1558C14.2209 18.2108 14.2505 18.2854 14.3252 18.3362C14.3632 18.3601 14.4055 18.3164 14.4069 18.2826Z" fill="#E5A933"/>
<path d="M13.2445 18.4238C13.2618 18.2786 13.2252 18.1322 13.1417 18.0123C13.0825 17.9095 12.967 17.7996 12.843 17.8545C12.825 17.8606 12.8101 17.8734 12.8012 17.8901C12.7923 17.9069 12.7901 17.9264 12.7951 17.9447C12.8416 18.1377 12.936 18.397 13.1375 18.4731C13.1476 18.478 13.1587 18.4807 13.17 18.4808C13.1813 18.4809 13.1924 18.4785 13.2027 18.4738C13.2129 18.4691 13.222 18.4622 13.2293 18.4535C13.2365 18.4448 13.2417 18.4347 13.2445 18.4238Z" fill="#E5A933"/>
<path d="M12.2779 18.8498C12.2742 18.7215 12.2242 18.5989 12.137 18.5046C12.0793 18.4285 11.9961 18.3215 11.8891 18.3243C11.8762 18.3246 11.8635 18.3276 11.8517 18.3329C11.84 18.3382 11.8294 18.3458 11.8206 18.3552C11.8118 18.3647 11.805 18.3758 11.8005 18.3879C11.7961 18.4 11.7941 18.4128 11.7946 18.4257C11.7946 18.506 11.8665 18.5863 11.9088 18.6497C11.968 18.7357 12.0074 18.8315 12.0722 18.9132C12.0858 18.9331 12.1054 18.948 12.1281 18.956C12.1508 18.9639 12.1754 18.9643 12.1984 18.9572C12.2214 18.9502 12.2415 18.9359 12.2558 18.9166C12.2701 18.8973 12.2779 18.8739 12.2779 18.8498Z" fill="#E5A933"/>
<path d="M11.8355 19.4419C11.7891 19.3111 11.7199 19.1894 11.6312 19.0826C11.5889 19.0347 11.4579 18.8713 11.3804 18.9671C11.3029 19.0629 11.3804 19.201 11.4382 19.2897C11.5073 19.4076 11.6178 19.4955 11.7482 19.5363C11.7608 19.5386 11.7738 19.5377 11.786 19.5337C11.7982 19.5296 11.8091 19.5226 11.8178 19.5132C11.8266 19.5037 11.8328 19.4923 11.8359 19.4798C11.8389 19.4673 11.8388 19.4543 11.8355 19.4419Z" fill="#E5A933"/>
<g style="mix-blend-mode:soft-light" opacity="0.3">
<path d="M15.3072 12.6802C15.0508 11.8587 14.7732 10.4709 15.0254 9.64804C15.2494 8.91819 15.2931 7.84596 14.8578 6.42571C14.0546 3.80361 11.2592 -0.84601 5.80653 1.05329C0.353822 2.95259 9.17397 7.5543 10.335 7.9784C11.496 8.40251 12.7302 13.8045 14.2575 15.3417C15.7849 16.8789 17.7391 17.1241 16.974 16.0462C16.3442 15.1529 15.9722 14.8204 15.3072 12.6802Z" fill="#FFF8B3"/>
</g>
<g style="mix-blend-mode:soft-light" opacity="0.5">
<path d="M13.353 4.17912C13.3925 4.31016 13.4065 4.48628 13.2854 4.54969C13.1445 4.62295 13.0036 4.45951 12.9162 4.32284C12.4643 3.57648 11.8607 2.93333 11.1444 2.43504C10.4282 1.93675 9.61528 1.59441 8.75835 1.4302C8.42019 1.36679 7.9975 1.26394 7.92987 0.925781C9.05705 0.994821 10.1842 1.20053 11.1804 1.71904C12.1765 2.23754 13.0289 3.09984 13.353 4.17912Z" fill="#FFF8B3"/>
</g>
<g style="mix-blend-mode:multiply">
<path d="M10.0771 18.026C11.5086 20.2803 10.6647 19.6787 11.6721 21.4442C12.0948 22.1796 13.5939 21.8077 15.1212 21.006C14.0335 20.61 12.2949 19.7463 11.7496 18.15C10.9338 15.7688 8.64984 13.8864 6.39549 12.9466C4.37925 12.1167 0.000167358 9.41574 0.932906 4.82812C-0.0533736 6.62879 -0.349258 8.69012 0.493307 10.5669C2.59972 15.2644 8.64421 15.7716 10.0771 18.026Z" fill="#FBB220"/>
</g>
</svg>
