<svg width="35" height="35" viewBox="0 0 35 35" fill="none" xmlns="http://www.w3.org/2000/svg">
<path d="M15.9703 12.4587C12.2776 12.5507 9.29796 13.4599 9.32497 14.5032C9.32703 14.5543 9.33543 14.6051 9.34997 14.6542L11.8885 29.8334C11.9125 30.8096 13.9399 31.5487 16.4194 31.4897C18.899 31.4307 20.8924 30.5935 20.8674 29.6183L22.6897 14.3331C22.7036 14.2813 22.71 14.2277 22.7087 14.1741C22.6797 13.1449 19.6671 12.3707 15.9703 12.4587Z" fill="#99002E"/>
<path d="M8.50371 12.2005C8.50552 12.2583 8.51562 12.3156 8.53372 12.3705L11.3623 29.286C11.3883 30.3702 13.6508 31.1984 16.4093 31.1324C19.1679 31.0664 21.3944 30.1322 21.3734 29.043L23.4018 12.0114C23.4195 11.9548 23.428 11.8957 23.4268 11.8364C23.3998 10.6792 20.0411 9.82097 15.9212 9.91799C11.8014 10.015 8.4757 11.0422 8.50371 12.2005Z" fill="#C50E40"/>
<path d="M8.50377 12.2C8.50558 12.2578 8.51569 12.3151 8.53378 12.3701L8.70482 13.3993C9.87406 14.1424 12.7116 14.6275 16.0193 14.5485C19.327 14.4695 22.1436 13.8534 23.2728 13.0502L23.3959 12.015C23.4136 11.9584 23.422 11.8993 23.4209 11.84C23.3939 10.6827 20.0352 9.82453 15.9153 9.92155C11.7955 10.0186 8.47577 11.0418 8.50377 12.2Z" fill="#97002D"/>
<path d="M8.58773 10.6289C8.40488 11.1471 8.25094 11.675 8.12663 12.2103C8.15464 13.3685 11.6834 14.2227 16.0093 14.1197C20.3352 14.0166 23.8199 12.9944 23.7929 11.8372C23.6427 11.3088 23.4641 10.7889 23.2578 10.2799C23.1578 9.14162 19.8801 8.30245 15.8742 8.39747C11.8684 8.49249 8.63274 9.48769 8.58773 10.6289Z" fill="#F2F0DE"/>
<path d="M8.44571 11.0473C8.30768 11.4914 8.12864 12.1306 8.12664 12.2106C8.15465 13.3688 11.6834 14.223 16.0093 14.12C20.3352 14.0169 23.8199 12.9947 23.7929 11.8375C23.7899 11.7605 23.5778 11.1283 23.4188 10.6913C22.4546 11.5714 19.491 12.2646 15.9643 12.3446C12.4375 12.4246 9.45092 11.8805 8.44571 11.0473Z" fill="#E7E5D5"/>
<g style="mix-blend-mode:multiply">
<path d="M8.58778 10.6293C8.40493 11.1475 8.251 11.6754 8.12668 12.2106C8.14369 12.9078 9.43796 13.4999 11.4004 13.8299C11.0453 11.5985 12.2976 10.9484 12.2976 10.9484L11.6744 8.87694C9.82604 9.29502 8.61479 9.93415 8.58778 10.6293Z" fill="#F5F5F3"/>
</g>
<path d="M11.0263 8.94543C10.9068 9.28822 10.8056 9.63712 10.7232 9.99064C10.7422 10.7578 13.0787 11.3239 15.9443 11.2549C18.8099 11.1859 21.1164 10.5098 21.0984 9.74359C20.9993 9.39332 20.8811 9.04873 20.7443 8.71138C20.6783 7.95922 18.5068 7.40211 15.8543 7.46612C13.2017 7.53013 11.0563 8.18927 11.0263 8.94543Z" fill="#F2F0DE"/>
<path d="M10.9333 9.22207C10.8505 9.47445 10.7804 9.73083 10.7232 9.99023C10.7422 10.7574 13.0787 11.3235 15.9443 11.2545C18.8099 11.1855 21.1164 10.5093 21.0984 9.74317C21.0974 9.69216 20.9553 9.27408 20.8543 8.98702C20.2152 9.57014 18.2518 10.0292 15.9193 10.0852C13.5868 10.1413 11.5984 9.77318 10.9333 9.22207Z" fill="#E7E5D5"/>
<path d="M10.3452 23.2177C11.2063 23.8789 12.7837 25.2141 15.4862 25.2281C18.3878 25.2431 20.1192 23.8118 22.0436 23.3838L22.6107 18.6158C20.4362 18.6678 18.7099 20.7002 15.3762 20.5472C10.9083 20.3441 9.43597 17.7716 9.43497 17.7706L10.3452 23.2177Z" fill="#FFFCEA"/>
<g style="mix-blend-mode:multiply">
<path d="M13.7349 30.8885L11.3964 13.823C10.1481 13.6149 9.17592 13.3029 8.62381 12.9188L11.3624 29.2842C11.3784 29.9823 12.3246 30.5744 13.7349 30.8885Z" fill="#DBDCDB"/>
</g>
<path d="M11.4614 8.72769C11.4744 9.21479 13.4698 9.55786 15.9183 9.49385C18.3668 9.42983 20.3412 8.98374 20.3252 8.49964C20.3092 8.01554 18.3138 7.56645 15.8663 7.63146C13.4188 7.69648 11.4474 8.24359 11.4614 8.72769Z" fill="#FFFCEA"/>
<path d="M16.1974 7.62704C16.0884 7.62804 15.9783 7.62804 15.8663 7.63204C13.4238 7.69005 11.4474 8.24417 11.4614 8.72828C11.4754 9.21238 13.4698 9.55846 15.9183 9.49445L16.2494 9.48344C13.9549 9.50945 12.1385 9.17337 12.1235 8.71027C12.1085 8.24717 13.9049 7.72906 16.1974 7.62704Z" fill="#E6D9CE"/>
<path d="M16.7634 1.5169C16.7237 1.54459 16.69 1.58005 16.6644 1.62114C16.6388 1.66223 16.6218 1.70809 16.6144 1.75595L15.4902 8.79138C15.4855 8.82693 15.4858 8.86295 15.4912 8.8984C15.5944 8.97224 15.7195 9.00923 15.8463 9.00342C15.9703 9.00342 16.1283 8.99742 16.2093 8.8924L17.2756 2.24104L20.1281 2.78916C20.1749 2.79782 20.2229 2.7972 20.2694 2.78731C20.316 2.77743 20.3601 2.75848 20.3993 2.73154C20.4385 2.70461 20.472 2.67022 20.4979 2.63033C20.5238 2.59045 20.5416 2.54586 20.5502 2.4991C20.5589 2.45234 20.5583 2.40433 20.5484 2.35781C20.5385 2.31129 20.5196 2.26718 20.4926 2.22798C20.4657 2.18879 20.4313 2.15528 20.3914 2.12938C20.3515 2.10347 20.3069 2.08568 20.2602 2.07701L17.0475 1.46489C16.9991 1.45335 16.9489 1.45201 16.9 1.46097C16.8511 1.46992 16.8046 1.48897 16.7634 1.5169Z" fill="#EDECE4"/>
<g style="mix-blend-mode:overlay">
<path d="M22.3286 15.2938C22.2796 15.8569 22.2045 16.358 22.1455 16.9111C22.0785 17.5243 21.9515 18.1354 21.9085 18.7485C21.8962 19.0334 21.8668 19.3173 21.8205 19.5987C21.7754 19.8437 21.6434 20.2418 21.7454 20.4519C22.5676 19.7737 22.4966 18.0484 22.5016 17.0071C22.5066 15.9659 23.0777 14.5406 22.6726 13.5354C22.6338 13.5423 22.5971 13.5582 22.5655 13.5819C22.5339 13.6055 22.5082 13.6362 22.4906 13.6714L22.5636 13.5324C22.2165 13.7815 22.3676 14.8487 22.3286 15.2938Z" fill="white"/>
</g>
</svg>
