<svg width="115" height="58" viewBox="0 0 115 58" fill="none" xmlns="http://www.w3.org/2000/svg">
<g clip-path="url(#clip0)" filter="url(#filter0_d)">
<path d="M30.22 39.2511C30.22 45.8711 26.02 49.1811 17.62 49.1811C12.86 49.1811 9.44001 47.8711 7.36001 45.2511C5.55334 43.0378 4.47334 39.3844 4.12001 34.2911C3.98678 33.0491 3.95334 31.7984 4.02001 30.5511L6.48001 29.7711V33.3911C6.48001 42.3378 10.2267 46.8111 17.72 46.8111C21.06 46.8111 23.41 46.4411 24.72 45.6811C26.72 44.5811 27.72 42.4544 27.72 39.3011V21.6411L30.13 20.8711L30.22 39.2511ZM18.65 23.7611C18.6832 23.981 18.6647 24.2057 18.5958 24.4172C18.527 24.6287 18.4097 24.8212 18.2534 24.9795C18.0971 25.1377 17.906 25.2574 17.6954 25.3288C17.4847 25.4003 17.2603 25.4216 17.04 25.3911C16.8171 25.4238 16.5896 25.4044 16.3754 25.3346C16.1612 25.2647 15.966 25.1462 15.8053 24.9883C15.6445 24.8304 15.5224 24.6375 15.4487 24.4246C15.3749 24.2117 15.3514 23.9846 15.38 23.7611C15.3484 23.5357 15.3695 23.3061 15.4418 23.0902C15.514 22.8744 15.6354 22.6783 15.7963 22.5174C15.9572 22.3565 16.1533 22.2351 16.3692 22.1628C16.585 22.0906 16.8146 22.0695 17.04 22.1011C18.12 22.1011 18.65 22.6511 18.65 23.7611Z" fill="white"/>
<path d="M43.75 1.86C42.31 3.3 40.95 4.02 39.67 4.02C38.5731 3.94759 37.5113 3.60398 36.58 3.02C35.7681 2.42707 34.8179 2.05183 33.82 1.93C32.7563 2.07527 31.7858 2.61407 31.1 3.44L29.74 2.16C31.2467 0.719999 32.6067 0 33.82 0C34.9193 0.0593858 35.9843 0.404027 36.91 1C37.7407 1.54137 38.6853 1.88359 39.67 2C40.7444 1.86431 41.7379 1.35868 42.48 0.57L43.75 1.86ZM37.75 39.25H35.3V6.76L37.71 6.03L37.75 39.25Z" fill="white"/>
<path d="M59.74 39.2505H42.14L43.57 37.0805H57.27V26.5205C57.27 21.9605 55.16 19.6805 50.94 19.6805C47.9 19.6805 45.7367 21.2905 44.45 24.5105V20.5105C45.2326 19.55 46.2239 18.7807 47.3485 18.2608C48.4731 17.741 49.7014 17.4844 50.94 17.5105C52.1035 17.4536 53.2666 17.6285 54.3619 18.0251C55.4572 18.4216 56.4627 19.0319 57.32 19.8205C58.1407 20.6519 58.7796 21.6448 59.1961 22.7362C59.6127 23.8276 59.7979 24.9937 59.74 26.1605V39.2505Z" fill="white"/>
<path d="M87.9 39.2492H80.48C80.3641 41.7643 79.3778 44.161 77.69 46.0292C76.8371 46.9384 75.7976 47.6522 74.6428 48.1217C73.4881 48.5912 72.2453 48.8053 71 48.7492C69.4483 48.745 67.9125 48.4358 66.48 47.8392L65.48 45.5592C67.1841 46.3546 69.0502 46.7416 70.93 46.6892C71.8901 46.7392 72.8486 46.5656 73.7301 46.1821C74.6116 45.7986 75.3921 45.2157 76.01 44.4792C77.2098 42.9894 77.9096 41.1594 78.01 39.2492H72.71C71.4079 39.2773 70.1169 39.003 68.9387 38.4477C67.7605 37.8925 66.7272 37.0714 65.92 36.0492C64.3612 33.9181 63.5811 31.3165 63.71 28.6792C63.5695 25.8733 64.2656 23.0889 65.71 20.6792C66.4452 19.5751 67.4575 18.6836 68.6457 18.0939C69.8339 17.5042 71.1561 17.2371 72.48 17.3192C77.9734 17.3192 80.72 21.1059 80.72 28.6792C80.72 31.8659 80.67 34.6659 80.57 37.0792H87.89L87.9 39.2492ZM78.48 28.6792C78.5334 22.4659 76.5334 19.3592 72.48 19.3592C68.1534 19.3592 65.99 22.4659 65.99 28.6792C65.8995 30.7624 66.4624 32.8218 67.6 34.5692C68.1635 35.3851 68.9257 36.0437 69.8146 36.4829C70.7035 36.9221 71.6897 37.1273 72.68 37.0792H78.36V32.3092C78.48 30.6292 78.48 29.4192 78.48 28.6792Z" fill="white"/>
<path d="M110.93 31.6795C110.93 34.7595 110.293 36.7862 109.02 37.7595C107.747 38.7329 105.617 39.2295 102.63 39.2495H86.63V37.0795H101.97C104.45 37.0795 106.15 36.7629 107.07 36.1295C108.07 35.4695 108.5 34.2495 108.5 32.4595V30.9295H100.27C97.39 30.9295 95.4133 30.2929 94.34 29.0195C93.45 27.9295 93 26.0195 93 23.3095C93 18.2295 96.0767 15.6895 102.23 15.6895C103.442 15.6267 104.654 15.8076 105.794 16.2216C106.935 16.6355 107.981 17.2741 108.87 18.0995C109.548 18.804 110.079 19.6362 110.433 20.5478C110.787 21.4594 110.956 22.4321 110.93 23.4095V31.6795ZM108.48 28.9295V23.4295C108.48 19.6895 106.4 17.8195 102.22 17.8195C97.68 17.8195 95.41 19.6729 95.41 23.3795C95.41 25.6595 95.78 27.1495 96.54 27.8595C97.3 28.5695 98.92 28.9295 101.35 28.9295H108.48ZM103.48 7.54953C103.516 7.77792 103.498 8.01154 103.428 8.23193C103.359 8.45231 103.238 8.65341 103.077 8.8193C102.916 8.9852 102.719 9.11134 102.501 9.18774C102.282 9.26415 102.049 9.28873 101.82 9.25953C100.73 9.25953 100.19 8.68953 100.19 7.54953C100.19 6.40953 100.73 6.01953 101.82 6.01953C102.91 6.01953 103.48 6.53953 103.48 7.55953V7.54953Z" fill="white"/>
</g>
<defs>
<filter id="filter0_d" x="0" y="0" width="114.93" height="57.18" filterUnits="userSpaceOnUse" color-interpolation-filters="sRGB">
<feFlood flood-opacity="0" result="BackgroundImageFix"/>
<feColorMatrix in="SourceAlpha" type="matrix" values="0 0 0 0 0 0 0 0 0 0 0 0 0 0 0 0 0 0 127 0"/>
<feOffset dy="4"/>
<feGaussianBlur stdDeviation="2"/>
<feColorMatrix type="matrix" values="0 0 0 0 0 0 0 0 0 0 0 0 0 0 0 0 0 0 0.25 0"/>
<feBlend mode="normal" in2="BackgroundImageFix" result="effect1_dropShadow"/>
<feBlend mode="normal" in="SourceGraphic" in2="effect1_dropShadow" result="shape"/>
</filter>
<clipPath id="clip0">
<rect width="106.93" height="49.18" fill="white" transform="translate(4)"/>
</clipPath>
</defs>
</svg>
