<svg width="28" height="27" viewBox="0 0 28 27" fill="none" xmlns="http://www.w3.org/2000/svg">
<path d="M27.4205 13.2788L14.6986 0.29569C14.607 0.201957 14.4982 0.127593 14.3784 0.0768548C14.2586 0.0261165 14.1302 0 14.0006 0C13.8709 0 13.7425 0.0261165 13.6227 0.0768548C13.503 0.127593 13.3942 0.201957 13.3026 0.29569L0.580655 13.2788C0.210024 13.6573 0 14.1715 0 14.7077C0 15.8212 0.886425 16.7264 1.9767 16.7264H3.31715V25.9906C3.31715 26.5489 3.75881 27 4.30549 27H12.0239V19.9344H15.4831V27H23.6957C24.2423 27 24.684 26.5489 24.684 25.9906V16.7264H26.0245C26.5495 16.7264 27.053 16.5151 27.4236 16.1334C28.1926 15.3449 28.1926 14.0674 27.4205 13.2788Z" fill="#5EBA93"/>
</svg>
