<svg width="98" height="98" viewBox="0 0 98 98" fill="none" xmlns="http://www.w3.org/2000/svg">
<g clip-path="url(#clip0)" filter="url(#filter0_d)">
<path d="M70 4H27.48C17.8261 4 10 11.8261 10 21.48V64C10 73.6539 17.8261 81.48 27.48 81.48H70C79.6539 81.48 87.48 73.6539 87.48 64V21.48C87.48 11.8261 79.6539 4 70 4Z" fill="url(#paint0_linear)"/>
<path d="M74.93 56.0898C74.6981 57.1069 74.4043 58.1087 74.05 59.0898H65.58C66.1448 58.1328 66.6265 57.1291 67.02 56.0898H74.93Z" fill="white"/>
<path d="M75.59 51.0898C75.529 52.7731 75.3114 54.447 74.94 56.0898H67C67.6028 54.4819 67.9863 52.8001 68.14 51.0898H75.59Z" fill="white"/>
<path d="M75.61 50.0687C75.61 50.4087 75.61 50.7487 75.61 51.0687H68.17C68.23 50.4554 68.26 49.8354 68.26 49.2087C68.2518 44.9791 66.8721 40.8663 64.328 37.4873C61.7839 34.1084 58.2126 31.6457 54.15 30.4687C51.1808 29.2078 47.9454 28.7024 44.733 28.9977C41.5207 29.293 38.4317 30.3799 35.7421 32.161C33.0526 33.9422 30.8464 36.3621 29.3208 39.2044C27.7952 42.0468 26.9979 45.2229 27 48.4487C26.9992 49.3318 27.0593 50.2139 27.18 51.0887H21.89C21.89 50.7487 21.89 50.4087 21.89 50.0887C21.89 42.9624 24.721 36.1279 29.7601 31.0888C34.7992 26.0497 41.6336 23.2188 48.76 23.2188C55.8864 23.2188 62.7209 26.0497 67.76 31.0888C72.7991 36.1279 75.63 42.9624 75.63 50.0887L75.61 50.0687Z" fill="white"/>
<path d="M34.87 64.1094H25.87C24.9039 62.5291 24.103 60.8536 23.48 59.1094H30.21C30.9565 60.2388 31.8141 61.2907 32.77 62.2494C33.4257 62.9176 34.1274 63.5392 34.87 64.1094Z" fill="white"/>
<path d="M65.58 59.1094C64.7501 60.5409 63.7421 61.8614 62.58 63.0394C62.21 63.4094 61.82 63.7694 61.42 64.1094H58.17C58.9298 63.541 59.6483 62.9195 60.32 62.2494C61.2759 61.2907 62.1336 60.2388 62.88 59.1094H65.58Z" fill="white"/>
<path d="M74.05 59.1094C73.4615 60.7706 72.7077 62.3687 71.8 63.8794C71.7558 63.9484 71.6952 64.0055 71.6237 64.0456C71.5522 64.0857 71.472 64.1076 71.39 64.1094H61.39C61.79 63.7694 62.18 63.4094 62.55 63.0394C63.7121 61.8614 64.7201 60.5409 65.55 59.1094H74.05Z" fill="white"/>
<path d="M28.55 56.0698H22.93C22.8209 56.0723 22.7143 56.0368 22.6286 55.9693C22.5428 55.9017 22.4832 55.8065 22.46 55.6998C22.1374 54.1825 21.9467 52.6401 21.89 51.0898H27.18C27.407 52.8046 27.868 54.4802 28.55 56.0698Z" fill="white"/>
<path d="M36.1 64.1094H34.87C34.1103 63.541 33.3918 62.9195 32.72 62.2494C31.7641 61.2907 30.9065 60.2388 30.16 59.1094H31.9C32.73 60.5409 33.738 61.8614 34.9 63.0394C35.31 63.4094 35.7 63.7694 36.1 64.1094Z" fill="white"/>
<path d="M62.8799 59.1094C62.1334 60.2388 61.2758 61.2907 60.3199 62.2494C59.6482 62.9195 58.9297 63.541 58.1699 64.1094H36.0999C35.6999 63.7694 35.3099 63.4094 34.9399 63.0394C33.7779 61.8614 32.7699 60.5409 31.9399 59.1094H62.8799Z" fill="white"/>
<path d="M54.14 30.4687C51.2334 29.6341 48.1727 29.4859 45.199 30.0358C42.2253 30.5856 39.42 31.8185 37.004 33.6373C34.588 35.4561 32.6273 37.811 31.2766 40.5167C29.9258 43.2223 29.2218 46.2047 29.22 49.2287C29.22 49.8621 29.25 50.4821 29.31 51.0887H27.18C27.0593 50.2139 26.9992 49.3318 27 48.4487C27.0002 45.2243 27.7984 42.05 29.3234 39.2089C30.8484 36.3678 33.0528 33.9483 35.74 32.1661C38.4271 30.3839 41.5136 29.2944 44.7241 28.9947C47.9347 28.6951 51.1694 29.1946 54.14 30.4487V30.4687Z" fill="white"/>
<path d="M30.45 56.0703H28.55C27.8662 54.4744 27.4052 52.7919 27.18 51.0703H29.31C29.4637 52.7806 29.8472 54.4624 30.45 56.0703Z" fill="white"/>
<path d="M65.7801 51.6503C65.5446 53.065 65.1556 54.4499 64.6201 55.7803C64.5841 55.8671 64.523 55.9411 64.4445 55.9928C64.3661 56.0445 64.274 56.0715 64.1801 56.0703H30.4501C29.8473 54.4624 29.4638 52.7806 29.3101 51.0703H65.3101C65.3816 51.0702 65.4523 51.0862 65.5169 51.1169C65.5815 51.1477 65.6385 51.1925 65.6835 51.2481C65.7286 51.3037 65.7606 51.3687 65.7773 51.4383C65.794 51.5079 65.795 51.5803 65.7801 51.6503Z" fill="white"/>
<path d="M48.63 20.1797C50.1488 20.1797 51.38 18.9485 51.38 17.4297C51.38 15.9109 50.1488 14.6797 48.63 14.6797C47.1112 14.6797 45.88 15.9109 45.88 17.4297C45.88 18.9485 47.1112 20.1797 48.63 20.1797Z" fill="white"/>
<path d="M31.1801 49.7609C31.1801 41.4209 37.0201 33.0309 45.3701 31.4609C45.3808 31.4656 45.3899 31.4733 45.3963 31.4831C45.4027 31.4928 45.4061 31.5043 45.4061 31.5159C45.4061 31.5276 45.4027 31.539 45.3963 31.5488C45.3899 31.5586 45.3808 31.5663 45.3701 31.5709C38.4901 34.5709 34.1201 42.1109 34.1001 49.7409C34.0909 49.7462 34.0806 49.749 34.0701 49.749C34.0595 49.749 34.0492 49.7462 34.0401 49.7409H31.2201C31.2093 49.7518 31.1952 49.7588 31.1801 49.7609Z" fill="white"/>
</g>
<defs>
<filter id="filter0_d" x="0" y="0" width="97.48" height="97.48" filterUnits="userSpaceOnUse" color-interpolation-filters="sRGB">
<feFlood flood-opacity="0" result="BackgroundImageFix"/>
<feColorMatrix in="SourceAlpha" type="matrix" values="0 0 0 0 0 0 0 0 0 0 0 0 0 0 0 0 0 0 127 0"/>
<feOffset dy="6"/>
<feGaussianBlur stdDeviation="5"/>
<feColorMatrix type="matrix" values="0 0 0 0 0 0 0 0 0 0 0 0 0 0 0 0 0 0 0.4 0"/>
<feBlend mode="normal" in2="BackgroundImageFix" result="effect1_dropShadow"/>
<feBlend mode="normal" in="SourceGraphic" in2="effect1_dropShadow" result="shape"/>
</filter>
<linearGradient id="paint0_linear" x1="48.74" y1="93.01" x2="48.74" y2="-20.13" gradientUnits="userSpaceOnUse">
<stop stop-color="#5EBA93"/>
<stop offset="0.12" stop-color="#539C81"/>
<stop offset="0.31" stop-color="#437368"/>
<stop offset="0.5" stop-color="#365254"/>
<stop offset="0.68" stop-color="#2D3B46"/>
<stop offset="0.85" stop-color="#282D3D"/>
<stop offset="1" stop-color="#26283A"/>
</linearGradient>
<clipPath id="clip0">
<rect width="77.48" height="77.48" fill="white" transform="translate(10 4)"/>
</clipPath>
</defs>
</svg>
