<svg xmlns="http://www.w3.org/2000/svg" viewBox="0 0 177.41 163.27"><defs><style>.cls-1{fill:#5eba93;stroke:#5eba93;stroke-miterlimit:10;}</style></defs><g id="Layer_2" data-name="Layer 2"><g id="Layer_1-2" data-name="Layer 1"><path class="cls-1" d="M174.69,136.46a87,87,0,0,1-2.88,9.89H144a64.59,64.59,0,0,0,4.72-9.89Z"/><path class="cls-1" d="M176.85,120a88,88,0,0,1-2.14,16.36h-26A63.1,63.1,0,0,0,152.5,120Z"/><path class="cls-1" d="M176.91,116.7c0,1.11,0,2.23-.06,3.33H152.5c.2-2,.29-4,.29-6.09a64.14,64.14,0,0,0-46.33-61.6h0A64.1,64.1,0,0,0,17.92,120H.56c0-1.1-.06-2.22-.06-3.33a88.21,88.21,0,1,1,176.41,0Z"/><path class="cls-1" d="M43.16,162.77H13.48a88,88,0,0,1-7.87-16.42H27.72a64.76,64.76,0,0,0,15.44,16.42Z"/><path class="cls-1" d="M144,146.35a64.21,64.21,0,0,1-10,12.9c-1.22,1.22-2.49,2.4-3.82,3.52H119.67a64.08,64.08,0,0,0,7.06-6.1,65,65,0,0,0,8.39-10.32Z"/><path class="cls-1" d="M171.81,146.35A87.71,87.71,0,0,1,164.4,162a1.56,1.56,0,0,1-1.35.76H130.2c1.33-1.12,2.6-2.3,3.82-3.52a64.21,64.21,0,0,0,10-12.9Z"/><path class="cls-1" d="M22.41,136.39H4a1.57,1.57,0,0,1-1.54-1.23A88.65,88.65,0,0,1,.56,120H17.92A63.57,63.57,0,0,0,22.41,136.39Z"/><path class="cls-1" d="M47.21,162.77H43.16a64.76,64.76,0,0,1-15.44-16.42h5.69a64.21,64.21,0,0,0,10,12.9C44.61,160.47,45.89,161.65,47.21,162.77Z"/><path class="cls-1" d="M135.12,146.35a65,65,0,0,1-8.39,10.32,64.08,64.08,0,0,1-7.06,6.1H47.21c-1.32-1.12-2.6-2.3-3.82-3.52a64.21,64.21,0,0,1-10-12.9Z"/><path class="cls-1" d="M106.44,52.34a64.1,64.1,0,0,0-81.82,61.6c0,2,.1,4.09.29,6.09h-7a64.12,64.12,0,0,1,88.52-67.69Z"/><path class="cls-1" d="M28.67,136.39H22.41A63.57,63.57,0,0,1,17.92,120h7A63.51,63.51,0,0,0,28.67,136.39Z"/><path class="cls-1" d="M144.64,121.86a63.08,63.08,0,0,1-3.81,13.56,1.56,1.56,0,0,1-1.45,1H28.67A63.51,63.51,0,0,1,24.91,120H143.09A1.57,1.57,0,0,1,144.64,121.86Z"/><circle class="cls-1" cx="88.34" cy="9.52" r="9.02"/><path class="cls-1" d="M31.07,115.67c.09-27.38,19.16-54.92,46.56-60.09a.2.2,0,0,1,.13.37c-22.6,9.88-36.95,34.6-37,59.64a.2.2,0,0,1-.2.19l-9.26.08A.2.2,0,0,1,31.07,115.67Z"/></g></g></svg>