<svg width="78" height="78" viewBox="0 0 78 78" fill="none" xmlns="http://www.w3.org/2000/svg">
<g filter="url(#filter0_d)">
<path d="M64.93 52.0898C64.6981 53.1069 64.4043 54.1087 64.05 55.0898H55.58C56.1448 54.1328 56.6265 53.1291 57.02 52.0898H64.93Z" fill="#5EBA93"/>
<path d="M65.59 47.0898C65.529 48.7731 65.3114 50.447 64.94 52.0898H57C57.6028 50.4819 57.9863 48.8001 58.14 47.0898H65.59Z" fill="#5EBA93"/>
<path d="M65.61 46.0687C65.61 46.4087 65.61 46.7487 65.61 47.0687H58.17C58.23 46.4554 58.26 45.8354 58.26 45.2087C58.2518 40.9791 56.8721 36.8663 54.328 33.4873C51.7839 30.1084 48.2126 27.6457 44.15 26.4687C41.1808 25.2078 37.9454 24.7024 34.733 24.9977C31.5207 25.293 28.4317 26.3799 25.7421 28.161C23.0526 29.9422 20.8464 32.3621 19.3208 35.2044C17.7952 38.0468 16.9979 41.2229 17 44.4487C16.9992 45.3318 17.0593 46.2139 17.18 47.0887H11.89C11.89 46.7487 11.89 46.4087 11.89 46.0887C11.89 38.9624 14.721 32.1279 19.7601 27.0888C24.7992 22.0497 31.6336 19.2188 38.76 19.2188C45.8864 19.2188 52.7209 22.0497 57.76 27.0888C62.7991 32.1279 65.63 38.9624 65.63 46.0887L65.61 46.0687Z" fill="#5EBA93"/>
<path d="M24.87 60.1094H15.87C14.9039 58.5291 14.103 56.8536 13.48 55.1094H20.21C20.9565 56.2388 21.8141 57.2907 22.77 58.2494C23.4257 58.9176 24.1274 59.5392 24.87 60.1094Z" fill="#5EBA93"/>
<path d="M55.5801 55.1094C54.7501 56.5409 53.7421 57.8614 52.5801 59.0394C52.2101 59.4094 51.82 59.7694 51.42 60.1094H48.17C48.9298 59.541 49.6483 58.9195 50.32 58.2494C51.276 57.2907 52.1336 56.2388 52.8801 55.1094H55.5801Z" fill="#5EBA93"/>
<path d="M64.05 55.1094C63.4615 56.7706 62.7077 58.3687 61.8 59.8794C61.7558 59.9484 61.6952 60.0055 61.6237 60.0456C61.5522 60.0857 61.472 60.1076 61.39 60.1094H51.39C51.79 59.7694 52.18 59.4094 52.55 59.0394C53.7121 57.8614 54.7201 56.5409 55.55 55.1094H64.05Z" fill="#5EBA93"/>
<path d="M18.55 52.0698H12.93C12.8209 52.0723 12.7143 52.0368 12.6286 51.9693C12.5428 51.9017 12.4832 51.8065 12.46 51.6998C12.1374 50.1825 11.9467 48.6401 11.89 47.0898H17.18C17.407 48.8046 17.868 50.4802 18.55 52.0698Z" fill="#5EBA93"/>
<path d="M26.1 60.1094H24.87C24.1102 59.541 23.3917 58.9195 22.72 58.2494C21.7641 57.2907 20.9065 56.2388 20.16 55.1094H21.9C22.7299 56.5409 23.7379 57.8614 24.9 59.0394C25.31 59.4094 25.7 59.7694 26.1 60.1094Z" fill="#5EBA93"/>
<path d="M52.8801 55.1094C52.1336 56.2388 51.276 57.2907 50.32 58.2494C49.6483 58.9195 48.9298 59.541 48.17 60.1094H26.1C25.7 59.7694 25.31 59.4094 24.94 59.0394C23.778 57.8614 22.7699 56.5409 21.94 55.1094H52.8801Z" fill="#5EBA93"/>
<path d="M44.14 26.4687C41.2334 25.6341 38.1727 25.4859 35.199 26.0358C32.2253 26.5856 29.42 27.8185 27.004 29.6373C24.588 31.4561 22.6273 33.811 21.2766 36.5167C19.9258 39.2223 19.2218 42.2047 19.22 45.2287C19.22 45.8621 19.25 46.4821 19.31 47.0887L17.18 47.0887C17.0593 46.2139 16.9992 45.3318 17 44.4487C17.0003 41.2243 17.7984 38.05 19.3234 35.2089C20.8484 32.3678 23.0528 29.9483 25.74 28.1661C28.4271 26.3839 31.5136 25.2944 34.7241 24.9947C37.9347 24.6951 41.1694 25.1946 44.14 26.4487V26.4687Z" fill="#5EBA93"/>
<path d="M20.45 52.0703L18.55 52.0698C17.8662 50.4739 17.4052 48.7919 17.18 47.0703H19.31C19.4637 48.7806 19.8472 50.4624 20.45 52.0703Z" fill="#5EBA93"/>
<path d="M55.78 47.6503C55.5445 49.065 55.1555 50.4499 54.62 51.7803C54.584 51.8671 54.5229 51.9411 54.4445 51.9928C54.366 52.0445 54.2739 52.0715 54.18 52.0703H20.45C19.8472 50.4624 19.4637 48.7806 19.31 47.0703H55.31C55.3816 47.0702 55.4522 47.0862 55.5169 47.1169C55.5815 47.1477 55.6384 47.1925 55.6835 47.2481C55.7285 47.3037 55.7606 47.3687 55.7773 47.4383C55.794 47.5079 55.7949 47.5803 55.78 47.6503Z" fill="#5EBA93"/>
<path d="M38.63 16.1797C40.1488 16.1797 41.38 14.9485 41.38 13.4297C41.38 11.9109 40.1488 10.6797 38.63 10.6797C37.1112 10.6797 35.88 11.9109 35.88 13.4297C35.88 14.9485 37.1112 16.1797 38.63 16.1797Z" fill="#5EBA93"/>
<path d="M21.18 45.7609C21.18 37.4209 27.02 29.0309 35.37 27.4609C35.3807 27.4656 35.3898 27.4733 35.3962 27.4831C35.4026 27.4928 35.406 27.5043 35.406 27.5159C35.406 27.5276 35.4026 27.539 35.3962 27.5488C35.3898 27.5586 35.3807 27.5663 35.37 27.5709C28.49 30.5709 24.12 38.1109 24.1 45.7409C24.0909 45.7462 24.0805 45.749 24.07 45.749C24.0595 45.749 24.0491 45.7462 24.04 45.7409H21.22C21.2092 45.7518 21.1952 45.7588 21.18 45.7609Z" fill="#5EBA93"/>
</g>
<defs>
<filter id="filter0_d" x="8.89001" y="7.67969" width="59.74" height="55.4297" filterUnits="userSpaceOnUse" color-interpolation-filters="sRGB">
<feFlood flood-opacity="0" result="BackgroundImageFix"/>
<feColorMatrix in="SourceAlpha" type="matrix" values="0 0 0 0 0 0 0 0 0 0 0 0 0 0 0 0 0 0 127 0"/>
<feOffset/>
<feGaussianBlur stdDeviation="1.5"/>
<feColorMatrix type="matrix" values="0 0 0 0 0 0 0 0 0 0 0 0 0 0 0 0 0 0 0.25 0"/>
<feBlend mode="normal" in2="BackgroundImageFix" result="effect1_dropShadow"/>
<feBlend mode="normal" in="SourceGraphic" in2="effect1_dropShadow" result="shape"/>
</filter>
</defs>
</svg>
