<svg width="27" height="27" viewBox="0 0 27 27" fill="none" xmlns="http://www.w3.org/2000/svg">
<path d="M8.5275 4.59L6.91875 2.98125C4.21875 5.04 2.44125 8.2125 2.28375 11.8125H4.53375C4.7025 8.83125 6.2325 6.22125 8.5275 4.59ZM22.4663 11.8125H24.7163C24.5475 8.2125 22.77 5.04 20.0813 2.98125L18.4838 4.59C20.7563 6.22125 22.2975 8.83125 22.4663 11.8125ZM20.25 12.375C20.25 8.92125 18.405 6.03 15.1875 5.265V4.5C15.1875 3.56625 14.4338 2.8125 13.5 2.8125C12.5663 2.8125 11.8125 3.56625 11.8125 4.5V5.265C8.58375 6.03 6.75 8.91 6.75 12.375V18L4.5 20.25V21.375H22.5V20.25L20.25 18V12.375ZM13.5 24.75C13.6575 24.75 13.8038 24.7387 13.95 24.705C14.6813 24.5475 15.2775 24.0525 15.57 23.3775C15.6825 23.1075 15.7388 22.815 15.7388 22.5H11.2388C11.25 23.7375 12.2513 24.75 13.5 24.75Z" fill="#26283A"/>
<circle cx="20" cy="20" r="3" fill="#AC0A0A"/>
</svg>
