<svg width="27" height="22" viewBox="0 0 27 22" fill="none" xmlns="http://www.w3.org/2000/svg">
<g style="mix-blend-mode:darken" opacity="0.45">
<path d="M24.3116 17.2095C24.3116 19.8554 19.341 22.001 13.2117 22.001C7.08231 22.001 2.11169 19.8554 2.11169 17.2095C2.11169 14.5635 7.08231 12.418 13.2117 12.418C19.341 12.418 24.3116 14.5635 24.3116 17.2095Z" fill="#D8BD82"/>
</g>
<path d="M27 4.80492C27 2.31654 20.9763 0.320312 13.5447 0.320312C7.56424 0.320312 2.49886 1.6198 0.747232 3.41972C0.673858 3.46039 0.595582 3.49107 0.514403 3.51096C0.495452 3.59114 0.479208 3.67409 0.462964 3.75427C0.230023 4.05377 0.0988794 4.42256 0.0893555 4.80492C0.0899497 5.03437 0.139856 5.26089 0.23555 5.46848C0.216599 5.74497 0.20577 6.03528 0.20577 6.32006C0.20577 13.5834 6.1781 19.4725 13.5366 19.4725C20.895 19.4725 26.8836 13.5834 26.8836 6.32006C26.8836 6.04358 26.8836 5.7505 26.8538 5.46848C26.9483 5.26046 26.9981 5.03422 27 4.80492Z" fill="#93AAA9"/>
<path d="M26.0768 4.28565C25.9264 4.32121 25.7695 4.31549 25.622 4.26906C22.6899 3.38983 19.8039 2.07929 16.7555 1.72539C16.3029 1.72458 15.8507 1.69411 15.4019 1.63415C15.1915 1.61185 14.9946 1.51791 14.8429 1.36745C14.6911 1.217 14.5933 1.01877 14.5653 0.804688C10.5991 1.10329 6.6356 3.06634 2.64231 2.07376L2.62066 2.09588C2.5314 2.19861 2.41781 2.27621 2.29076 2.32123C2.16372 2.36626 2.02747 2.3772 1.8951 2.35301C1.49712 2.59908 1.0829 2.84516 0.690344 3.0857C0.611084 3.13278 0.525274 3.16727 0.435857 3.188C0.227581 4.10935 0.120433 5.05152 0.116394 5.9971C0.116394 13.2687 6.08872 19.1495 13.458 19.1495C20.8273 19.1495 26.8023 13.2687 26.8023 5.9971C26.8019 5.46462 26.7684 4.9327 26.7022 4.40454C26.5956 4.43126 26.4848 4.43448 26.3769 4.41398C26.2691 4.39347 26.1668 4.34973 26.0768 4.28565Z" fill="#F2F9F9"/>
<path d="M26.9134 4.4846C26.9134 6.97298 20.8869 8.96921 13.458 8.96921C6.02918 8.96921 0 6.96192 0 4.4846C0 2.00729 6.02376 0 13.458 0C20.8923 0 26.9134 2.00729 26.9134 4.4846Z" fill="#C0CCCC"/>
<g style="mix-blend-mode:multiply" opacity="0.32">
<path d="M25.9144 4.24182C25.9144 6.31823 20.3617 8.00203 13.5149 8.00203C6.66811 8.00203 1.11542 6.31823 1.11542 4.24182C1.11542 2.16541 6.66811 0.484375 13.5149 0.484375C20.3617 0.484375 25.9144 2.16818 25.9144 4.24182Z" fill="#A5C6C4"/>
</g>
<path d="M24.3658 5.61251C24.3658 6.91199 19.4926 7.95435 13.4418 7.95435C7.39096 7.95435 2.51239 6.91199 2.51239 5.61251C2.51239 4.31302 7.4045 3.27344 13.4418 3.27344C19.4791 3.27344 24.3658 4.32132 24.3658 5.61251Z" fill="#EA9E06"/>
<path d="M2.35811 5.86398C2.33103 5.47414 2.86437 4.99305 3.19196 4.84375C3.10852 4.99667 3.03613 5.15561 2.97537 5.31931C2.92935 5.52391 3.00786 5.62344 3.06201 5.79486C3.14603 6.08835 3.30376 6.35428 3.51954 6.56626C3.31647 6.4864 3.12372 6.38148 2.94559 6.25383C2.74796 6.11282 2.51784 6.00223 2.33374 5.86398H2.35811Z" fill="#EA9E06"/>
<path d="M24.003 5C24.2738 5.2599 24.6257 5.52809 24.5445 5.96494C24.2675 6.15931 23.9661 6.31462 23.6484 6.42667C23.8305 6.25784 23.955 6.03397 24.0037 5.78775C24.0524 5.54153 24.0228 5.28585 23.9191 5.05806L24.003 5Z" fill="#EA9E06"/>
<path opacity="0.29" d="M24.5472 7.13729C24.2394 8.2153 23.7759 9.24037 23.1719 10.1786C22.3082 11.5611 21.4202 12.8854 20.2155 13.9637C18.5532 15.4512 16.9369 16.9747 14.8902 17.8649C14.2927 18.1456 13.6509 18.315 12.9951 18.3654C12.5457 18.3903 11.414 18.1746 11.1379 18.3654C11.8445 18.288 12.5646 18.7746 13.3037 18.7746C14.0428 18.7746 14.7657 18.8299 15.5075 18.7746C17.1585 18.6689 18.7536 18.1237 20.1343 17.1931C23.1448 15.1277 25.4731 12.4928 26.1716 8.72985C26.2853 8.11605 26.3963 7.4829 26.4829 6.86633C26.556 6.36036 26.7347 5.54473 26.5695 5.06641C26.2988 5.53367 26.131 6.05623 25.733 6.42119C25.446 6.69767 24.8179 7.18152 24.4551 7.22853L24.5472 7.13729Z" fill="#C0CCCC"/>
<path opacity="0.29" d="M7.93245 8.40946C7.90266 9.06197 8.33583 9.75318 8.62552 10.3062C9.0642 11.1232 9.55058 11.9127 10.0821 12.6701C10.8714 13.8018 11.7923 14.8314 12.8246 15.7363C13.6665 16.4746 14.633 17.0054 15.5671 17.5805C15.8859 17.7895 16.2419 17.9323 16.6148 18.0008C16.9315 18.0533 17.3295 18.0008 17.5786 18.1694C16.9857 18.5731 16.1464 18.562 15.4696 18.7722C15.0825 18.8911 14.763 18.7943 14.3677 18.8164C13.9725 18.8385 13.6557 18.9906 13.2658 18.9574C11.6415 18.8136 10.4881 19.5104 4.53748 15.2636C3.90938 14.8156 3.55743 13.9585 3.11614 13.3282C2.61208 12.6357 2.1596 11.9055 1.76249 11.1439C1.30956 10.2218 0.997316 9.2344 0.836587 8.21592C0.733709 7.58553 0.370929 6.28052 0.706636 5.68331C0.847416 5.44 0.676855 5.48147 0.977367 5.54506C1.19124 5.5893 1.49988 5.95426 1.68397 6.09804C2.22281 6.48585 2.80322 6.80959 3.41395 7.06297C4.3699 7.50944 5.36767 7.8559 6.39199 8.09703C6.81974 8.19104 7.59403 8.09703 7.92974 8.32099C7.91793 8.25588 7.88997 8.19495 7.84852 8.14403L7.93245 8.40946Z" fill="#C0CCCC"/>
<path opacity="0.29" d="M4.14219 7.74231C4.29922 8.22339 4.37231 8.80678 4.50768 9.32104C4.76942 10.1427 5.07213 10.9502 5.41463 11.7403C5.93172 13.1227 6.75204 14.1983 7.58047 15.3761C8.52803 16.7281 9.70842 17.9585 11.1785 18.6939C8.05155 18.0691 4.82173 16.2055 3.03761 13.4186C2.09005 11.9338 1.26161 10.4574 0.760762 8.72936C0.520398 7.9502 0.412351 7.13478 0.4413 6.3184C0.492739 5.16545 1.332 5.88432 1.93032 6.3184C2.72627 6.89902 3.70632 7.14786 4.48873 7.72295C4.47897 7.67881 4.46631 7.6354 4.45083 7.593L4.14219 7.74231Z" fill="#C0CCCC"/>
<path opacity="0.16" d="M17.7166 8.72768C17.736 9.92767 17.511 11.1187 17.056 12.2252C16.612 13.2455 15.7484 14.2546 15.0201 15.0924C14.3309 15.8925 13.4274 16.4692 12.4211 16.7513C11.9614 16.8572 11.4891 16.8954 11.0187 16.8647C10.5937 16.8647 10.239 16.9808 9.84106 17.0057C10.3067 17.7162 11.6089 18.3383 12.4157 18.4102C13.6015 18.5153 14.8794 18.6535 16.0516 18.3632C18.8537 17.6748 20.9843 16.3255 22.6521 13.8759C23.8243 12.1644 25.178 9.08435 24.5824 6.96094C23.7702 7.77381 22.4165 7.80422 21.3742 8.0337C20.0828 8.31019 18.9918 8.76916 17.6733 8.77192L17.7166 8.72768Z" fill="#C0CCCC"/>
<path opacity="0.56" d="M7.88913 8.77177C7.37745 8.69711 8.24379 10.1542 8.36291 10.309C9.00725 11.1772 9.64617 12.1228 10.5883 12.6813C12.3264 13.7153 14.8902 13.7706 16.7366 12.9937C18.5072 12.2555 19.9231 11.274 20.933 9.57358C21.6829 8.3128 20.6081 8.52016 19.7526 8.722C18.6628 8.95448 17.5581 9.10694 16.4469 9.1782C15.2801 9.2805 14.0835 9.51551 12.9031 9.45469C11.8177 9.44564 10.7334 9.38105 9.65429 9.26115C9.0641 9.16991 8.13549 8.86024 7.75918 8.81877L7.88913 8.77177Z" fill="white"/>
<path opacity="0.56" d="M25.6057 6.68329C25.0643 6.61694 25.0128 7.88048 24.9912 8.27309C24.9159 9.20057 24.6956 10.1098 24.3387 10.9661C24.0458 11.7453 23.704 12.5045 23.3153 13.2388C22.939 13.9106 22.403 14.4498 21.9969 15.0746C22.4219 14.8949 22.8524 14.3807 23.1719 14.0489C23.5993 13.6449 23.9874 13.1995 24.3306 12.719C24.8774 11.8777 25.3177 10.9692 25.6409 10.015C25.8833 9.28909 26.0458 8.53796 26.1255 7.77541C26.1445 7.54316 26.2338 5.746 25.6924 6.45934L25.6057 6.68329Z" fill="white"/>
<path d="M21.3878 6.45018C21.3878 7.30176 17.7681 7.99021 13.301 7.99021C8.83397 7.99021 5.21429 7.30176 5.21429 6.45018C5.21429 5.59861 8.83397 4.91016 13.301 4.91016C17.7681 4.91016 21.3878 5.59861 21.3878 6.45018Z" fill="#F7B239"/>
<g style="mix-blend-mode:multiply" opacity="0.32">
<path d="M16.7474 0.637633C17.6842 0.792465 18.7617 1.85417 19.5576 2.40161C20.2128 2.85229 20.7299 3.65133 21.4527 3.86699C22.5844 4.19601 24.3658 4.72133 24.5553 6.08441C25.0968 5.93787 25.6897 5.14712 25.8711 4.59138C25.9694 4.24814 25.9593 3.88196 25.8422 3.54492C25.7251 3.20788 25.5069 2.91713 25.2186 2.71404C24.16 1.9067 22.7577 1.66063 21.561 1.26249C20.7488 0.986006 19.9691 1.02748 19.1244 0.914119C18.2798 0.80076 17.4215 0.695695 16.6581 0.554688L16.7474 0.637633Z" fill="#7DA09F"/>
</g>
<g style="mix-blend-mode:multiply" opacity="0.32">
<path d="M23.0121 1.91155C23.9732 2.29863 24.7963 4.06262 24.0003 4.9529C24.4497 5.18515 24.5743 5.53076 24.6095 6.02843C25.0291 5.63859 25.4217 5.47546 25.6707 4.87272C25.7837 4.63425 25.8385 4.37141 25.8305 4.10661C25.8225 3.84182 25.7519 3.58293 25.6247 3.35205C25.1103 2.46453 23.8812 1.85902 23.0121 1.82031V1.91155Z" fill="#7DA09F"/>
</g>
<g style="mix-blend-mode:multiply" opacity="0.32">
<path d="M2.37973 5.9079C1.9601 4.91808 4.2938 4.48123 4.6268 4.04438C4.79736 3.81766 4.85151 3.40293 5.01395 3.13474C5.17639 2.86655 5.40651 2.58177 5.59873 2.30528C5.86946 1.91544 6.23494 1.29058 6.72497 1.17998C6.22682 1.10533 5.28468 1.39564 4.75946 1.57812C4.12595 1.79931 3.47619 2.07303 2.86434 2.30805C1.73269 2.73107 0.270741 4.07479 1.41052 5.27198C1.69151 5.52318 2.00264 5.73686 2.33642 5.9079H2.37973Z" fill="#7DA09F"/>
</g>
<g style="mix-blend-mode:multiply" opacity="0.32">
<path d="M3.43829 2.08931C2.68024 3.16761 2.16585 3.80906 2.85892 5.08366C2.56383 5.06983 2.40951 5.7334 2.5151 5.98224C1.87346 5.41268 0.839271 4.86247 1.28868 3.77035C1.64876 2.90495 2.66129 2.45151 3.39226 2.03125L3.43829 2.08931Z" fill="#7DA09F"/>
</g>
<path d="M5.95606 5.63827C5.95553 5.70049 5.93697 5.76116 5.90274 5.81263C5.8685 5.86409 5.82011 5.90406 5.76367 5.92749C5.70723 5.95093 5.64526 5.95678 5.58557 5.9443C5.52588 5.93183 5.47114 5.9016 5.42825 5.85741C5.38536 5.81322 5.35623 5.75705 5.34454 5.69599C5.33285 5.63492 5.33912 5.57169 5.36256 5.51426C5.38599 5.45682 5.42555 5.40776 5.47624 5.37325C5.52694 5.33873 5.5865 5.32031 5.64743 5.32031C5.72953 5.32104 5.80803 5.35486 5.86583 5.41441C5.92363 5.47396 5.95606 5.55442 5.95606 5.63827Z" fill="#FFCE80"/>
<path d="M6.74389 5.15896C6.74389 5.17264 6.73992 5.186 6.73248 5.19737C6.72504 5.20873 6.71447 5.21759 6.7021 5.22282C6.68974 5.22806 6.67613 5.22943 6.663 5.22676C6.64987 5.22409 6.63781 5.21751 6.62834 5.20784C6.61888 5.19817 6.61243 5.18586 6.60982 5.17245C6.60721 5.15904 6.60855 5.14514 6.61367 5.13251C6.6188 5.11988 6.62747 5.10909 6.6386 5.10149C6.64973 5.0939 6.66282 5.08984 6.6762 5.08984C6.69415 5.08984 6.71137 5.09713 6.72406 5.11009C6.73676 5.12305 6.74389 5.14063 6.74389 5.15896Z" fill="#FFCE80"/>
<path d="M9.51888 6.4093C9.51888 6.46398 9.503 6.51744 9.47325 6.56291C9.44351 6.60838 9.40122 6.64381 9.35175 6.66474C9.30228 6.68567 9.24785 6.69114 9.19533 6.68047C9.14281 6.66981 9.09457 6.64347 9.05671 6.6048C9.01885 6.56614 8.99307 6.51687 8.98262 6.46324C8.97217 6.40961 8.97753 6.35401 8.99803 6.30349C9.01852 6.25297 9.05322 6.20979 9.09774 6.17941C9.14226 6.14903 9.1946 6.13281 9.24815 6.13281C9.31995 6.13281 9.38881 6.16194 9.43959 6.21379C9.49036 6.26564 9.51888 6.33597 9.51888 6.4093Z" fill="#FFCE80"/>
<path d="M11.3707 6.02339C11.3707 6.0621 11.2624 6.09251 11.1271 6.09251C10.9917 6.09251 10.8861 6.0621 10.8861 6.02339C10.8861 5.98468 10.9944 5.95703 11.1271 5.95703C11.2597 5.95703 11.3707 5.98744 11.3707 6.02339Z" fill="#FFCE80"/>
<path d="M12.7244 6.0833C12.7244 6.10818 12.6161 6.1303 12.4834 6.1303C12.3507 6.1303 12.2397 6.10818 12.2397 6.0833C12.2397 6.05842 12.3507 6.03906 12.4834 6.03906C12.6161 6.03906 12.7244 6.06671 12.7244 6.0833Z" fill="#FFCE80"/>
<path d="M16.0868 6.22783C16.0868 6.25548 16.0164 6.27484 15.9325 6.27484C15.8486 6.27484 15.7782 6.25548 15.7782 6.22783C15.7782 6.20018 15.8459 6.18359 15.9325 6.18359C16.0192 6.18359 16.0868 6.20295 16.0868 6.22783Z" fill="#FFCE80"/>
<path d="M16.7041 5.59111C16.7041 5.616 16.6148 5.63812 16.5038 5.63812C16.3928 5.63812 16.3062 5.616 16.3062 5.59111C16.3062 5.56623 16.3955 5.54688 16.5038 5.54688C16.6121 5.54688 16.7041 5.56623 16.7041 5.59111Z" fill="#FFCE80"/>
<path d="M17.8926 6.13812C17.8926 6.18788 17.7654 6.22659 17.6056 6.22659C17.4459 6.22659 17.3268 6.18788 17.3268 6.13812C17.3268 6.08835 17.4567 6.04688 17.6138 6.04688C17.7708 6.04688 17.8926 6.08282 17.8926 6.13812Z" fill="#FFCE80"/>
<path d="M19.6117 6.047C19.6117 6.07189 19.5034 6.09124 19.3681 6.09124C19.2327 6.09124 19.1271 6.07189 19.1271 6.047C19.1271 6.02212 19.2354 6 19.3681 6C19.5007 6 19.6117 6.02212 19.6117 6.047Z" fill="#FFCE80"/>
<path d="M22.3434 5.54437C22.3434 5.59413 22.2053 5.63561 22.0348 5.63561C21.8642 5.63561 21.7261 5.59413 21.7261 5.54437C21.7261 5.4946 21.8642 5.45312 22.0348 5.45312C22.2053 5.45312 22.3434 5.4946 22.3434 5.54437Z" fill="#FFCE80"/>
<path d="M22.6521 6.20422C22.5214 6.18277 22.389 6.17536 22.2568 6.1821C22.1238 6.1755 21.9904 6.18292 21.8588 6.20422C21.9902 6.22715 22.1238 6.23457 22.2568 6.22633C22.389 6.23468 22.5216 6.22726 22.6521 6.20422Z" fill="#FFCE80"/>
<path d="M18.5532 4.74881C18.5532 4.78752 18.407 4.81793 18.2229 4.81793C18.0388 4.81793 17.8926 4.78752 17.8926 4.74881C17.8926 4.7101 18.0415 4.67969 18.2229 4.67969C18.4043 4.67969 18.5532 4.69904 18.5532 4.74881Z" fill="#FFCE80"/>
<path d="M9.51891 4.54563C9.51891 4.62029 9.32128 4.68111 9.07762 4.68111C8.83396 4.68111 8.63904 4.62029 8.63904 4.54563C8.63904 4.47098 8.83396 4.41016 9.07762 4.41016C9.32128 4.41016 9.51891 4.47098 9.51891 4.54563Z" fill="#FFCE80"/>
<path d="M11.5034 4.29695C11.5034 4.35778 11.3653 4.41031 11.1947 4.41031C11.0242 4.41031 10.8861 4.35778 10.8861 4.29695C10.8861 4.23613 11.0242 4.18359 11.1947 4.18359C11.3653 4.18359 11.5034 4.23336 11.5034 4.29695Z" fill="#FFCE80"/>
<path d="M3.74691 5.80743C3.74691 5.94568 3.59801 6.05904 3.41662 6.05904C3.23523 6.05904 3.08362 5.94568 3.08362 5.80743C3.08362 5.66919 3.23252 5.55859 3.41662 5.55859C3.60071 5.55859 3.74691 5.65813 3.74691 5.80743Z" fill="#FFCE80"/>
<path d="M11.46 6.55411C12.1125 5.46475 13.699 4.20121 15.0743 4.56894C15.808 4.76524 16.2249 5.21592 16.187 5.95137C16.1626 6.41034 16.2899 6.29974 16.4929 6.68406C16.5523 6.81733 16.576 6.96428 16.5617 7.10996C16.5475 7.25565 16.4957 7.39488 16.4117 7.51352C16.2249 7.13749 16.1816 6.72553 15.8323 6.42693C16.2899 5.09979 14.5301 4.56064 13.6259 5.10256C13.177 5.36174 12.772 5.69317 12.4265 6.08408C12.3101 6.21956 12.1179 6.72277 12.0258 6.78636C11.8553 6.90525 11.3842 6.74212 11.5223 6.50987L11.46 6.55411Z" fill="#FFCE80"/>
<path d="M11.6848 6.70022C11.935 6.17978 12.2937 5.72152 12.7356 5.35758C13.1776 4.99364 13.6921 4.73282 14.2432 4.59339C14.5141 4.52703 14.797 4.5315 15.0658 4.60641C15.3346 4.68132 15.5806 4.82424 15.7809 5.02195C16.1681 5.44774 15.8838 5.962 16.1708 6.38226C16.3819 6.68916 16.585 6.985 16.4415 7.36379C16.6933 7.15366 16.5985 6.84952 16.4036 6.58686C16.1464 6.24125 16.1139 6.20807 16.1329 5.79611C16.1518 5.05789 15.8269 4.84223 15.1555 4.56575C14.1376 4.14825 12.9599 4.97771 12.2858 5.64404C12.1098 5.82099 11.303 6.54539 11.5656 6.68363L11.6848 6.70022Z" fill="#F7DCB5"/>
<path d="M13.7802 5.54836C13.7525 5.48619 13.7375 5.41889 13.7363 5.3506C13.735 5.28232 13.7474 5.21448 13.7728 5.15128C13.7981 5.08809 13.8359 5.03086 13.8837 4.98312C13.9316 4.93539 13.9885 4.89816 14.0509 4.87373C14.1538 4.82949 14.3785 4.79632 14.3216 4.6166C14.3 4.55301 14.0184 4.38435 14.2864 4.35947C14.2648 4.27376 14.1321 4.24611 14.1321 4.17699C14.1321 4.10787 14.2648 4.09957 14.3135 4.06363C14.3623 4.02768 14.4705 3.90603 14.4164 3.81479C14.3623 3.72355 14.2567 3.78714 14.1754 3.79544C14.1511 3.67378 14.1754 3.58531 14.0293 3.56319C13.8831 3.54107 13.81 3.6489 13.7748 3.78161C13.7396 3.91433 13.7748 4.01939 13.7017 4.1134C13.6286 4.2074 13.4905 4.24058 13.4309 4.09404C13.3714 3.9475 13.4905 3.90603 13.5582 3.81756C13.6259 3.72908 13.6177 3.78714 13.634 3.70143C13.6502 3.61572 13.5717 3.61296 13.6096 3.54107C13.6475 3.46918 13.9345 3.45536 13.8045 3.31435C13.7287 3.2314 13.6881 3.35306 13.6313 3.342C13.523 3.32264 13.5907 3.30882 13.5311 3.23693C13.2089 2.84432 13.3362 3.51342 13.1548 3.51342C12.9734 3.51342 13.0817 3.30329 13.0952 3.23693C13.1088 3.17058 13.144 3.12357 13.0952 3.08487C13.0465 3.04616 12.9869 3.14569 12.9463 3.13463C12.8435 3.10422 12.8028 2.87474 12.6756 2.88303C12.5484 2.89133 12.6296 3.09316 12.635 3.1844C12.6445 3.23106 12.6388 3.27961 12.6187 3.32264C12.5619 3.40283 12.5375 3.342 12.4753 3.38071C12.3128 3.48024 12.3967 3.50513 12.5023 3.59084C12.528 3.60344 12.5554 3.61183 12.5835 3.61572C12.681 3.92538 12.1747 3.74567 12.1937 4.03598C12.1937 4.12722 12.2857 4.10787 12.3236 4.1604C12.3886 4.25717 12.3453 4.18805 12.3399 4.29864C12.3399 4.49771 12.3399 4.50877 12.5321 4.5143C12.669 4.50921 12.8045 4.54426 12.9225 4.6153C13.0405 4.68635 13.1362 4.79042 13.1981 4.91521C13.3226 5.10875 13.3714 5.42947 13.5311 5.58154C13.6448 5.68937 13.8858 5.68384 13.7612 5.47371L13.7802 5.54836Z" fill="#5F9303"/>
<path d="M11.1812 4.24621C11.1777 4.2823 11.1646 4.31671 11.1433 4.34575C11.0675 4.26557 11.0621 4.14115 10.9511 4.08585C10.8753 4.26004 10.8455 4.14944 10.7426 4.17156C10.6398 4.19368 10.6289 4.2628 10.7426 4.35681C10.6777 4.43146 10.5883 4.61394 10.7941 4.63329C10.8591 4.63329 10.8915 4.50887 10.9782 4.57523C10.9963 4.60037 11.0078 4.62984 11.0116 4.66082C11.0154 4.6918 11.0114 4.72326 10.9998 4.75218C10.8943 4.90701 10.7454 4.62223 10.6831 4.85448C10.6208 5.08673 10.8645 5.01761 10.9701 4.98443C10.9701 5.18074 11.2841 4.95125 11.1812 5.16415C11.1433 5.24433 10.8807 5.32174 11.035 5.45999C11.1894 5.59823 11.3058 5.33557 11.3058 5.60929C11.3058 5.73924 11.2002 5.86919 11.4086 5.91619C11.6171 5.96319 11.6388 5.78071 11.6794 5.6397C11.6872 5.56569 11.7175 5.49603 11.7661 5.4405C11.8146 5.38497 11.879 5.34634 11.9501 5.33004C12.2058 5.233 12.4886 5.24193 12.7379 5.35492C12.9147 5.44068 13.108 5.48507 13.3038 5.48487C13.1115 5.31992 12.9306 5.14162 12.7623 4.95125C12.6757 4.84619 12.386 4.53376 12.4158 4.37893C12.4374 4.27663 12.5836 4.30151 12.5728 4.18815C12.5728 4.14115 12.4753 4.1135 12.4672 4.09138C12.4483 4.02226 12.4889 4.00567 12.4834 3.9642C12.4834 3.88125 12.4834 3.78725 12.3427 3.78448C12.2019 3.78172 12.2263 3.92549 12.1342 4.0029C12.0151 3.96696 12.1153 3.63241 11.9474 3.70154C11.8851 3.72642 11.9664 3.86743 11.8689 3.85084C11.8147 3.85084 11.8039 3.69324 11.7741 3.65453C11.6279 3.47482 11.5521 3.602 11.5548 3.7513C11.5575 3.9006 11.5927 3.99461 11.4655 4.08032C11.3734 4.02502 11.3897 3.84807 11.2679 3.9642C11.146 4.08032 11.2489 4.17986 11.2083 4.28492L11.1812 4.24621Z" fill="#8CC63F"/>
<path d="M10.7182 4.23726C10.8049 4.21237 10.8996 4.35614 10.989 4.41421C11.0973 4.47988 11.2204 4.51605 11.3463 4.51927C11.6027 4.53741 11.8539 4.60201 12.0881 4.71005C12.2966 4.81235 12.4888 4.95059 12.6892 5.07501C12.8354 5.16348 13.1115 5.42062 13.2604 5.42338C13.0484 5.24758 12.8527 5.0523 12.6756 4.84C12.6134 4.76258 12.4645 4.59669 12.4536 4.49439C12.4374 4.34232 12.5863 4.4225 12.5863 4.27873C12.5863 4.21514 12.4942 4.18472 12.4888 4.14602C12.4834 4.10731 12.5294 4.04372 12.524 3.99671C12.524 3.88612 12.3914 3.74235 12.2668 3.76999C12.1423 3.79764 12.191 4.04648 12.0881 3.97183C11.9853 3.89718 12.1342 3.79211 12.0638 3.69534C11.9392 3.53222 11.9203 3.76999 11.8607 3.77829C11.7308 3.79764 11.7714 3.57369 11.6577 3.54604C11.544 3.51839 11.525 3.68428 11.5413 3.76723C11.5683 3.90824 11.6171 3.94971 11.4546 4.02713C11.4546 3.92206 11.3653 3.85294 11.276 3.95248C11.1866 4.05201 11.2895 4.11007 11.2435 4.20408C11.165 4.36167 11.1243 4.23173 11.0594 4.18749C10.9944 4.14325 10.8644 4.03542 10.9132 4.22343C10.859 4.17643 10.8265 4.09901 10.7426 4.1239C10.6587 4.14878 10.6235 4.27596 10.7128 4.24279L10.7182 4.23726Z" fill="#78AF22"/>
<path d="M12.6513 2.91016C12.5863 3.04563 12.7217 3.46313 12.7921 3.6069C12.8515 3.71813 12.9194 3.82444 12.9951 3.92486C13.0584 4.04186 13.098 4.17068 13.1115 4.30365C13.1831 4.54749 13.2736 4.7851 13.3823 5.01421C13.4579 5.23476 13.5757 5.43776 13.7288 5.61143C13.523 5.84367 13.2848 5.04186 13.2279 4.9368C13.1484 4.77801 13.0187 4.65134 12.8597 4.57737C12.7163 4.51101 12.5619 4.54695 12.4185 4.4806C12.5538 4.34788 12.6215 4.24282 12.4537 4.11287C12.4562 4.10384 12.4562 4.09425 12.4537 4.08522C12.6296 3.98845 12.4537 3.89445 12.3616 3.85574C12.4401 3.76726 12.5755 3.83085 12.5782 3.66496C12.5782 3.4493 12.4076 3.59308 12.3589 3.49354C12.3102 3.39401 12.5592 3.38295 12.5917 3.31659C12.6188 3.18905 12.6188 3.05705 12.5917 2.92951C12.6161 2.91569 12.5917 2.92951 12.6242 2.9461L12.6513 2.91016Z" fill="#537703"/>
<path d="M13.7152 5.88768C13.6589 5.92441 13.6105 5.97253 13.573 6.02908C13.5356 6.08562 13.5098 6.14939 13.4974 6.21646C13.485 6.28354 13.4861 6.3525 13.5008 6.41911C13.5154 6.48572 13.5432 6.54857 13.5826 6.60378C13.6448 6.69779 13.8154 6.84985 13.6665 6.96874C13.615 7.00745 13.2902 6.99086 13.5013 7.16228C13.4391 7.22311 13.3118 7.16228 13.2766 7.22864C13.2414 7.295 13.347 7.36688 13.3687 7.42771C13.3903 7.48854 13.4174 7.64613 13.3227 7.7042C13.2279 7.76226 13.1765 7.63784 13.1115 7.58531C13.0276 7.67378 13.0005 7.75949 12.8651 7.69867C12.7297 7.63784 12.727 7.50236 12.7677 7.36965C12.8083 7.23693 12.8868 7.16781 12.8814 7.05169C12.8759 6.93556 12.7704 6.82773 12.6512 6.92174C12.5321 7.01574 12.6025 7.11251 12.6133 7.22587C12.6242 7.33923 12.6458 7.28394 12.6133 7.36688C12.5808 7.44983 12.5132 7.40559 12.505 7.48577C12.4969 7.56595 12.7352 7.74014 12.5511 7.78438C12.4428 7.81202 12.4726 7.68761 12.4184 7.66549C12.3182 7.62125 12.3697 7.66549 12.283 7.69867C11.8038 7.84797 12.2614 7.36135 12.1098 7.25352C11.9582 7.14569 11.9392 7.39177 11.9094 7.46089C11.8797 7.53001 11.8905 7.58254 11.8255 7.58531C11.7605 7.58807 11.7659 7.47471 11.728 7.46089C11.6252 7.42771 11.4573 7.59637 11.3653 7.51895C11.2732 7.44153 11.4384 7.31988 11.4925 7.24246C11.5248 7.20769 11.5448 7.16295 11.5494 7.11528C11.5494 7.01851 11.4925 7.05445 11.46 6.9881C11.3761 6.81115 11.46 6.83879 11.5927 6.82497C11.6216 6.8294 11.6498 6.83777 11.6766 6.84985C11.9203 6.64525 11.4059 6.51254 11.571 6.28029C11.6225 6.20564 11.682 6.28029 11.7443 6.24711C11.8499 6.20288 11.7768 6.24711 11.8309 6.13928C11.9257 5.9651 11.9338 5.9568 12.1017 6.0674C12.2135 6.14814 12.3458 6.19421 12.4827 6.2001C12.6195 6.20598 12.7551 6.17143 12.8732 6.10058C13.079 6.00934 13.2902 5.76879 13.504 5.73008C13.6557 5.70244 13.856 5.84344 13.6394 5.94851L13.7152 5.88768Z" fill="#5F9303"/>
<path d="M11.3707 7.46495C11.3869 7.31565 11.7118 7.05299 11.8553 6.96175C11.9634 6.9 12.0766 6.84818 12.1937 6.80691C12.3095 6.74456 12.4117 6.65898 12.4942 6.55531C12.6811 6.38931 12.8813 6.23949 13.0925 6.1074C13.2749 5.96645 13.4829 5.864 13.7044 5.80603C13.653 5.49637 13.0303 6.03828 12.9274 6.08252C12.7773 6.17265 12.6013 6.20685 12.4293 6.17929C12.2722 6.15717 12.1585 6.03828 12.0069 6.0134C12.0502 6.20141 12.0502 6.32583 11.8418 6.34242C11.8444 6.35238 11.8444 6.36287 11.8418 6.37283C11.9392 6.55255 11.7308 6.5249 11.6414 6.51384C11.6604 6.62996 11.8093 6.65485 11.7226 6.79033C11.636 6.9258 11.5413 6.75438 11.4519 6.80968C11.3626 6.86498 11.5602 7.01428 11.5548 7.08617C11.5494 7.15805 11.4086 7.34053 11.3517 7.41242C11.3653 7.4373 11.3707 7.41242 11.3896 7.41242L11.3707 7.46495Z" fill="#537703"/>
<path d="M11.6685 6.53523C11.5413 6.53523 11.5115 6.30298 11.6089 6.25874C11.6631 6.22833 11.7091 6.30574 11.7605 6.25874C11.812 6.21174 11.7605 6.13432 11.7741 6.08732C11.7984 5.94355 11.8715 5.95184 11.8851 5.81083C11.8851 5.74724 11.8093 5.48458 12.0069 5.62835C12.099 5.69471 12.0908 5.87995 12.1856 5.97396C12.2718 6.05482 12.3807 6.10606 12.4969 6.1205C12.7262 6.10395 12.9469 6.02468 13.1359 5.89101C13.2453 5.81362 13.3765 5.7748 13.5095 5.78042V5.8053C13.3394 5.89343 13.1748 5.99223 13.0167 6.10114C12.8624 6.19791 12.7081 6.37763 12.5105 6.34169C12.3128 6.30574 12.1964 6.09561 12.0259 6.0652C11.8553 6.03479 11.9825 6.14538 11.9907 6.23386C11.9988 6.32233 11.9474 6.40528 11.8309 6.32233C11.8375 6.33709 11.8402 6.35332 11.8388 6.36947C11.8374 6.38561 11.832 6.40111 11.823 6.41447C11.814 6.42782 11.8018 6.43857 11.7875 6.44568C11.7733 6.45279 11.7574 6.45602 11.7416 6.45504C11.8336 6.60711 11.9446 6.61264 11.8201 6.80895C11.7497 6.92231 11.6414 6.99696 11.5115 6.90019C11.6387 6.82277 11.8039 6.83936 11.701 6.6237C11.6306 6.48269 11.4952 6.43569 11.5331 6.24768L11.6685 6.53523Z" fill="#496303"/>
<path d="M13.0249 3.73791C13.0903 3.87856 13.1438 4.02472 13.1846 4.17476C13.2117 4.32406 13.2144 4.47336 13.255 4.61714C13.3196 4.90006 13.4548 5.16107 13.6476 5.37471C13.6476 5.23647 13.6151 5.14246 13.699 5.02357C13.793 4.92048 13.8973 4.82781 14.0103 4.74709C13.967 4.74709 13.8398 4.77473 13.8127 4.7305C13.7531 4.63373 13.9075 4.65032 13.9399 4.60884C14.0347 4.47889 13.9887 4.27429 13.8073 4.33236C13.8073 4.29641 13.9778 3.75727 13.7721 3.96186C13.6692 4.0614 13.7721 4.3213 13.6421 4.44572C13.5663 4.51484 13.4986 4.53972 13.4283 4.44572C13.4012 4.40977 13.4283 4.36553 13.4147 4.34065C13.4012 4.31577 13.3525 4.27153 13.3443 4.25494C13.32 4.18858 13.32 4.1167 13.2983 4.03099C13.2767 3.94528 13.19 3.87892 13.1629 3.78215C13.2225 3.75727 13.4039 3.69091 13.255 3.63008C13.1494 3.58584 13.1115 3.72132 13.0059 3.68261L13.0249 3.73791Z" fill="#78AF22"/>
<path d="M13.0519 5.45807C13.1344 5.4616 13.2152 5.48259 13.2893 5.51971C13.3634 5.55684 13.4291 5.60929 13.4823 5.67373C13.6256 5.79594 13.79 5.88971 13.967 5.95022C14.1984 6.08146 14.4604 6.14642 14.725 6.13823C14.8685 6.11888 15.1934 6.00828 15.1473 5.80645C15.132 5.80778 15.1166 5.80778 15.1013 5.80645C14.9795 6.14376 14.2648 5.98893 14.0401 5.87557C13.8641 5.78433 13.7152 5.65438 13.5446 5.56314C13.3741 5.4719 13.1981 5.41937 13.0438 5.32812L13.0519 5.45807Z" fill="#537703"/>
<path d="M16.4361 4.47857C16.5077 4.51618 16.571 4.56827 16.6222 4.63167C16.6734 4.69507 16.7114 4.76846 16.734 4.84735C16.7565 4.92625 16.7631 5.009 16.7533 5.09058C16.7435 5.17216 16.7176 5.25085 16.6771 5.32185C16.6121 5.44351 16.4253 5.64811 16.6175 5.76976C16.6852 5.81124 17.0723 5.75041 16.8368 5.98266C16.9207 6.04901 17.0669 5.98266 17.1075 6.03519C17.1833 6.14025 17.0398 6.20938 17.0209 6.28403C17.0019 6.35868 16.9857 6.56051 17.1048 6.59922C17.2239 6.63793 17.2754 6.49969 17.3458 6.4278C17.4568 6.52733 17.5001 6.62687 17.6544 6.53563C17.8087 6.44439 17.7979 6.28403 17.7356 6.13196C17.6733 5.97989 17.5705 5.90248 17.5623 5.76147C17.5542 5.62046 17.6679 5.48498 17.8331 5.57899C17.9982 5.67299 17.9143 5.80018 17.9116 5.93842C17.9116 6.03242 17.8818 6.01307 17.9116 6.10708C17.9414 6.20108 18.0361 6.14302 18.0551 6.23979C18.074 6.33656 17.8087 6.57157 18.0334 6.60199C18.1661 6.62134 18.1173 6.47757 18.1769 6.44439C18.2933 6.37803 18.2392 6.44439 18.3475 6.46651C18.9377 6.58816 18.3475 6.05731 18.5018 5.91354C18.6561 5.76976 18.7238 6.05731 18.7725 6.13472C18.8212 6.21214 18.8104 6.2785 18.8889 6.27573C18.9674 6.27297 18.9485 6.13472 18.9945 6.11537C19.1136 6.06284 19.3194 6.24808 19.4331 6.14025C19.5468 6.03242 19.3248 5.90801 19.2517 5.82506C19.208 5.78878 19.1782 5.73784 19.1678 5.68129C19.1678 5.5624 19.23 5.60111 19.2598 5.51816C19.3438 5.29697 19.2436 5.33844 19.0811 5.33844C19.0487 5.34894 19.017 5.36188 18.9864 5.37715C18.6723 5.16149 19.2788 4.9403 19.0487 4.68041C18.9783 4.59746 18.9133 4.68041 18.8375 4.66105C18.7048 4.62235 18.7942 4.66105 18.7211 4.54216C18.5884 4.34586 18.5749 4.33756 18.3827 4.48963C18.2582 4.60016 18.1052 4.67171 17.9419 4.69574C17.7787 4.71977 17.6121 4.69525 17.4622 4.62511C17.1914 4.5394 16.9207 4.27397 16.65 4.25462C16.4659 4.24079 16.2412 4.43157 16.5119 4.5311L16.4361 4.47857Z" fill="#5F9303"/>
<path d="M19.8419 3.69647C19.8177 3.66068 19.8045 3.61832 19.804 3.57481C19.9339 3.59417 20.0287 3.70476 20.1722 3.67158C20.1207 3.44763 20.229 3.53058 20.3075 3.43104C20.3861 3.33151 20.3509 3.25409 20.1613 3.26238C20.1613 3.1435 20.1234 2.90019 19.9204 3.05225C19.8581 3.09926 19.9204 3.2458 19.7904 3.24856C19.7363 3.24856 19.647 3.15732 19.6442 3.09926C19.628 2.87254 19.9772 3.02461 19.8662 2.75641C19.7552 2.48822 19.5766 2.74259 19.5008 2.85871C19.3464 2.679 19.23 3.1352 19.1705 2.85871C19.1488 2.75365 19.341 2.47716 19.092 2.4661C18.9079 2.4661 18.9403 2.7813 18.7373 2.52693C18.6398 2.40528 18.6507 2.19791 18.4205 2.3168C18.1904 2.43569 18.2987 2.62094 18.3664 2.773C18.4123 2.84804 18.4348 2.93553 18.4309 3.0239C18.427 3.11227 18.397 3.19736 18.3447 3.26791C18.1723 3.55519 17.8994 3.76474 17.5813 3.85406C17.3534 3.90339 17.1389 4.00346 16.9532 4.14714C17.2543 4.15525 17.5546 4.18388 17.852 4.23285C18.0117 4.26603 18.5153 4.33515 18.5965 4.50934C18.6507 4.6227 18.4936 4.71394 18.5965 4.81071C18.6344 4.84941 18.7427 4.81071 18.7644 4.81071C18.8348 4.86047 18.8077 4.91024 18.8429 4.94618C18.8781 4.98213 18.9755 5.10931 19.1136 5.00425C19.2517 4.89918 19.1136 4.78306 19.1542 4.63652C19.2896 4.57846 19.425 4.97107 19.5495 4.77753C19.5901 4.70564 19.4087 4.63652 19.5143 4.57293C19.5684 4.53975 19.6903 4.67523 19.7471 4.68629C20.0179 4.74435 19.9935 4.56463 19.8825 4.42639C19.7715 4.28815 19.6713 4.22456 19.7282 4.04484C19.8554 4.02825 19.9718 4.20797 19.9989 4.00337C20.0179 3.85683 19.8608 3.78218 19.8229 3.65499L19.8419 3.69647Z" fill="#8CC63F"/>
<path d="M20.2831 3.3473C20.2182 3.43854 20.0124 3.37495 19.9068 3.38601C19.7559 3.40481 19.6127 3.465 19.4926 3.56019C19.2385 3.74092 18.9554 3.87474 18.656 3.95557C18.3853 4.01916 18.0983 4.03575 17.8195 4.07722C17.6164 4.10487 17.1697 4.07722 17.0262 4.18782C17.3535 4.18985 17.6798 4.22318 18.0009 4.28735C18.1651 4.30474 18.3238 4.35751 18.4665 4.44218C18.5911 4.57213 18.3907 4.61361 18.4963 4.74632C18.545 4.80715 18.6506 4.76844 18.6858 4.79609C18.721 4.82373 18.721 4.92327 18.7589 4.96474C18.8128 5.01953 18.8852 5.05121 18.9612 5.05326C19.0372 5.05532 19.1111 5.0276 19.1677 4.9758C19.2435 4.87903 19.0324 4.64955 19.1894 4.64955C19.3464 4.64955 19.276 4.85415 19.4087 4.88456C19.6469 4.94262 19.4899 4.70485 19.5413 4.64955C19.6523 4.53066 19.7769 4.77397 19.9041 4.71314C20.072 4.63572 19.9258 4.47813 19.85 4.41177C19.7227 4.30118 19.6496 4.30118 19.7444 4.10211C19.8256 4.19611 19.9529 4.19611 19.9664 4.03298C19.9799 3.86986 19.8391 3.89474 19.8148 3.77032C19.7742 3.56296 19.9095 3.65143 19.9989 3.64314C20.0882 3.63484 20.294 3.64314 20.1126 3.4966C20.1992 3.4966 20.2859 3.54637 20.3481 3.45789C20.4104 3.36942 20.3481 3.22288 20.2858 3.32242L20.2831 3.3473Z" fill="#78AF22"/>
<path d="M19.425 6.09744C19.3871 5.92048 18.9674 5.64123 18.7861 5.54446C18.6477 5.48417 18.5046 5.43607 18.3583 5.40069C18.2119 5.3384 18.0806 5.24401 17.9739 5.1242C17.7299 4.94987 17.4728 4.79548 17.205 4.66247C16.9723 4.51296 16.7128 4.41238 16.4415 4.36663C16.4659 3.98785 17.2754 4.56294 17.4053 4.61547C17.597 4.70512 17.8131 4.72465 18.0172 4.67077C18.1986 4.62376 18.3204 4.46893 18.5018 4.41916C18.472 4.65141 18.4855 4.80072 18.7373 4.79519C18.7332 4.80679 18.7332 4.81952 18.7373 4.83113C18.6399 5.05785 18.8862 5.00255 19.0081 4.9749C19.0081 5.11867 18.8213 5.16568 18.9404 5.32327C19.092 5.52787 19.1543 5.25968 19.2734 5.32327C19.3925 5.38687 19.1651 5.58317 19.1813 5.67165C19.1976 5.76012 19.3844 5.94813 19.4521 6.03661C19.4521 6.06979 19.4304 6.03661 19.4087 6.05043L19.425 6.09744Z" fill="#537703"/>
<path d="M16.2439 4.10435C16.272 4.02682 16.2843 3.9442 16.2798 3.86163C16.2754 3.77906 16.2544 3.69831 16.2181 3.6244C16.1817 3.55049 16.1309 3.485 16.0688 3.43201C16.0066 3.37901 15.9344 3.33965 15.8567 3.31636C15.7295 3.27489 15.4561 3.26383 15.5129 3.03988C15.5319 2.96246 15.8513 2.72745 15.5264 2.73021C15.5264 2.62238 15.6997 2.57262 15.6889 2.49243C15.6726 2.36249 15.5237 2.41502 15.4588 2.37631C15.3938 2.3376 15.253 2.20765 15.3099 2.09982C15.3667 1.99199 15.4967 2.05006 15.5941 2.05006C15.6104 1.89799 15.5725 1.79845 15.7457 1.75145C15.919 1.70445 16.0165 1.82887 16.076 1.9837C16.1356 2.13853 16.1112 2.26019 16.2006 2.37631C16.2899 2.49243 16.4713 2.50073 16.5119 2.31825C16.5525 2.13577 16.4199 2.10259 16.3278 2.00305C16.2358 1.90352 16.2547 1.97264 16.2249 1.87311C16.1952 1.77357 16.2899 1.75698 16.2249 1.67404C16.16 1.59109 15.8243 1.61321 15.9677 1.42796C16.049 1.32013 16.1112 1.45838 16.1762 1.42796C16.3034 1.39202 16.2195 1.38649 16.2845 1.29248C16.6256 0.780985 16.5552 1.59385 16.7664 1.56897C16.9776 1.54409 16.8314 1.29248 16.807 1.2206C16.7826 1.14871 16.7366 1.09065 16.807 1.03812C16.8774 0.985585 16.9451 1.09618 16.9911 1.07683C17.1102 1.02982 17.1346 0.747807 17.2889 0.742277C17.4432 0.736747 17.3674 0.98835 17.3701 1.09894C17.3645 1.15664 17.3768 1.21468 17.4053 1.26484C17.4838 1.35331 17.5055 1.27866 17.584 1.31737C17.7925 1.4169 17.6923 1.45561 17.584 1.57174C17.553 1.58887 17.5203 1.60276 17.4865 1.61321C17.408 1.99476 17.9928 1.71827 18.0036 2.06941C18.0036 2.18001 17.9008 2.16618 17.8629 2.2353C17.7925 2.35972 17.8385 2.27125 17.8629 2.40396C17.9008 2.64174 17.8981 2.65556 17.6571 2.68045C17.4932 2.69033 17.3355 2.74756 17.2023 2.84546C17.069 2.94335 16.9657 3.0779 16.9045 3.23342C16.7772 3.47949 16.7529 3.8721 16.5769 4.06288C16.4551 4.20388 16.1627 4.22877 16.2899 3.96058L16.2439 4.10435Z" fill="#5F9303"/>
<path d="M17.3078 0.804688C17.4026 0.95952 17.2862 1.45996 17.2185 1.65626C17.1593 1.79701 17.0896 1.93289 17.01 2.0627C16.9455 2.21074 16.9114 2.37071 16.9098 2.53273C16.8527 2.83345 16.7731 3.12924 16.6716 3.41748C16.6035 3.69179 16.484 3.95001 16.3196 4.17782C16.5904 4.43219 16.788 3.4396 16.8476 3.30689C16.9241 3.10562 17.0654 2.93694 17.2482 2.82857C17.4134 2.7318 17.6002 2.75668 17.7681 2.66267C17.5894 2.51614 17.4973 2.40001 17.6841 2.22306C17.6789 2.21921 17.6744 2.21426 17.6712 2.20854C17.6679 2.20282 17.6659 2.19646 17.6652 2.18988C17.4405 2.09864 17.6652 1.9604 17.7518 1.9134C17.6462 1.81939 17.4811 1.9134 17.4811 1.71156C17.454 1.45443 17.6787 1.60373 17.7274 1.47931C17.7762 1.35489 17.4757 1.37148 17.4269 1.29683C17.3735 1.14846 17.3531 0.989766 17.3674 0.832336C17.3349 0.832336 17.3511 0.832336 17.3268 0.854455L17.3078 0.804688Z" fill="#537703"/>
<path d="M17.7139 1.9163C17.833 1.80847 18.0334 2.01307 17.9847 2.13749C17.9549 2.20661 17.8574 2.17067 17.8439 2.25638C17.8303 2.34209 17.9278 2.37803 17.9549 2.4278C18.0361 2.5854 17.9549 2.6324 18.0415 2.76512C18.0821 2.83147 18.3529 3.01395 18.0605 3.0416C17.9251 3.0416 17.7897 2.86742 17.6408 2.85359C17.4999 2.84228 17.3593 2.87819 17.2401 2.95589C17.0293 3.1438 16.8721 3.38646 16.7853 3.65817C16.7388 3.81538 16.6438 3.95307 16.5146 4.05078V4.02589C16.6114 3.8119 16.6954 3.59216 16.7664 3.36786C16.8395 3.15496 16.8638 2.87847 17.0696 2.74853C17.2753 2.61858 17.5407 2.74853 17.7193 2.62134C17.898 2.49416 17.7031 2.51351 17.63 2.4361C17.5569 2.35868 17.5461 2.24256 17.7139 2.22873C17.6983 2.21814 17.6855 2.20376 17.6766 2.18687C17.6677 2.16999 17.6631 2.15113 17.6631 2.13196C17.6631 2.1128 17.6677 2.09393 17.6766 2.07705C17.6855 2.06016 17.6983 2.04578 17.7139 2.03519C17.5163 1.96054 17.408 2.03519 17.3809 1.75871C17.3809 1.59281 17.4134 1.44075 17.6083 1.42969C17.5461 1.60111 17.3755 1.70617 17.6273 1.83612C17.7951 1.9163 17.9603 1.85271 18.0605 2.06008L17.7139 1.9163Z" fill="#496303"/>
<path d="M18.4666 5.6063C18.3032 5.5222 18.1466 5.42513 17.9982 5.31599C17.8655 5.1971 17.7545 5.05609 17.6111 4.95103C17.3436 4.73413 17.0254 4.59214 16.6879 4.53906C16.7962 4.66625 16.8882 4.73537 16.8963 4.91508C16.8807 5.08374 16.849 5.25042 16.8016 5.41276C16.8395 5.37405 16.9424 5.2524 16.9992 5.27452C17.1265 5.31875 16.9694 5.42105 16.9694 5.48741C16.9694 5.68372 17.1671 5.84131 17.2943 5.64501C17.3187 5.67542 17.5488 6.31963 17.5948 5.9685C17.6192 5.79154 17.3241 5.63118 17.3674 5.41552C17.3891 5.2911 17.4324 5.21369 17.5677 5.24687C17.6165 5.24687 17.6192 5.32428 17.6571 5.33534C17.695 5.3464 17.7654 5.35193 17.7843 5.36299C17.856 5.41614 17.9247 5.47337 17.9901 5.53441C18.0821 5.60353 18.204 5.598 18.2987 5.66989C18.2635 5.73625 18.139 5.94638 18.3231 5.88279C18.4557 5.84408 18.3908 5.68372 18.5207 5.63948L18.4666 5.6063Z" fill="#78AF22"/>
<path d="M17.1887 3.99609C17.1092 4.05718 17.0179 4.10034 16.9208 4.12274C16.8237 4.14514 16.7231 4.14626 16.6256 4.12604C16.4016 4.12202 16.1787 4.15949 15.9677 4.23664C15.6514 4.29259 15.3557 4.43494 15.1122 4.6486C14.9931 4.77579 14.7657 5.13245 14.9525 5.28728L14.9985 5.25134C14.8686 4.83938 15.6564 4.42188 15.9515 4.36659C16.1816 4.31405 16.4198 4.32235 16.6473 4.27535C16.8747 4.22834 17.0804 4.1454 17.2889 4.11222L17.1887 3.99609Z" fill="#537703"/>
</svg>
