<svg width="22" height="27" viewBox="0 0 22 27" fill="none" xmlns="http://www.w3.org/2000/svg">
<g clip-path="url(#clip0)">
<path d="M20.7146 1.6875C18.6723 0.0973892 4.23345 -0.00851631 2.57531 2.00976C1.81609 2.94022 2.20178 4.95849 2.20178 4.95849L18.8013 4.89495L11.3352 11.0678L2.16989 26.4348C2.16989 26.4348 3.34364 26.8236 4.84538 25.7025C6.34711 24.5814 8.66729 22.7871 11.9896 18.3677C15.482 13.7154 22.3499 5.53492 21.4131 3.01738C21.4044 2.75766 21.3371 2.50323 21.2162 2.27299C21.0952 2.04276 20.9238 1.84263 20.7146 1.6875Z" fill="#DF9E1D"/>
<path d="M18.7828 4.91643C19.8123 4.94064 20.4394 4.96031 20.4394 4.96031C20.8311 3.44736 15.9023 2.52446 11.0843 2.47604C7.20315 2.43822 3.42527 3.45946 2.1012 3.85736C2.10416 4.22863 2.13768 4.59903 2.20141 4.96484H4.2513C8.19924 4.73185 14.8136 4.83473 18.2376 4.91189H18.801L18.7828 4.91643Z" fill="#E5C456"/>
<path d="M5.24494 24.2304L3.77357 23.7417L2.1701 26.4348C2.1701 26.4348 3.34386 26.8236 4.84559 25.7025C6.34733 24.5814 8.6675 22.7871 11.9898 18.3677C12.7217 17.3934 13.6024 16.2647 14.5256 15.0665C10.3697 19.389 5.24494 24.2304 5.24494 24.2304Z" fill="#C67B1B"/>
<path d="M2.20222 4.96537C2.20222 4.96537 -1.42077 24.6064 1.90461 26.4069C5.12066 28.1483 20.4827 4.89577 20.4827 4.89577C14.4256 3.4388 8.34278 3.01064 2.20222 4.96537Z" fill="#E3BB69"/>
<path d="M3.29357 25.766C4.13631 25.2788 4.81201 24.5556 5.45127 23.8249C10.4442 18.2258 14.983 12.2404 19.0246 5.92518C19.1552 5.72093 19.2903 5.4713 19.2053 5.24889C19.1096 4.99169 18.7908 4.90848 18.519 4.8646C13.2355 4.00562 7.84365 4.05064 2.57535 4.99774C1.29021 11.2992 0.824777 17.7393 1.19054 24.1592C1.23305 24.9066 1.42286 25.8235 2.14715 26.0217C2.53587 26.1261 2.94585 25.9672 3.29357 25.766Z" fill="#EFCB5C"/>
<path d="M2.2012 4.96317L2.15717 5.20524C2.23617 5.23331 2.31746 5.25457 2.40012 5.26878C3.17756 5.42008 2.7038 6.23556 3.41595 5.88455C4.69751 5.25214 5.28818 5.83765 5.56758 5.80588C6.13547 5.74233 6.59708 5.33989 7.09816 5.06454C7.59925 4.78918 8.30077 4.66663 8.68797 5.08723C8.83981 5.24609 8.91421 5.46547 9.09643 5.57894C9.65825 5.92994 10.4706 4.97376 10.9702 5.40495C11.122 5.53355 11.163 5.74082 11.2739 5.90119C11.5776 6.35508 12.2836 6.31574 12.7923 6.09182C13.301 5.86791 13.7823 5.51388 14.3366 5.51388C14.7025 5.51388 15.0472 5.66518 15.3995 5.73628C15.8854 5.82252 16.3849 5.73628 16.8739 5.65761C17.8366 5.49421 18.7982 5.33132 19.7589 5.16893C19.9932 5.14042 20.2202 5.06913 20.4285 4.95863L20.471 4.89357C14.4246 3.43661 8.34176 3.00845 2.2012 4.96317Z" fill="#EE3735"/>
<path d="M19.8333 4.92925L16.9482 5.41945C16.4593 5.50115 15.9597 5.58436 15.4738 5.49661C15.1139 5.43155 14.7693 5.27572 14.4109 5.27572C13.8567 5.27572 13.3753 5.62975 12.8682 5.85366C12.361 6.07758 11.6534 6.12145 11.3497 5.66303C11.2404 5.50115 11.1979 5.29387 11.046 5.16679C10.5465 4.73408 9.73411 5.69026 9.17229 5.33926C8.9916 5.22579 8.9096 5.00641 8.76383 4.84907C8.37815 4.42696 7.67511 4.54648 7.17403 4.82486C6.67294 5.10324 6.21133 5.50417 5.64344 5.56771C5.36405 5.59949 4.77337 5.01246 3.49333 5.64487C2.7827 5.99588 3.25342 5.18343 2.47598 5.03062C2.39352 5.0155 2.31231 4.99426 2.23302 4.96708H2.21329L2.16925 5.20915C2.24826 5.23722 2.32954 5.25848 2.4122 5.27269C3.18964 5.42399 2.71589 6.23946 3.42804 5.88846C4.7096 5.25605 5.30027 5.84156 5.57966 5.80979C6.14756 5.74624 6.60917 5.3438 7.11025 5.06844C7.61134 4.79309 8.31285 4.67054 8.70006 5.09114C8.8519 5.25 8.9263 5.46937 9.10852 5.58285C9.67034 5.93385 10.4827 4.97767 10.9823 5.40886C11.1341 5.53746 11.1751 5.74473 11.286 5.9051C11.5896 6.35898 12.2957 6.31965 12.8044 6.09573C13.3131 5.87182 13.7944 5.51779 14.3486 5.51779C14.7146 5.51779 15.0593 5.66908 15.4116 5.74019C15.8975 5.82643 16.397 5.74019 16.886 5.66152C17.8487 5.49812 18.8103 5.33523 19.771 5.17284C20.0053 5.14432 20.2323 5.07303 20.4406 4.96254L20.4831 4.89748L20.2311 4.83848C20.1009 4.87835 19.9679 4.90869 19.8333 4.92925Z" fill="#BA2928"/>
<path d="M4.01247 9.67039C4.44978 9.91397 5.12852 9.51001 5.49902 8.8776C5.81941 8.3284 5.81638 7.75046 5.51876 7.51595C5.22115 7.28144 4.62137 7.43425 4.17191 7.96983C3.64501 8.59317 3.54783 9.4026 4.01247 9.67039Z" fill="#9F2112"/>
<path d="M3.76925 9.55323C4.22478 9.80438 4.93237 9.40193 5.32261 8.76649C5.65818 8.21729 5.66274 7.63481 5.35601 7.39274C5.04929 7.15066 4.42673 7.29742 3.95449 7.82998C3.39875 8.46542 3.2879 9.29149 3.76925 9.55323Z" fill="#D23021"/>
<path d="M3.71699 8.81027C3.61526 8.88592 3.77166 9.02663 3.86884 8.95098C3.96601 8.87533 3.81569 8.73765 3.71699 8.81027Z" fill="#F05626"/>
<path d="M3.96761 8.23884C3.83854 8.32659 4.04049 8.52025 4.16348 8.42947C4.28648 8.3387 4.09212 8.15412 3.96761 8.23884Z" fill="#F05626"/>
<path d="M4.77243 7.53426C4.71473 7.57359 4.81191 7.67496 4.86961 7.63562C4.92731 7.59629 4.83013 7.49643 4.77243 7.53426Z" fill="#F05626"/>
<path d="M5.13389 7.49687C5.07011 7.54075 5.18096 7.66027 5.24322 7.61488C5.30547 7.56949 5.19766 7.45299 5.13389 7.49687Z" fill="#F05626"/>
<path d="M5.12481 8.19203C5.02307 8.27373 5.19769 8.45225 5.29487 8.36904C5.39205 8.28583 5.22199 8.11034 5.12481 8.19203Z" fill="#F05626"/>
<path d="M4.52168 7.90365C4.41843 7.97476 4.58698 8.14572 4.68719 8.07159C4.78741 7.99745 4.6219 7.83406 4.52168 7.90365Z" fill="#F05626"/>
<path d="M4.57425 8.5436C4.45733 8.63589 4.64866 8.82199 4.76102 8.72818C4.87338 8.63438 4.68662 8.45585 4.57425 8.5436Z" fill="#F05626"/>
<path d="M4.19241 8.7874H4.18482C4.17228 8.79414 4.16216 8.80462 4.15589 8.81737C4.14962 8.83012 4.14751 8.8445 4.14986 8.85851C4.1522 8.87251 4.15888 8.88544 4.16896 8.89547C4.17904 8.90551 4.19202 8.91215 4.20608 8.91448C4.26681 8.93263 4.32907 8.87666 4.28959 8.82371V8.81463C4.27956 8.79901 4.26412 8.78761 4.2462 8.78259C4.22829 8.77757 4.20914 8.77928 4.19241 8.7874Z" fill="#F05626"/>
<path d="M4.10449 7.85544C3.99668 7.92504 4.16826 8.09297 4.27152 8.02186C4.37477 7.95076 4.20926 7.78736 4.10449 7.85544Z" fill="#F05626"/>
<path d="M4.77256 8.24121C4.7103 8.29114 4.81659 8.3925 4.87885 8.34863C4.94111 8.30475 4.83481 8.19431 4.77256 8.24121Z" fill="#F05626"/>
<path d="M4.39659 9.04998C4.28423 9.14378 4.46492 9.31324 4.57273 9.21792C4.68054 9.1226 4.5044 8.9592 4.39659 9.04998Z" fill="#F05626"/>
<path d="M3.95345 9.16556C3.86689 9.11714 3.78034 9.19733 3.82134 9.27146C3.82957 9.28369 3.84062 9.29378 3.85357 9.30089C3.86651 9.30799 3.88097 9.31191 3.89575 9.31231H3.90334C3.92105 9.31353 3.93866 9.30887 3.95344 9.29907C3.96822 9.28928 3.97934 9.27489 3.98505 9.25814C3.99077 9.2414 3.99077 9.22324 3.98506 9.20649C3.97934 9.18975 3.96823 9.17535 3.95345 9.16556Z" fill="#F05626"/>
<path d="M5.06611 7.8724C4.99019 7.92838 5.11925 8.06303 5.19214 8.00554C5.26502 7.94805 5.13899 7.81793 5.06611 7.8724Z" fill="#F05626"/>
<path d="M3.2698 21.4852C3.67219 21.7091 4.29779 21.3339 4.6364 20.7544C4.93249 20.2491 4.92946 19.7165 4.65462 19.4987C4.37978 19.2808 3.82859 19.423 3.41557 19.9162C2.92967 20.4927 2.8416 21.2461 3.2698 21.4852Z" fill="#9F2112"/>
<path d="M3.04714 21.3832C3.4632 21.6147 4.11764 21.2455 4.47599 20.66C4.77968 20.1547 4.78879 19.6176 4.50636 19.3936C4.22393 19.1697 3.65148 19.3059 3.21721 19.7976C2.7055 20.3756 2.60224 21.1366 3.04714 21.3832Z" fill="#D23021"/>
<path d="M2.99618 20.6899C2.90355 20.7595 3.04629 20.8896 3.13739 20.82C3.2285 20.7504 3.08121 20.6233 2.99618 20.6899Z" fill="#F05626"/>
<path d="M3.23323 20.1669C3.11479 20.2486 3.30004 20.4256 3.41392 20.3409C3.5278 20.2561 3.34255 20.0882 3.23323 20.1669Z" fill="#F05626"/>
<path d="M3.96878 19.5167C3.91411 19.5515 4.0037 19.6453 4.05685 19.609C4.10999 19.5727 4.02041 19.4819 3.96878 19.5167Z" fill="#F05626"/>
<path d="M4.29514 19.4831C4.23592 19.524 4.33765 19.6344 4.39535 19.592C4.45306 19.5497 4.35891 19.4423 4.29514 19.4831Z" fill="#F05626"/>
<path d="M4.29618 20.1227C4.20356 20.1969 4.36451 20.3618 4.44803 20.2846C4.53154 20.2074 4.38425 20.0501 4.29618 20.1227Z" fill="#F05626"/>
<path d="M3.73793 19.8534C3.64378 19.92 3.79866 20.0773 3.88977 20.0047C3.98087 19.9321 3.83055 19.7899 3.73793 19.8534Z" fill="#F05626"/>
<path d="M3.78592 20.4475C3.67811 20.5322 3.85425 20.7032 3.95751 20.617C4.06076 20.5307 3.88918 20.3643 3.78592 20.4475Z" fill="#F05626"/>
<path d="M3.43556 20.6694C3.42386 20.6753 3.41435 20.6848 3.40837 20.6964C3.4024 20.7081 3.40027 20.7213 3.40229 20.7342C3.40431 20.7471 3.41038 20.7591 3.41963 20.7684C3.42887 20.7776 3.44082 20.7838 3.45378 20.7859C3.51148 20.8025 3.56766 20.7511 3.53274 20.7027V20.6936C3.52271 20.6779 3.50705 20.6667 3.48898 20.6622C3.47091 20.6577 3.45179 20.6603 3.43556 20.6694Z" fill="#F05626"/>
<path d="M3.35431 19.8128C3.25561 19.8764 3.41201 20.0307 3.50615 19.9641C3.60029 19.8976 3.45149 19.7508 3.35431 19.8128Z" fill="#F05626"/>
<path d="M3.97184 20.1684C3.91262 20.2138 4.01132 20.3197 4.06751 20.2668C4.12369 20.2138 4.02803 20.1245 3.97184 20.1684Z" fill="#F05626"/>
<path d="M3.62425 20.9103C3.52099 20.998 3.68802 21.1539 3.78672 21.0616C3.88542 20.9693 3.72294 20.8271 3.62425 20.9103Z" fill="#F05626"/>
<path d="M3.21545 21.016C3.13498 20.9721 3.0545 21.0448 3.09398 21.1143C3.10141 21.1257 3.11152 21.1351 3.12343 21.1417C3.13534 21.1483 3.14869 21.1519 3.16231 21.1522H3.1699C3.18635 21.1533 3.2027 21.1489 3.21639 21.1398C3.23009 21.1307 3.24035 21.1172 3.24556 21.1017C3.25077 21.0861 3.25064 21.0692 3.2452 21.0537C3.23975 21.0382 3.22928 21.0249 3.21545 21.016Z" fill="#F05626"/>
<path d="M4.2382 19.8294C4.16987 19.8809 4.28831 20.0049 4.35512 19.952C4.42193 19.899 4.30653 19.7795 4.2382 19.8294Z" fill="#F05626"/>
<path d="M11.8288 10.1826C12.2843 10.4368 12.9874 10.0177 13.37 9.36108C13.7025 8.79221 13.6995 8.19308 13.3897 7.94647C13.08 7.69986 12.4589 7.86174 11.9943 8.417C11.4492 9.06605 11.3475 9.9133 11.8288 10.1826Z" fill="#9F2112"/>
<path d="M11.5848 10.0689C12.0524 10.3306 12.7889 9.91757 13.1928 9.2549C13.542 8.68603 13.5451 8.08237 13.2277 7.82971C12.9104 7.57705 12.265 7.73137 11.7761 8.28359C11.1945 8.93416 11.0776 9.79048 11.5848 10.0689Z" fill="#D23021"/>
<path d="M11.5232 9.29393C11.4184 9.37109 11.5793 9.51785 11.675 9.44523C11.7707 9.37261 11.6249 9.21829 11.5232 9.29393Z" fill="#F05626"/>
<path d="M11.7826 8.70072C11.649 8.79149 11.857 8.9912 11.9861 8.8974C12.1151 8.8036 11.9117 8.61145 11.7826 8.70072Z" fill="#F05626"/>
<path d="M12.6175 7.97025C12.5567 8.00959 12.6584 8.12156 12.7161 8.07465C12.7738 8.02775 12.6767 7.93091 12.6175 7.97025Z" fill="#F05626"/>
<path d="M12.9902 7.92954C12.9249 7.97493 13.0403 8.09898 13.1041 8.05208C13.1679 8.00518 13.0555 7.8902 12.9902 7.92954Z" fill="#F05626"/>
<path d="M12.984 8.64609C12.8793 8.73081 13.0599 8.91539 13.1602 8.82915C13.2604 8.74291 13.0842 8.56741 12.984 8.64609Z" fill="#F05626"/>
<path d="M12.3548 8.34263C12.2485 8.41676 12.4231 8.59227 12.5279 8.51662C12.6326 8.44097 12.4595 8.27757 12.3548 8.34263Z" fill="#F05626"/>
<path d="M12.4122 9.01799C12.2907 9.11331 12.4897 9.30545 12.6051 9.20711C12.7205 9.10877 12.5291 8.9257 12.4122 9.01799Z" fill="#F05626"/>
<path d="M12.0173 9.26836C12.0044 9.27518 11.994 9.28586 11.9875 9.29889C11.981 9.31192 11.9788 9.32665 11.9811 9.34101C11.9835 9.35537 11.9903 9.36863 12.0006 9.37894C12.0109 9.38925 12.0242 9.39608 12.0386 9.39847C12.1023 9.41814 12.1661 9.35914 12.1266 9.30467V9.29559C12.1156 9.2777 12.098 9.26482 12.0776 9.25973C12.0571 9.25463 12.0355 9.25773 12.0173 9.26836Z" fill="#F05626"/>
<path d="M11.9262 8.3017C11.8139 8.37432 11.99 8.54831 12.0993 8.47417C12.2086 8.40004 12.0401 8.2321 11.9262 8.3017Z" fill="#F05626"/>
<path d="M12.618 8.70044C12.5527 8.75188 12.662 8.86233 12.7273 8.81089C12.7926 8.75945 12.6817 8.64597 12.618 8.70044Z" fill="#F05626"/>
<path d="M12.2264 9.53995C12.111 9.63678 12.2977 9.81229 12.4101 9.71243C12.5225 9.61257 12.3433 9.44464 12.2264 9.53995Z" fill="#F05626"/>
<path d="M11.7692 9.65946C11.6796 9.60953 11.5885 9.69274 11.6325 9.76991C11.6413 9.78248 11.6528 9.79285 11.6662 9.8002C11.6797 9.80756 11.6947 9.81169 11.71 9.81227H11.7176C11.7361 9.81364 11.7545 9.80884 11.7699 9.79862C11.7854 9.7884 11.797 9.77335 11.8029 9.75583C11.8088 9.73832 11.8087 9.71934 11.8026 9.70189C11.7965 9.68444 11.7848 9.66951 11.7692 9.65946Z" fill="#F05626"/>
<path d="M12.922 8.32016C12.8446 8.37765 12.9782 8.51836 13.0541 8.45784C13.1301 8.39732 12.998 8.26418 12.922 8.32016Z" fill="#F05626"/>
<path d="M6.45282 13.6889C6.87191 13.9219 7.51573 13.5376 7.8756 12.9324C8.17929 12.4074 8.17929 11.8537 7.89382 11.6268C7.60836 11.3998 7.0359 11.5481 6.60467 12.061C6.10207 12.6571 6.00792 13.4408 6.45282 13.6889Z" fill="#9F2112"/>
<path d="M6.2215 13.5837C6.65425 13.8242 7.33451 13.4399 7.70805 12.8272C8.02996 12.3007 8.03299 11.7439 7.73993 11.5109C7.44688 11.2779 6.85013 11.4202 6.39763 11.93C5.86618 12.5352 5.75989 13.3265 6.2215 13.5837Z" fill="#D23021"/>
<path d="M6.16953 12.8642C6.07387 12.9353 6.22116 13.0714 6.32137 12.9988C6.42159 12.9262 6.26975 12.7946 6.16953 12.8642Z" fill="#F05626"/>
<path d="M6.40937 12.3193C6.28638 12.4041 6.47922 12.5871 6.59766 12.5009C6.7161 12.4147 6.52933 12.2361 6.40937 12.3193Z" fill="#F05626"/>
<path d="M7.18075 11.6413C7.12456 11.6776 7.21871 11.7744 7.27185 11.7381C7.325 11.7018 7.23541 11.605 7.18075 11.6413Z" fill="#F05626"/>
<path d="M7.52684 11.6062C7.46459 11.6485 7.57088 11.7575 7.63162 11.7181C7.69236 11.6788 7.58606 11.5638 7.52684 11.6062Z" fill="#F05626"/>
<path d="M7.51863 12.2706C7.42296 12.3493 7.58999 12.5202 7.68262 12.44C7.77524 12.3599 7.61277 12.1965 7.51863 12.2706Z" fill="#F05626"/>
<path d="M6.94137 11.997C6.84267 12.0651 7.00362 12.2285 7.09321 12.1589C7.1828 12.0893 7.03703 11.9304 6.94137 11.997Z" fill="#F05626"/>
<path d="M6.99118 12.611C6.88034 12.7003 7.06255 12.8773 7.17036 12.788C7.27817 12.6988 7.09899 12.5263 6.99118 12.611Z" fill="#F05626"/>
<path d="M6.62655 12.8441H6.61896C6.60713 12.8506 6.59761 12.8606 6.59169 12.8727C6.58578 12.8847 6.58376 12.8983 6.58593 12.9116C6.58809 12.9249 6.59433 12.9371 6.60378 12.9467C6.61322 12.9563 6.62542 12.9628 6.6387 12.9652C6.69791 12.9833 6.75713 12.9289 6.71917 12.8789V12.8699C6.7095 12.8551 6.69476 12.8444 6.67772 12.8396C6.66068 12.8349 6.64249 12.8365 6.62655 12.8441Z" fill="#F05626"/>
<path d="M6.54357 11.9494C6.44032 12.016 6.60279 12.1779 6.70301 12.1007C6.80322 12.0235 6.64379 11.8843 6.54357 11.9494Z" fill="#F05626"/>
<path d="M7.18213 12.319C7.1214 12.3659 7.22313 12.4703 7.28235 12.4204C7.34157 12.3705 7.24287 12.2782 7.18213 12.319Z" fill="#F05626"/>
<path d="M6.82114 13.0941C6.71485 13.1834 6.88796 13.3452 6.99121 13.2545C7.09446 13.1637 6.9244 13.0064 6.82114 13.0941Z" fill="#F05626"/>
<path d="M6.39789 13.2038C6.31437 13.1585 6.23086 13.2341 6.27034 13.3067C6.27859 13.3185 6.28947 13.3281 6.30212 13.335C6.31477 13.3418 6.32884 13.3456 6.34322 13.3461C6.36121 13.3498 6.37994 13.347 6.39605 13.3382C6.41216 13.3294 6.42461 13.3152 6.43118 13.2981C6.43775 13.281 6.43801 13.2621 6.43191 13.2449C6.42581 13.2276 6.41375 13.2131 6.39789 13.2038Z" fill="#F05626"/>
<path d="M7.46319 11.9647C7.39182 12.0176 7.51482 12.1477 7.58467 12.0918C7.65452 12.0358 7.53304 11.9117 7.46319 11.9647Z" fill="#F05626"/>
<path d="M2.39475 15.7026C2.80017 15.8252 3.28911 15.3698 3.48195 14.7782C3.64746 14.2668 3.53813 13.7918 3.25115 13.6405C2.96417 13.4892 2.49193 13.7343 2.21861 14.2577C1.89518 14.8765 1.962 15.571 2.39475 15.7026Z" fill="#9F2112"/>
<path d="M2.17115 15.6545C2.59024 15.7816 3.10499 15.3217 3.31302 14.7256C3.49219 14.2097 3.39046 13.727 3.09284 13.5818C2.79523 13.4366 2.30933 13.6695 2.01931 14.1961C1.66855 14.8148 1.72625 15.5184 2.17115 15.6545Z" fill="#D23021"/>
<path d="M1.99322 15.0434C1.92338 15.1236 2.07674 15.2128 2.14507 15.1326C2.2134 15.0525 2.06155 14.9662 1.99322 15.0434Z" fill="#F05626"/>
<path d="M2.09494 14.5233C2.00535 14.6186 2.20579 14.7411 2.29234 14.6443C2.37889 14.5475 2.18301 14.4295 2.09494 14.5233Z" fill="#F05626"/>
<path d="M2.63483 13.791C2.59383 13.8333 2.69253 13.8999 2.73353 13.8575C2.77453 13.8152 2.67583 13.7546 2.63483 13.791Z" fill="#F05626"/>
<path d="M2.92969 13.6998C2.88414 13.7482 2.99802 13.8269 3.04205 13.777C3.08609 13.7271 2.97221 13.6514 2.92969 13.6998Z" fill="#F05626"/>
<path d="M3.046 14.2766C2.97767 14.3613 3.15381 14.4778 3.2191 14.3915C3.28439 14.3053 3.11281 14.1933 3.046 14.2766Z" fill="#F05626"/>
<path d="M2.49469 14.1453C2.42332 14.2224 2.59338 14.3329 2.66323 14.2542C2.73308 14.1755 2.56605 14.0696 2.49469 14.1453Z" fill="#F05626"/>
<path d="M2.65502 14.6695C2.57454 14.7663 2.76738 14.8858 2.84179 14.7875C2.91619 14.6891 2.73246 14.5756 2.65502 14.6695Z" fill="#F05626"/>
<path d="M2.38257 14.9388C2.37285 14.9463 2.36587 14.9568 2.36269 14.9686C2.35951 14.9804 2.36031 14.9929 2.36496 15.0043C2.36961 15.0156 2.37786 15.0251 2.38845 15.0313C2.39903 15.0375 2.41137 15.0401 2.42357 15.0387C2.47671 15.0387 2.51771 14.9857 2.47671 14.9494H2.46912C2.45854 14.9373 2.44385 14.9296 2.42788 14.9276C2.4119 14.9257 2.39577 14.9296 2.38257 14.9388Z" fill="#F05626"/>
<path d="M2.14178 14.1826C2.06586 14.2582 2.23744 14.3671 2.31032 14.29C2.38321 14.2128 2.21618 14.1069 2.14178 14.1826Z" fill="#F05626"/>
<path d="M2.76431 14.3817C2.72179 14.4332 2.82808 14.5028 2.8706 14.4498C2.91311 14.3969 2.80834 14.3303 2.76431 14.3817Z" fill="#F05626"/>
<path d="M2.59853 15.1193C2.52261 15.2176 2.70331 15.325 2.77467 15.2267C2.84604 15.1284 2.67142 15.024 2.59853 15.1193Z" fill="#F05626"/>
<path d="M2.25304 15.2927C2.17256 15.2685 2.11486 15.3502 2.16345 15.4046C2.17273 15.4131 2.18389 15.4193 2.19602 15.4228C2.20816 15.4262 2.22092 15.4267 2.2333 15.4243C2.24809 15.4221 2.26177 15.4152 2.27234 15.4047C2.28291 15.3941 2.28981 15.3805 2.29202 15.3658C2.29423 15.351 2.29163 15.336 2.28462 15.3228C2.2776 15.3097 2.26653 15.2991 2.25304 15.2927Z" fill="#F05626"/>
<path d="M2.94011 14.0236C2.88697 14.0826 3.01907 14.1749 3.06918 14.1114C3.11929 14.0478 2.99022 13.9646 2.94011 14.0236Z" fill="#F05626"/>
<path d="M9.48026 17.2139C9.88569 17.338 10.3746 16.8811 10.5659 16.2895C10.733 15.7781 10.6267 15.3001 10.3367 15.1578C10.0466 15.0156 9.57744 15.2516 9.30412 15.7751C8.98069 16.3879 9.04751 17.0823 9.48026 17.2139Z" fill="#9F2112"/>
<path d="M9.26071 17.1663C9.68132 17.2933 10.1961 16.8334 10.4041 16.2373C10.5833 15.7214 10.4815 15.2388 10.1824 15.0935C9.88327 14.9483 9.39737 15.1813 9.10279 15.7078C8.75659 16.3266 8.81277 17.0301 9.26071 17.1663Z" fill="#D23021"/>
<path d="M9.08179 16.5566C9.01194 16.6352 9.1653 16.7245 9.23363 16.6443C9.30196 16.5641 9.15619 16.4779 9.08179 16.5566Z" fill="#F05626"/>
<path d="M9.1835 16.0383C9.09239 16.1336 9.29435 16.2576 9.3809 16.1593C9.46745 16.061 9.27157 15.9445 9.1835 16.0383Z" fill="#F05626"/>
<path d="M9.72339 15.3027C9.6824 15.345 9.78109 15.4116 9.82209 15.3692C9.86309 15.3269 9.76287 15.2664 9.72339 15.3027Z" fill="#F05626"/>
<path d="M10.0155 15.2115C9.9699 15.26 10.0838 15.3386 10.1263 15.2887C10.1688 15.2388 10.0656 15.1631 10.0155 15.2115Z" fill="#F05626"/>
<path d="M10.1348 15.7883C10.0649 15.873 10.2426 15.9895 10.3079 15.9033C10.3732 15.817 10.2016 15.7051 10.1348 15.7883Z" fill="#F05626"/>
<path d="M9.58319 15.6596C9.51182 15.7368 9.68189 15.8487 9.75173 15.7701C9.82158 15.6914 9.65455 15.584 9.58319 15.6596Z" fill="#F05626"/>
<path d="M9.74364 16.1812C9.66316 16.278 9.856 16.3975 9.93041 16.2992C10.0048 16.2008 9.81956 16.0874 9.74364 16.1812Z" fill="#F05626"/>
<path d="M9.47127 16.4507C9.46173 16.4582 9.45486 16.4685 9.45168 16.4801C9.4485 16.4917 9.44918 16.5041 9.45362 16.5153C9.45805 16.5265 9.46601 16.536 9.47631 16.5424C9.4866 16.5487 9.49868 16.5516 9.51074 16.5506C9.56541 16.5506 9.60641 16.4976 9.56541 16.4613C9.56007 16.4543 9.55334 16.4484 9.54564 16.444C9.53794 16.4396 9.52943 16.4368 9.52062 16.4359C9.51181 16.4349 9.50289 16.4357 9.49441 16.4382C9.48592 16.4408 9.47805 16.445 9.47127 16.4507Z" fill="#F05626"/>
<path d="M9.2304 15.6941C9.15448 15.7712 9.32606 15.8787 9.39895 15.8015C9.47183 15.7243 9.30784 15.6184 9.2304 15.6941Z" fill="#F05626"/>
<path d="M9.85119 15.8928C9.80716 15.9443 9.91497 16.0138 9.95748 15.9624C10 15.911 9.89371 15.8414 9.85119 15.8928Z" fill="#F05626"/>
<path d="M9.68709 16.631C9.61117 16.7293 9.79187 16.8368 9.86323 16.7384C9.9346 16.6401 9.76302 16.5357 9.68709 16.631Z" fill="#F05626"/>
<path d="M9.34154 16.8044C9.26106 16.7817 9.20336 16.8619 9.25195 16.9164C9.26094 16.9248 9.27183 16.931 9.28372 16.9345C9.29561 16.9379 9.30814 16.9384 9.32028 16.936C9.33517 16.9341 9.34903 16.9274 9.3598 16.9169C9.37056 16.9065 9.37767 16.8929 9.38006 16.8781C9.38244 16.8633 9.37998 16.8482 9.37305 16.8349C9.36611 16.8216 9.35506 16.8109 9.34154 16.8044Z" fill="#F05626"/>
<path d="M10.0263 15.5353C9.97467 15.5943 10.1068 15.6866 10.1554 15.6231C10.2039 15.5596 10.0779 15.4763 10.0263 15.5353Z" fill="#F05626"/>
<path d="M5.60276 16.9473C5.44195 16.9891 5.29321 17.0678 5.16848 17.1773C5.16848 17.1773 5.47217 17.56 5.09864 17.6735C4.7251 17.787 4.77976 17.4208 4.77976 17.4208C4.77976 17.4208 4.41534 17.678 4.27868 17.3543C4.14202 17.0305 4.59907 16.9806 4.59907 16.9806C4.59907 16.9806 4.26349 16.8429 4.54289 16.6265C4.87391 16.3708 5.04549 16.8868 5.04549 16.8868C5.19041 16.8311 5.33057 16.7638 5.46458 16.6855L5.60276 16.9473Z" fill="#9C7123"/>
<path d="M5.55832 16.887C5.39764 16.9299 5.24904 17.0091 5.12405 17.1185C5.12405 17.1185 5.42774 17.5013 5.0542 17.6148C4.68067 17.7282 4.73685 17.3651 4.73685 17.3651C4.73685 17.3651 4.3709 17.6238 4.23424 17.3001C4.09759 16.9763 4.55464 16.9218 4.55464 16.9218C4.55464 16.9218 4.21906 16.7841 4.49997 16.5663C4.83099 16.3106 5.00106 16.828 5.00106 16.828C5.14606 16.7714 5.28665 16.7042 5.42166 16.6268L5.55832 16.887Z" fill="#EDEBC1"/>
<path d="M3.11872 11.9044C3.22612 11.7779 3.30253 11.6282 3.34193 11.4672C3.34193 11.4672 2.87122 11.3265 3.11265 11.0133C3.35408 10.7001 3.51656 11.036 3.51656 11.036C3.51656 11.036 3.6684 10.6169 3.97209 10.8045C4.27577 10.9921 3.92805 11.2962 3.92805 11.2962C3.92805 11.2962 4.28185 11.2175 4.17708 11.5564C4.05256 11.9543 3.61525 11.6291 3.61525 11.6291C3.5277 11.7595 3.45053 11.8966 3.38445 12.0391L3.11872 11.9044Z" fill="#9C7123"/>
<path d="M3.18849 11.93C3.29643 11.8036 3.37337 11.6539 3.41322 11.4928C3.41322 11.4928 2.94251 11.3536 3.18394 11.0389C3.42537 10.7242 3.58784 11.0616 3.58784 11.0616C3.58784 11.0616 3.73969 10.641 4.04338 10.8286C4.34706 11.0162 3.99782 11.3203 3.99782 11.3203C3.99782 11.3203 4.35314 11.2431 4.24685 11.5805C4.12385 11.9784 3.68654 11.6531 3.68654 11.6531C3.59924 11.7819 3.52256 11.9175 3.45726 12.0586L3.18849 11.93Z" fill="#EDEBC1"/>
<path d="M9.71902 9.50781C9.63623 9.36416 9.52077 9.24187 9.38193 9.15076C9.38193 9.15076 9.09039 9.54412 8.88236 9.21279C8.67434 8.88145 9.03421 8.84211 9.03421 8.84211C9.03421 8.84211 8.68952 8.55768 8.9674 8.34284C9.24527 8.128 9.42293 8.55163 9.42293 8.55163C9.42293 8.55163 9.47 8.19306 9.75243 8.40033C10.0865 8.65148 9.63095 8.94953 9.63095 8.94953C9.72256 9.07495 9.82411 9.19283 9.93464 9.30205L9.71902 9.50781Z" fill="#9C7123"/>
<path d="M9.76238 9.45312C9.67977 9.30893 9.5643 9.1861 9.42528 9.09456C9.42528 9.09456 9.13374 9.48792 8.92572 9.1581C8.71769 8.82828 9.08515 8.78592 9.08515 8.78592C9.08515 8.78592 8.74047 8.50299 9.01682 8.28664C9.29318 8.07029 9.47235 8.49543 9.47235 8.49543C9.47235 8.49543 9.51791 8.13686 9.80186 8.34413C10.1359 8.59528 9.68038 8.89485 9.68038 8.89485C9.77246 9.01941 9.87398 9.13676 9.98407 9.24585L9.76238 9.45312Z" fill="#EDEBC1"/>
<path d="M3.81726 24.1016C3.7301 23.9708 3.60884 23.8662 3.4665 23.799C3.4665 23.799 3.18104 24.1954 2.94871 23.9185C2.68906 23.6068 3.08386 23.5221 3.08386 23.5221C3.08386 23.5221 2.67084 23.2543 2.96086 22.9366C3.30403 22.5614 3.51206 23.1212 3.51206 23.1212C3.51206 23.1212 3.57279 22.6264 3.93114 22.867C4.33201 23.1348 3.74741 23.563 3.74741 23.563C3.84363 23.6817 3.95091 23.7911 4.0678 23.8897L3.81726 24.1016Z" fill="#9C7123"/>
<path d="M3.86794 24.043C3.78142 23.9092 3.65951 23.8019 3.51566 23.7328C3.51566 23.7328 3.2226 24.1398 2.99028 23.8554C2.72911 23.5376 3.12846 23.4499 3.12846 23.4499C3.12846 23.4499 2.7124 23.176 3.0085 22.8447C3.36078 22.4574 3.56729 23.0323 3.56729 23.0323C3.56729 23.0323 3.63258 22.524 3.99549 22.7706C4.40091 23.0444 3.80264 23.4847 3.80264 23.4847C3.89864 23.6064 4.00647 23.7184 4.12455 23.8191L3.86794 24.043Z" fill="#EDEBC1"/>
<path d="M12.4649 13.2109C12.3042 13.1684 12.1358 13.1637 11.9729 13.1973C11.9729 13.1973 12.0489 13.6814 11.6693 13.5952C11.2896 13.5089 11.5174 13.2215 11.5174 13.2215C11.5174 13.2215 11.0725 13.2669 11.1135 12.9189C11.1545 12.5709 11.5797 12.7479 11.5797 12.7479C11.5797 12.7479 11.3565 12.4635 11.7072 12.4121C12.1218 12.353 12.0109 12.8856 12.0109 12.8856C12.1647 12.9087 12.3201 12.9194 12.4755 12.9174L12.4649 13.2109Z" fill="#9C7123"/>
<path d="M12.4543 13.1367C12.2936 13.0942 12.1252 13.0895 11.9623 13.1231C11.9623 13.1231 12.0382 13.6072 11.6586 13.521C11.279 13.4347 11.5068 13.1488 11.5068 13.1488C11.5068 13.1488 11.0619 13.1926 11.1029 12.8462C11.1439 12.4997 11.569 12.6737 11.569 12.6737C11.569 12.6737 11.3458 12.3893 11.6966 12.3393C12.1111 12.2788 12.0003 12.8114 12.0003 12.8114C12.1546 12.8345 12.3105 12.8451 12.4664 12.8432L12.4543 13.1367Z" fill="#EDEBC1"/>
<path d="M2.53074 17.1184C2.50189 17.2515 2.42901 17.2697 2.33334 17.3393C2.26443 17.3931 2.19994 17.4523 2.1405 17.5163C2.02966 17.6328 1.9097 17.8612 2.06003 17.9898C2.07556 18.0015 2.09448 18.0078 2.11393 18.0078C2.13338 18.0078 2.1523 18.0015 2.16784 17.9898C2.2266 17.9307 2.26853 17.8571 2.28931 17.7765C2.33966 17.6905 2.40146 17.6116 2.47304 17.542C2.51761 17.4832 2.54712 17.4144 2.55902 17.3416C2.57093 17.2689 2.56487 17.1943 2.54137 17.1244C2.54137 17.1244 2.53226 17.1184 2.53074 17.1184Z" fill="#F7AB3F"/>
<path d="M2.33353 18.9337C2.28537 18.9712 2.24935 19.022 2.22996 19.0797C2.21056 19.1374 2.20866 19.1996 2.22447 19.2584C2.24029 19.3172 2.27313 19.3701 2.3189 19.4104C2.36467 19.4508 2.42135 19.4768 2.48186 19.4853C2.54238 19.4937 2.60406 19.4843 2.65921 19.458C2.71436 19.4318 2.76054 19.39 2.792 19.3378C2.82347 19.2856 2.83881 19.2253 2.83613 19.1645C2.83344 19.1037 2.81285 19.045 2.77691 18.9957C2.75208 18.9624 2.72084 18.9343 2.68502 18.9131C2.6492 18.8919 2.6095 18.8781 2.56825 18.8723C2.52699 18.8665 2.48499 18.869 2.4447 18.8795C2.4044 18.8901 2.36661 18.9085 2.33353 18.9337Z" fill="#F7AB3F"/>
<path d="M5.34258 14.1768C5.30649 14.2062 5.28323 14.2484 5.27766 14.2945C5.27209 14.3407 5.28464 14.3872 5.31269 14.4243C5.34074 14.4615 5.38211 14.4863 5.42815 14.4938C5.47419 14.5012 5.52133 14.4906 5.55972 14.4642C5.5958 14.4348 5.61907 14.3926 5.62464 14.3464C5.63021 14.3003 5.61766 14.2538 5.58961 14.2167C5.56156 14.1795 5.52019 14.1546 5.47415 14.1472C5.42811 14.1398 5.38097 14.1504 5.34258 14.1768Z" fill="#F7AB3F"/>
<path d="M9.58961 12.7488C9.45447 12.829 9.21 12.8169 9.09612 12.9334C8.83656 13.2316 8.62548 13.5686 8.47052 13.9319C8.23516 14.4024 8.18506 14.9108 7.83733 15.3238C7.57464 15.6355 7.25122 15.7777 7.05078 16.1287C7.05078 16.1363 7.06141 16.1453 7.06597 16.1378C7.31955 15.7565 7.69764 15.7323 7.97703 15.4358C8.18125 15.2235 8.33669 14.9695 8.43256 14.6914C8.59391 14.2572 8.79733 13.8396 9.03994 13.4447C9.21152 13.1724 9.49547 13.1421 9.75208 12.9787C9.91456 12.8743 9.74601 12.658 9.58961 12.7488Z" fill="#F7AB3F"/>
<path d="M9.96423 12.2641L9.93993 12.311C9.92342 12.3451 9.9152 12.3826 9.91594 12.4204C9.91668 12.4582 9.92637 12.4953 9.94421 12.5287C9.96205 12.5621 9.98755 12.5909 10.0186 12.6126C10.0497 12.6343 10.0855 12.6484 10.1231 12.6538C10.1607 12.6592 10.199 12.6556 10.2349 12.6435C10.2709 12.6313 10.3035 12.6109 10.33 12.5838C10.3565 12.5568 10.3763 12.5239 10.3877 12.4878C10.399 12.4517 10.4017 12.4134 10.3955 12.3761L10.3848 12.3247C10.3761 12.2789 10.3532 12.2369 10.3194 12.2047C10.2856 12.1725 10.2425 12.1516 10.1962 12.1449C10.1499 12.1383 10.1026 12.1462 10.0611 12.1676C10.0195 12.1889 9.98563 12.2227 9.96423 12.2641Z" fill="#F7AB3F"/>
<path d="M2.8766 7.11477C2.82833 7.15054 2.79181 7.19978 2.77167 7.25626C2.75154 7.31274 2.74868 7.37391 2.76348 7.432C2.77828 7.4901 2.81006 7.5425 2.85479 7.58258C2.89953 7.62265 2.95519 7.64859 3.01474 7.65709C3.07428 7.6656 3.13502 7.65629 3.18925 7.63036C3.24348 7.60442 3.28876 7.56302 3.31935 7.51141C3.34993 7.4598 3.36444 7.4003 3.36104 7.34045C3.35764 7.28061 3.33648 7.22313 3.30024 7.17528C3.25194 7.11152 3.1803 7.06937 3.10094 7.05803C3.02157 7.0467 2.94093 7.06709 2.8766 7.11477Z" fill="#F7AB3F"/>
<path d="M2.51548 8.62095C2.47984 8.64743 2.45622 8.68694 2.44981 8.73077C2.4434 8.77461 2.45474 8.81919 2.48131 8.8547C2.50789 8.89021 2.54754 8.91375 2.59154 8.92013C2.63553 8.92651 2.68027 8.91522 2.71591 8.88874C2.75155 8.86226 2.77518 8.82275 2.78158 8.77891C2.78799 8.73508 2.77666 8.6905 2.75008 8.65499C2.7235 8.61948 2.68385 8.59594 2.63985 8.58956C2.59586 8.58317 2.55112 8.59446 2.51548 8.62095Z" fill="#F7AB3F"/>
<path d="M2.74622 9.50281C2.64297 9.61326 2.66574 9.73581 2.65208 9.87802C2.64415 9.92982 2.62478 9.97921 2.59537 10.0226C2.56596 10.0661 2.52724 10.1025 2.48201 10.1292C2.41987 10.1868 2.3716 10.2576 2.3408 10.3365C2.33207 10.3577 2.32902 10.3809 2.33195 10.4037C2.33488 10.4265 2.34368 10.4482 2.3575 10.4666L2.37724 10.4893C2.38934 10.5041 2.40577 10.5149 2.42427 10.52C2.44277 10.5252 2.46242 10.5245 2.48049 10.518C2.58375 10.4877 2.60045 10.3879 2.66119 10.3107C2.72021 10.2302 2.76821 10.1422 2.80392 10.049C2.8677 9.88408 2.80392 9.68437 2.79026 9.51491C2.78874 9.49222 2.75989 9.48919 2.74622 9.50281Z" fill="#F7AB3F"/>
<path d="M2.16955 11.7028C2.12284 11.7377 2.09195 11.7897 2.0837 11.8473C2.07544 11.9049 2.09048 11.9634 2.12552 12.0099C2.16055 12.0565 2.21271 12.0872 2.27052 12.0955C2.32833 12.1037 2.38705 12.0887 2.43376 12.0538C2.48048 12.0189 2.51136 11.9669 2.51962 11.9093C2.52787 11.8517 2.51283 11.7932 2.4778 11.7467C2.44276 11.7001 2.3906 11.6693 2.33279 11.6611C2.27499 11.6529 2.21627 11.6679 2.16955 11.7028Z" fill="#F7AB3F"/>
<path d="M7.23675 7.47984C7.19209 7.51292 7.15829 7.55846 7.13965 7.61071C7.121 7.66295 7.11835 7.71954 7.13203 7.77329C7.14571 7.82703 7.17511 7.87552 7.21648 7.9126C7.25786 7.94967 7.30936 7.97367 7.36445 7.98154C7.41953 7.98941 7.47572 7.9808 7.52589 7.95681C7.57606 7.93281 7.61795 7.89451 7.64624 7.84676C7.67452 7.79901 7.68794 7.74396 7.68479 7.68861C7.68163 7.63325 7.66204 7.58007 7.62851 7.53582C7.58359 7.4772 7.51738 7.43849 7.44412 7.42802C7.37085 7.41755 7.29639 7.43616 7.23675 7.47984Z" fill="#F7AB3F"/>
<path d="M7.09179 8.72881C6.89439 8.93155 7.00068 9.1827 7.02801 9.42779C7.05686 9.6971 6.79873 9.82418 6.83062 10.0859C6.83202 10.0975 6.83645 10.1085 6.84347 10.1179C6.8505 10.1272 6.85986 10.1346 6.87063 10.1391C6.8814 10.1437 6.89319 10.1454 6.90482 10.1441C6.91645 10.1427 6.92752 10.1383 6.93691 10.1313C7.03119 10.074 7.10969 9.99416 7.16535 9.89909C7.22101 9.80402 7.25208 9.69665 7.25578 9.58665C7.24996 9.45397 7.22066 9.32337 7.16923 9.20085C7.11911 9.05467 7.11122 8.8974 7.14645 8.74697C7.14645 8.74062 7.14445 8.73443 7.14072 8.72927C7.13699 8.72412 7.13173 8.72027 7.12569 8.71826C7.11964 8.71625 7.11311 8.71619 7.10703 8.71808C7.10094 8.71998 7.09561 8.72373 7.09179 8.72881Z" fill="#F7AB3F"/>
<path d="M15.6069 7.77297C15.5537 7.81263 15.5136 7.8671 15.4915 7.92951C15.4694 7.99192 15.4664 8.05945 15.4829 8.12355C15.4994 8.18765 15.5345 8.24544 15.584 8.28961C15.6334 8.33378 15.6949 8.36233 15.7607 8.37166C15.8264 8.38099 15.8935 8.37067 15.9533 8.34201C16.0132 8.31335 16.0632 8.26764 16.0969 8.21067C16.1307 8.15369 16.1467 8.08802 16.143 8.02195C16.1393 7.95589 16.116 7.8924 16.0761 7.83954C16.0224 7.76916 15.943 7.72269 15.8552 7.71023C15.7674 7.69777 15.6781 7.72031 15.6069 7.77297Z" fill="#F7AB3F"/>
<path d="M14.9263 9.13046C14.8964 9.15271 14.8712 9.18061 14.8521 9.21258C14.833 9.24454 14.8204 9.27994 14.8151 9.31675C14.8097 9.35355 14.8117 9.39105 14.8209 9.4271C14.8301 9.46315 14.8463 9.49705 14.8686 9.52685C14.891 9.55665 14.919 9.58178 14.951 9.6008C14.9831 9.61982 15.0186 9.63235 15.0556 9.63769C15.0925 9.64303 15.1302 9.64107 15.1663 9.63191C15.2025 9.62276 15.2365 9.60659 15.2665 9.58434C15.3257 9.53851 15.3647 9.47149 15.3752 9.39749C15.3857 9.3235 15.3668 9.24834 15.3226 9.18795C15.2776 9.12813 15.2106 9.0885 15.1364 9.07773C15.0621 9.06696 14.9866 9.08591 14.9263 9.13046Z" fill="#F7AB3F"/>
<path d="M15.1091 10.4224C14.8055 10.4224 14.6627 10.613 14.4365 10.7991C13.9369 11.2137 13.5482 10.9913 13.0167 10.8385C12.7805 10.7826 12.5322 10.8091 12.3131 10.9134C12.094 11.0177 11.9174 11.1936 11.8126 11.4119C11.804 11.434 11.8012 11.4579 11.8044 11.4814C11.8076 11.5048 11.8169 11.5271 11.8311 11.546C11.8454 11.565 11.8644 11.58 11.8861 11.5896C11.9078 11.5992 11.9317 11.6031 11.9553 11.601C12.3957 11.5511 12.6781 11.2228 13.1473 11.4194C13.4014 11.5404 13.6869 11.5795 13.9642 11.5314C14.4198 11.4588 15.012 10.9398 15.1911 10.5313C15.1961 10.5186 15.1977 10.5049 15.1959 10.4914C15.194 10.4779 15.1887 10.4651 15.1805 10.4542C15.1723 10.4433 15.1614 10.4346 15.149 10.4291C15.1365 10.4235 15.1228 10.4212 15.1091 10.4224Z" fill="#F7AB3F"/>
<path d="M6.90842 17.6959C6.91753 17.6475 6.85527 17.6308 6.82642 17.6611C6.55614 17.9485 6.78239 18.2662 7.08152 18.4175C7.29494 18.4894 7.52012 18.5202 7.74508 18.5083C7.8837 18.5112 8.02101 18.5357 8.15202 18.5809C8.28868 18.6324 8.33575 18.6959 8.48608 18.6626C8.51954 18.6585 8.55004 18.6414 8.57104 18.6151C8.59204 18.5888 8.60188 18.5554 8.59844 18.5219C8.47848 17.6641 6.7095 18.7353 6.90842 17.6959Z" fill="#F7AB3F"/>
<path d="M6.57392 19.3166C6.5216 19.3614 6.4883 19.4243 6.48076 19.4925C6.47322 19.5608 6.492 19.6294 6.5333 19.6844C6.57461 19.7394 6.63534 19.7767 6.70322 19.7888C6.77109 19.8008 6.84102 19.7867 6.89886 19.7493C6.95118 19.7046 6.98448 19.6417 6.99202 19.5734C6.99956 19.5052 6.98077 19.4366 6.93947 19.3816C6.89817 19.3266 6.83743 19.2893 6.76956 19.2772C6.70169 19.2652 6.63175 19.2793 6.57392 19.3166Z" fill="#F7AB3F"/>
<path d="M1.88904 22.0631C1.87747 22.0541 1.86323 22.0491 1.84853 22.0489C1.83382 22.0488 1.81947 22.0535 1.80771 22.0622C1.79594 22.071 1.78742 22.0835 1.78345 22.0976C1.77949 22.1117 1.78031 22.1267 1.78579 22.1403C1.92245 22.4898 1.72961 22.8196 1.71442 23.1706C1.69924 23.5216 1.75086 24.0496 1.92852 24.3432C1.94022 24.3585 1.95573 24.3705 1.97352 24.378C1.99131 24.3855 2.01076 24.3882 2.02994 24.3859C2.04912 24.3836 2.06737 24.3764 2.08287 24.3649C2.09838 24.3534 2.1106 24.3381 2.11833 24.3205C2.15104 24.2466 2.16794 24.1667 2.16794 24.0859C2.16794 24.0052 2.15104 23.9253 2.11833 23.8514C2.03481 23.5489 1.91637 23.2871 1.96648 22.9603C2.01811 22.691 2.15781 22.2628 1.88904 22.0631Z" fill="#F7AB3F"/>
<path d="M3.01843 24.7113C2.98758 24.7422 2.96881 24.783 2.96549 24.8265C2.96218 24.87 2.97453 24.9132 3.00034 24.9484C3.02615 24.9836 3.06371 25.0084 3.10627 25.0185C3.14884 25.0286 3.19361 25.0232 3.23253 25.0033C3.26338 24.9724 3.28215 24.9315 3.28547 24.888C3.28879 24.8446 3.27643 24.8014 3.25062 24.7662C3.22482 24.731 3.18726 24.7061 3.14469 24.696C3.10213 24.686 3.05736 24.6914 3.01843 24.7113Z" fill="#F7AB3F"/>
<path d="M4.69117 13.6315C4.59333 13.7332 4.51143 13.8489 4.44822 13.9749C4.36108 14.0912 4.28675 14.2165 4.22652 14.3486C4.11872 14.6104 4.22652 14.866 4.32067 15.1051C4.32067 15.1083 4.32195 15.1114 4.32423 15.1136C4.3265 15.1159 4.32959 15.1172 4.33282 15.1172C4.33604 15.1172 4.33913 15.1159 4.3414 15.1136C4.34368 15.1114 4.34496 15.1083 4.34496 15.1051C4.3313 14.7798 4.32978 14.4863 4.5378 14.2185C4.66535 14.0551 4.86275 13.8887 4.79594 13.6632C4.79209 13.6535 4.78607 13.6447 4.77833 13.6376C4.77059 13.6305 4.76134 13.6252 4.75126 13.6221C4.74119 13.6191 4.73055 13.6183 4.72014 13.6199C4.70973 13.6216 4.69983 13.6255 4.69117 13.6315Z" fill="#F7AB3F"/>
<path d="M5.02417 12.8163C4.99123 12.8123 4.95781 12.8157 4.92637 12.8263C4.89493 12.8369 4.86628 12.8544 4.84253 12.8775C4.81877 12.9005 4.80052 12.9287 4.78912 12.9597C4.77773 12.9908 4.77347 13.024 4.77667 13.0569V13.0841C4.78278 13.1303 4.80392 13.1732 4.83684 13.2064C4.86977 13.2395 4.91267 13.2609 4.95898 13.2674C5.0053 13.274 5.05248 13.2652 5.09332 13.2425C5.13416 13.2197 5.1664 13.1843 5.18513 13.1416L5.19424 13.1174C5.20646 13.0866 5.21164 13.0535 5.20938 13.0205C5.20713 12.9874 5.1975 12.9553 5.18121 12.9265C5.16491 12.8976 5.14236 12.8728 5.11519 12.8537C5.08802 12.8346 5.05693 12.8219 5.02417 12.8163Z" fill="#F7AB3F"/>
<path d="M6.27019 6.73587C6.09557 6.69956 5.96651 6.53162 5.80707 6.44992C5.48972 6.2835 5.00685 6.13523 4.67583 6.33796C4.64091 6.35914 4.66065 6.41361 4.69709 6.41966C5.0357 6.4711 5.50035 6.41966 5.76 6.71469C5.89666 6.87658 6.03028 7.08839 6.27323 7.05511C6.3085 7.05033 6.34128 7.03436 6.36672 7.00956C6.39216 6.98476 6.40889 6.95245 6.41445 6.91743C6.41719 6.89603 6.41562 6.8743 6.40982 6.85351C6.40402 6.83273 6.39411 6.81331 6.38067 6.7964C6.36723 6.77948 6.35054 6.76541 6.33157 6.75502C6.31259 6.74463 6.29173 6.73812 6.27019 6.73587Z" fill="#F7AB3F"/>
<path d="M7.45416 6.37682C7.42886 6.36609 7.40235 6.35847 7.3752 6.35412C7.33527 6.34937 7.29478 6.3549 7.2576 6.37017C7.22042 6.38544 7.18779 6.40994 7.16282 6.44135C7.13785 6.47276 7.12137 6.51001 7.11495 6.54957C7.10854 6.58913 7.1124 6.62966 7.12618 6.6673C7.13937 6.70358 7.16212 6.73565 7.19204 6.76015C7.22197 6.78464 7.25796 6.80065 7.29624 6.80649C7.30938 6.81212 7.32314 6.81618 7.33724 6.8186C7.38246 6.82439 7.42835 6.81543 7.46804 6.79307C7.50773 6.7707 7.53909 6.73614 7.55741 6.69454C7.5726 6.66807 7.58192 6.63866 7.58474 6.6083C7.59037 6.56091 7.58076 6.51297 7.55729 6.47137C7.53382 6.42977 7.49771 6.39666 7.45416 6.37682Z" fill="#F7AB3F"/>
<path d="M15.3526 6.5818C14.8379 6.68165 14.4415 6.94188 13.8858 6.92221C13.5001 6.9086 13.2405 6.86623 12.9353 7.14159C12.917 7.15975 12.9353 7.19606 12.9596 7.18395C13.4151 6.97819 13.9268 7.21875 14.4112 7.21875C14.8257 7.21875 15.2463 7.07653 15.4483 6.70737C15.4546 6.69265 15.4568 6.67652 15.4549 6.66064C15.4529 6.64476 15.4467 6.62967 15.437 6.61692C15.4273 6.60417 15.4144 6.59421 15.3996 6.58804C15.3847 6.58187 15.3685 6.57972 15.3526 6.5818Z" fill="#F7AB3F"/>
<path d="M10.5055 7.22182C10.4547 7.26025 10.4164 7.31279 10.3954 7.37285C10.3745 7.4329 10.3719 7.49778 10.3879 7.55931C10.4039 7.62085 10.4378 7.6763 10.4853 7.71869C10.5329 7.76107 10.5919 7.7885 10.6551 7.79752C10.7183 7.80654 10.7827 7.79675 10.8403 7.76938C10.8978 7.742 10.946 7.69827 10.9787 7.64369C11.0114 7.58911 11.0272 7.52611 11.024 7.46261C11.0209 7.39912 10.9989 7.33798 10.961 7.28688C10.9091 7.2183 10.832 7.17297 10.7467 7.16078C10.6614 7.14859 10.5746 7.17053 10.5055 7.22182Z" fill="#F7AB3F"/>
<path d="M9.61105 6.52719C9.5857 6.51588 9.55819 6.51015 9.53042 6.5104C9.50264 6.51066 9.47524 6.51689 9.45011 6.52867C9.42497 6.54046 9.40268 6.55751 9.38478 6.57867C9.36687 6.59983 9.35376 6.6246 9.34635 6.65127C9.33893 6.67795 9.33739 6.7059 9.34183 6.73323C9.34627 6.76055 9.35658 6.7866 9.37205 6.80959C9.38753 6.83257 9.40781 6.85196 9.4315 6.86641C9.45519 6.88086 9.48173 6.89005 9.50932 6.89333C9.53823 6.89658 9.5675 6.89322 9.5949 6.8835C9.62231 6.87378 9.64714 6.85796 9.66749 6.83725C9.68784 6.81653 9.70318 6.79147 9.71234 6.76396C9.72151 6.73645 9.72426 6.70722 9.72038 6.67849C9.71528 6.64652 9.70274 6.61618 9.68375 6.5899C9.66477 6.56363 9.63987 6.54215 9.61105 6.52719Z" fill="#F7AB3F"/>
<path d="M17.6381 6.13231C17.5106 6.35774 17.1704 6.35774 16.9624 6.47726C16.9135 6.50176 16.8701 6.53606 16.8351 6.57801C16.8001 6.61996 16.7742 6.66867 16.7589 6.72108C16.7437 6.77348 16.7394 6.82846 16.7465 6.88258C16.7535 6.93669 16.7717 6.98876 16.7999 7.03554C16.8014 7.13024 16.809 7.22474 16.8227 7.31846C16.8369 7.52643 16.8404 7.73498 16.8333 7.94331C16.834 7.94634 16.8354 7.94921 16.8372 7.95171C16.8391 7.95422 16.8414 7.95632 16.8441 7.95788C16.8468 7.95944 16.8498 7.96043 16.8529 7.96079C16.8561 7.96114 16.8592 7.96086 16.8622 7.95995C17.0717 7.88581 17.1279 7.64677 17.1492 7.44857C17.1618 7.33554 17.1684 7.2219 17.1689 7.10816C17.1689 6.98107 17.2038 6.86155 17.1249 6.75111C17.1147 6.73517 17.1006 6.72214 17.0839 6.71328C17.1743 6.64879 17.2698 6.59162 17.3693 6.54232C17.4486 6.50598 17.5166 6.44899 17.566 6.37735C17.6155 6.30571 17.6446 6.2221 17.6503 6.13534C17.6503 6.12777 17.6411 6.12777 17.6381 6.13231Z" fill="#F7AB3F"/>
<g style="mix-blend-mode:soft-light">
<path d="M5.50993 1.14088C5.50993 1.14088 3.46308 1.59476 2.86937 2.04865C2.27566 2.50253 2.36373 3.45266 2.38195 3.60547C2.38195 3.60547 3.47522 3.1773 5.70125 2.73098C5.70125 2.73098 4.50321 2.40419 3.82143 2.66441C3.13965 2.92464 2.96199 2.75519 3.10472 2.42688C3.24746 2.09857 4.68238 1.46011 5.50993 1.14088Z" fill="white"/>
</g>
<g style="mix-blend-mode:soft-light">
<path d="M13.5582 0.968821C13.5582 0.968821 16.3613 1.06262 17.9313 1.39698C19.5014 1.73135 21.1018 2.04452 20.9454 2.93867C20.789 3.83282 18.2669 1.97341 16.917 1.66931C15.5671 1.36521 13.5582 0.968821 13.5582 0.968821Z" fill="white"/>
</g>
</g>
<defs>
<clipPath id="clip0">
<rect width="26" height="21" fill="white" transform="translate(0.5 26.5) rotate(-90)"/>
</clipPath>
</defs>
</svg>
