<svg width="28" height="27" viewBox="0 0 28 27" fill="none" xmlns="http://www.w3.org/2000/svg">
<path fill-rule="evenodd" clip-rule="evenodd" d="M12.0364 0.785902L9.92729 2.81793C9.75698 2.98222 9.52611 3.07476 9.28521 3.0753H5.96656C4.4323 3.0753 3.1892 4.274 3.1892 5.75347V8.95359C3.1892 9.18757 3.09215 9.40895 2.92229 9.57454L0.813143 11.6066C0.292487 12.1088 0 12.7899 0 13.5C0 14.2101 0.292487 14.8912 0.813143 15.3934L2.92229 17.4273C3.09267 17.5915 3.18864 17.8141 3.1892 18.0464V21.2465C3.1892 22.726 4.4323 23.9247 5.96656 23.9247H9.28521C9.52785 23.9247 9.75743 24.0183 9.92915 24.1821L12.0364 26.2159C12.5573 26.718 13.2636 27 14 27C14.7364 27 15.4427 26.718 15.9636 26.2159L18.0727 24.1821C18.243 24.0178 18.4739 23.9252 18.7148 23.9247H22.0334C23.5677 23.9247 24.8108 22.726 24.8108 21.2465V18.0464C24.8108 17.8124 24.9079 17.591 25.0777 17.4255L27.1869 15.3934C27.7075 14.8912 28 14.2101 28 13.5C28 12.7899 27.7075 12.1088 27.1869 11.6066L25.0777 9.57274C24.9073 9.40851 24.8114 9.18589 24.8108 8.95359V5.75347C24.8108 4.274 23.5677 3.0753 22.0334 3.0753H18.7148C18.4732 3.07524 18.2416 2.98266 18.0708 2.81793L15.9636 0.784102C15.4427 0.282041 14.7364 0 14 0C13.2636 0 12.5573 0.282041 12.0364 0.784102V0.785902ZM8.67299 17.3625L18.0055 8.36325L19.327 9.63754L9.99448 18.6368L8.67299 17.3625ZM9.33374 9.00039V10.8002H11.2002V9.00039H9.33374ZM16.7998 17.9996H18.6663V16.1998H16.7998V17.9996Z" fill="#26283A"/>
</svg>
