<svg width="37" height="40" viewBox="0 0 37 40" fill="none" xmlns="http://www.w3.org/2000/svg">
<path d="M11.9611 9.97957L11.2295 9.66244C11.2068 9.65052 11.1815 9.64507 11.1561 9.64665C11.1308 9.64823 11.1064 9.65679 11.0855 9.67143C11.0647 9.68606 11.0481 9.70622 11.0376 9.72979C11.027 9.75336 11.0229 9.77947 11.0257 9.80535L11.4957 18.3806L12.5106 18.3546L12.0538 10.1182C12.0532 10.0885 12.0441 10.0595 12.0277 10.0348C12.0112 10.0102 11.9881 9.99097 11.9611 9.97957Z" fill="#F8C534"/>
<path d="M12.5949 18.4314L11.4276 18.4621L10.9451 9.81125C10.9428 9.75024 10.9642 9.69102 11.0046 9.6465C11.045 9.60199 11.101 9.57579 11.1606 9.57363C11.1926 9.57321 11.2244 9.57966 11.254 9.59256L11.9857 9.90889C12.0253 9.92616 12.0593 9.95467 12.0838 9.99103C12.1082 10.0274 12.122 10.0701 12.1236 10.114L12.5949 18.4314ZM11.5718 18.3003L12.4287 18.2807L11.9661 10.1214C11.9659 10.1074 11.9617 10.0936 11.954 10.0819C11.9463 10.0702 11.9355 10.061 11.9228 10.0555L11.1912 9.73919C11.1803 9.73432 11.1685 9.73236 11.1568 9.73349C11.1451 9.73461 11.1338 9.73879 11.1242 9.74563C11.1145 9.75247 11.1068 9.76173 11.1016 9.77254C11.0965 9.78336 11.0942 9.79536 11.0948 9.80742L11.5718 18.3003Z" fill="#F3A037"/>
<path d="M20.8834 9.93131L20.1518 9.61414C20.1291 9.60222 20.1038 9.59677 20.0784 9.59835C20.0531 9.59993 20.0287 9.60848 20.0078 9.62312C19.9869 9.63775 19.9704 9.65791 19.9598 9.68148C19.9493 9.70505 19.9452 9.73115 19.948 9.75703L20.4175 18.3324L21.433 18.3078L20.9704 10.0678C20.9698 10.0391 20.9613 10.0111 20.9459 9.98695C20.9305 9.96283 20.9089 9.94355 20.8834 9.93131Z" fill="#F8C534"/>
<path d="M21.517 18.3807L20.3497 18.4113L19.8672 9.76049C19.8649 9.69949 19.8863 9.64027 19.9267 9.59575C19.9671 9.55124 20.0231 9.52504 20.0827 9.52288C20.1147 9.52246 20.1466 9.52891 20.1761 9.54181L20.9078 9.85813C20.9474 9.87541 20.9815 9.90391 21.0059 9.94028C21.0303 9.97664 21.0442 10.0193 21.0457 10.0633L21.517 18.3807ZM20.4945 18.2508L21.3598 18.2258L20.8972 10.0665C20.897 10.0525 20.8928 10.0387 20.8851 10.027C20.8774 10.0153 20.8665 10.0062 20.8539 10.0006L20.1222 9.6843C20.1114 9.67984 20.0997 9.67818 20.0881 9.67948C20.0765 9.68079 20.0655 9.685 20.056 9.69176C20.0464 9.69852 20.0387 9.7076 20.0335 9.71821C20.0282 9.72881 20.0256 9.7406 20.0259 9.75253L20.4945 18.2508Z" fill="#F3A037"/>
<path d="M10.6999 11.1805L9.96804 10.8609C9.94536 10.8489 9.91999 10.8434 9.89461 10.8449C9.86922 10.8464 9.84477 10.8549 9.82382 10.8695C9.80287 10.8841 9.7862 10.9042 9.77558 10.9277C9.76496 10.9513 9.76077 10.9774 9.76345 11.0033L10.4243 18.3877L11.4409 18.3649L10.7893 11.3128C10.7877 11.2846 10.7785 11.2573 10.7627 11.2339C10.7469 11.2105 10.7252 11.192 10.6999 11.1805Z" fill="#FAD55B"/>
<path d="M11.5259 18.4379L10.3564 18.464L9.67873 11.0056C9.67727 10.9751 9.68175 10.9447 9.69192 10.9161C9.70209 10.8875 9.71773 10.8613 9.73795 10.8391C9.75816 10.8168 9.78254 10.799 9.80965 10.7865C9.83677 10.7741 9.86609 10.7673 9.89589 10.7666C9.92774 10.7652 9.95955 10.7713 9.98884 10.7845L10.7206 11.103C10.7602 11.1204 10.7942 11.149 10.8186 11.1854C10.843 11.2219 10.8567 11.2646 10.8581 11.3086L11.5259 18.4379ZM10.4955 18.3035L11.3569 18.2832L10.7047 11.3183C10.705 11.3035 10.701 11.2889 10.6932 11.2764C10.6855 11.2638 10.6743 11.2539 10.661 11.2477L9.92933 10.9292C9.91849 10.9247 9.90675 10.9231 9.89517 10.9243C9.88358 10.9256 9.87251 10.9298 9.86294 10.9365C9.85337 10.9432 9.8456 10.9523 9.84032 10.9629C9.83505 10.9735 9.83242 10.9853 9.83269 10.9972L10.4955 18.3035Z" fill="#F3A037"/>
<path d="M16.1129 8.67711L15.3812 8.36063C15.3586 8.34873 15.3332 8.3433 15.3079 8.3449C15.2826 8.34651 15.2582 8.35508 15.2373 8.36973C15.2165 8.38438 15.1999 8.40456 15.1894 8.42813C15.1789 8.45171 15.1748 8.47781 15.1776 8.50368L15.5621 18.3599L16.5771 18.3344L16.195 8.8126C16.1946 8.7846 16.1868 8.75717 16.1723 8.73328C16.1578 8.70939 16.1373 8.68996 16.1129 8.67711Z" fill="#F8C534"/>
<path d="M16.6599 18.4073L15.493 18.4389L15.0923 8.50697C15.0911 8.44637 15.1133 8.38794 15.154 8.34439C15.1948 8.30085 15.2508 8.27573 15.31 8.2745C15.3418 8.27298 15.3735 8.27899 15.4028 8.29205L16.1345 8.60778C16.1742 8.62532 16.2083 8.65404 16.2329 8.69058C16.2574 8.72712 16.2714 8.76997 16.2731 8.81411L16.6599 18.4073ZM15.6402 18.2771L16.5001 18.2538L16.1178 8.81587C16.1173 8.80187 16.1131 8.78823 16.1054 8.77657C16.0977 8.76491 16.087 8.7557 16.0744 8.75002L15.3427 8.43429C15.3318 8.42953 15.3199 8.42766 15.3081 8.42886C15.2963 8.43006 15.285 8.43428 15.2753 8.44115C15.2656 8.44802 15.2577 8.4573 15.2525 8.46814C15.2472 8.47898 15.2447 8.49103 15.2452 8.50317L15.6402 18.2771Z" fill="#F3A037"/>
<path d="M13.2693 8.31682L13.9786 7.96291C14.0004 7.94968 14.0254 7.94279 14.0509 7.94298C14.0764 7.94316 14.1014 7.95041 14.1233 7.96396C14.1452 7.97751 14.1632 7.99686 14.1753 8.01993C14.1874 8.04301 14.1932 8.06896 14.1921 8.09503L14.7926 18.342L13.7783 18.3691L13.1891 8.45558C13.1885 8.42699 13.1958 8.39889 13.2099 8.3744C13.2241 8.3499 13.2447 8.32997 13.2693 8.31682Z" fill="#F8C534"/>
<path d="M14.8726 18.4189L13.7058 18.4506L13.1043 8.46333C13.102 8.41882 13.1125 8.37472 13.1343 8.3364C13.1561 8.29808 13.1884 8.26719 13.2273 8.2475L13.9347 7.89367C13.963 7.87873 13.9944 7.87077 14.0263 7.87043C14.0857 7.869 14.1435 7.89165 14.1871 7.93345C14.2307 7.97525 14.2566 8.03283 14.2591 8.09368L14.8726 18.4189ZM13.8498 18.2887L14.7102 18.2666L14.1074 8.10014C14.1072 8.088 14.104 8.07609 14.0981 8.0655C14.0922 8.05492 14.0838 8.046 14.0737 8.03958C14.0636 8.03315 14.0521 8.02943 14.0402 8.02875C14.0284 8.02807 14.0166 8.03046 14.0059 8.03569L13.2972 8.39011C13.2851 8.39585 13.275 8.40514 13.2681 8.41681C13.2612 8.42848 13.2579 8.44201 13.2585 8.45569L13.8498 18.2887Z" fill="#F3A037"/>
<path d="M9.20177 9.997L8.46812 9.66763C8.44545 9.65572 8.42011 9.65015 8.39471 9.65148C8.36931 9.65281 8.34478 9.66099 8.32366 9.67519C8.30253 9.68939 8.28558 9.70908 8.27456 9.73222C8.26353 9.75537 8.25884 9.78113 8.26096 9.80683L9.66487 18.3856L10.6905 18.3762L9.2902 10.1337C9.29065 10.1047 9.28245 10.0761 9.26668 10.0517C9.25091 10.0273 9.22829 10.0083 9.20177 9.997Z" fill="#FAD55B"/>
<path d="M10.7883 18.4564L9.60531 18.4694L9.59454 18.4014L8.17653 9.82472C8.17485 9.79383 8.17926 9.76295 8.18948 9.7339C8.1997 9.70485 8.21554 9.67821 8.23607 9.65552C8.2566 9.63284 8.28141 9.61457 8.30905 9.60178C8.33669 9.58899 8.36661 9.58193 8.39706 9.58103C8.42948 9.58064 8.46164 9.58759 8.4912 9.60139L9.22551 9.92896C9.26527 9.94684 9.29924 9.97589 9.32338 10.0127C9.34752 10.0494 9.36081 10.0923 9.36169 10.1363L10.7883 18.4564ZM9.73683 18.3105L10.6043 18.3L9.20781 10.1501C9.20899 10.1343 9.2054 10.1184 9.19751 10.1047C9.18962 10.0909 9.17781 10.0799 9.16365 10.073L8.42934 9.74547C8.41847 9.74044 8.40655 9.73829 8.39469 9.73925C8.38283 9.7402 8.37143 9.74421 8.36158 9.75091C8.35173 9.75761 8.34374 9.76676 8.33839 9.77751C8.33303 9.78825 8.33049 9.80023 8.33098 9.81231L9.73683 18.3105Z" fill="#F3A037"/>
<path d="M16.2036 9.98047L16.9093 9.62281C16.9309 9.6097 16.9556 9.60281 16.9808 9.60287C17.0061 9.60293 17.0309 9.60993 17.0527 9.62314C17.0745 9.63636 17.0925 9.6553 17.1048 9.67799C17.1171 9.70068 17.1233 9.72627 17.1226 9.75211L17.275 18.3219L16.2634 18.3564L16.1236 10.1214C16.1213 10.0922 16.1278 10.0632 16.1421 10.038C16.1563 10.0128 16.1778 9.99276 16.2036 9.98047Z" fill="#FAD55B"/>
<path d="M17.3551 18.4022L16.1898 18.4394L16.0427 10.1277C16.0404 10.0833 16.0506 10.0393 16.0722 10.001C16.0937 9.96261 16.1257 9.93155 16.1642 9.91152L16.8683 9.55408C16.9017 9.53702 16.9388 9.52886 16.9763 9.53036C17.0137 9.53185 17.0503 9.54294 17.0827 9.56262C17.115 9.58229 17.1421 9.60993 17.1614 9.64298C17.1808 9.67604 17.1918 9.71346 17.1934 9.75182L17.3551 18.4022ZM16.3407 18.2779L17.196 18.2428L17.039 9.75261C17.0379 9.7409 17.034 9.7296 17.0278 9.71967C17.0216 9.70974 17.0131 9.70147 17.0031 9.69555C16.9932 9.68962 16.982 9.68621 16.9705 9.68561C16.959 9.68501 16.9476 9.68724 16.9372 9.6921L16.2318 10.0501C16.2198 10.0565 16.2098 10.0662 16.203 10.0782C16.1961 10.0901 16.1926 10.1038 16.1929 10.1177L16.3407 18.2779Z" fill="#F3A037"/>
<path d="M17.5109 11.168L18.2147 10.808C18.2363 10.7948 18.261 10.7879 18.2862 10.7878C18.3114 10.7878 18.3363 10.7946 18.3581 10.8077C18.38 10.8208 18.398 10.8397 18.4104 10.8623C18.4228 10.8849 18.4291 10.9104 18.4286 10.9362L18.3153 18.315L17.3036 18.3525L17.4309 11.3078C17.4289 11.2788 17.4354 11.25 17.4497 11.2251C17.4639 11.2001 17.4853 11.1803 17.5109 11.168Z" fill="#F8C534"/>
<path d="M18.3907 18.3911L17.2241 18.4293L17.3527 11.3011C17.3519 11.2579 17.3629 11.2153 17.3845 11.1784C17.4061 11.1414 17.4374 11.1115 17.475 11.0919L18.1773 10.7322C18.2059 10.7184 18.2369 10.7102 18.2686 10.7081C18.3278 10.7061 18.3857 10.728 18.4296 10.7693C18.4736 10.8105 18.5 10.8676 18.5032 10.9282L18.3907 18.3911ZM17.3824 18.2715L18.2403 18.2394L18.3474 10.9367C18.3461 10.9252 18.3422 10.9142 18.3359 10.9046C18.3296 10.895 18.3212 10.8871 18.3113 10.8815C18.3014 10.8759 18.2904 10.8727 18.2791 10.8724C18.2679 10.872 18.2567 10.8744 18.2466 10.8793L17.543 11.2397C17.531 11.2461 17.521 11.2558 17.5142 11.2678C17.5074 11.2797 17.504 11.2934 17.5044 11.3073L17.3824 18.2715Z" fill="#F3A037"/>
<path d="M18.7549 9.97513L19.4562 9.6133C19.4781 9.60205 19.5025 9.5966 19.5272 9.59744C19.5518 9.59828 19.5759 9.60538 19.5973 9.6181C19.6187 9.63083 19.6367 9.64877 19.6496 9.67029C19.6626 9.69181 19.6701 9.71624 19.6714 9.74134L18.8577 18.3096L17.8373 18.3479L18.6732 10.1096C18.6723 10.0814 18.6795 10.0535 18.694 10.0296C18.7086 10.0057 18.7298 9.98673 18.7549 9.97513Z" fill="#FAD55B"/>
<path d="M18.9226 18.3795L17.7558 18.4275L18.5963 10.1015C18.5957 10.0597 18.6067 10.0187 18.628 9.98316C18.6494 9.94764 18.6802 9.91906 18.7169 9.90071L19.4193 9.53812C19.4474 9.523 19.4786 9.51464 19.5105 9.51367C19.5698 9.51135 19.6278 9.53311 19.6718 9.57417C19.7158 9.61523 19.7421 9.67223 19.7451 9.73265L18.9226 18.3795ZM17.9267 18.2647L18.7813 18.2305L19.5889 9.7277C19.5864 9.71686 19.5816 9.70671 19.5747 9.69802C19.5678 9.68933 19.5591 9.68233 19.5492 9.67754C19.5394 9.67276 19.5286 9.67031 19.5177 9.67039C19.5068 9.67047 19.4961 9.67307 19.4863 9.678L18.7839 10.0406C18.772 10.0469 18.7623 10.0566 18.7557 10.0685C18.7491 10.0804 18.7461 10.0939 18.7468 10.1076L17.9267 18.2647Z" fill="#F3A037"/>
<path d="M14.4289 9.99085L15.1334 9.63381C15.1554 9.62271 15.1799 9.61746 15.2045 9.61853C15.2291 9.61959 15.2532 9.62695 15.2744 9.63993C15.2957 9.65291 15.3135 9.6711 15.3262 9.69284C15.339 9.71458 15.3462 9.73919 15.3473 9.76442L15.4977 18.3303L14.4861 18.3616L14.3453 10.1271C14.3457 10.0986 14.3537 10.0709 14.3684 10.0468C14.3831 10.0228 14.4041 10.0034 14.4289 9.99085Z" fill="#FAD55B"/>
<path d="M15.5803 18.4094L14.4144 18.4486L14.268 10.1349C14.2653 10.0907 14.2753 10.0468 14.2966 10.0085C14.3179 9.9702 14.3498 9.93922 14.3882 9.91932L15.0936 9.56129C15.1218 9.54635 15.1531 9.53822 15.1849 9.53754C15.2441 9.53612 15.3017 9.55862 15.3452 9.60018C15.3887 9.64174 15.4146 9.69902 15.4174 9.75963L15.5803 18.4094ZM14.5647 18.2857L15.4236 18.2585L15.2666 9.76829C15.2658 9.75643 15.2622 9.74493 15.256 9.73481C15.2498 9.72469 15.2413 9.71626 15.2313 9.71027C15.2212 9.70429 15.2099 9.70093 15.1983 9.70049C15.1867 9.70006 15.1752 9.70256 15.1648 9.70778L14.4582 10.0632C14.4462 10.069 14.4362 10.0783 14.4294 10.09C14.4225 10.1017 14.4193 10.1152 14.42 10.1289L14.5647 18.2857Z" fill="#F3A037"/>
<path d="M13.3253 9.48173L12.5933 9.16942C12.5705 9.15765 12.5452 9.15236 12.52 9.15409C12.4947 9.15582 12.4704 9.16451 12.4497 9.17925C12.4289 9.19398 12.4125 9.21422 12.4021 9.23782C12.3918 9.26142 12.3878 9.28751 12.3907 9.31334L12.3689 18.3768L13.382 18.3462L13.4155 9.61628C13.4144 9.58751 13.4053 9.55958 13.3893 9.53575C13.3734 9.51192 13.3511 9.49319 13.3253 9.48173Z" fill="#FAD55B"/>
<path d="M13.462 18.4226L12.2971 18.4599L12.3097 9.31524C12.3083 9.25505 12.33 9.19693 12.3702 9.15341C12.4104 9.10989 12.4658 9.08445 12.5245 9.0826C12.5565 9.082 12.5883 9.08826 12.618 9.10097L13.3501 9.41266C13.3897 9.42968 13.4239 9.45795 13.4485 9.49412C13.4731 9.53029 13.4871 9.57284 13.4889 9.61671L13.462 18.4226ZM12.4508 18.2973L13.3092 18.2697L13.3351 9.61865C13.3342 9.60541 13.3297 9.59267 13.322 9.58188C13.3144 9.57109 13.304 9.56269 13.292 9.55763L12.565 9.24356C12.5541 9.23876 12.5423 9.23687 12.5306 9.23806C12.5189 9.23925 12.5078 9.24349 12.4982 9.25037C12.4886 9.25725 12.4809 9.26655 12.4758 9.27737C12.4708 9.2882 12.4685 9.3002 12.4692 9.31223L12.4508 18.2973Z" fill="#F3A037"/>
<path d="M24.748 9.93667L25.4537 9.57898C25.4754 9.56564 25.5003 9.55861 25.5258 9.55864C25.5512 9.55867 25.5762 9.56575 25.5982 9.57915C25.6201 9.59254 25.6382 9.61174 25.6504 9.6347C25.6626 9.65767 25.6686 9.68354 25.6677 9.70957L25.8143 18.2788L24.8021 18.3121L24.6618 10.0774C24.6601 10.0475 24.6675 10.0179 24.6829 9.99274C24.6984 9.96754 24.7211 9.94794 24.748 9.93667Z" fill="#F8C534"/>
<path d="M25.8993 18.3475L24.7346 18.3861L24.587 10.0731C24.5845 10.0289 24.5945 9.98501 24.6158 9.94676C24.6372 9.9085 24.6689 9.87749 24.7072 9.85745L25.4126 9.49942C25.4408 9.48448 25.4721 9.47636 25.5039 9.47567C25.5632 9.47389 25.621 9.49616 25.6648 9.53763C25.7086 9.5791 25.7347 9.63643 25.7377 9.69716L25.8993 18.3475ZM24.885 18.2232L25.7438 18.196L25.5826 9.69986C25.5818 9.688 25.5782 9.6765 25.572 9.66638C25.5658 9.65626 25.5573 9.64783 25.5473 9.64184C25.5372 9.63586 25.5259 9.6325 25.5143 9.63206C25.5027 9.63163 25.4912 9.63413 25.4808 9.63935L24.7773 9.9981C24.7651 10.0039 24.7548 10.0133 24.7478 10.0251C24.7407 10.0368 24.7373 10.0505 24.7378 10.0644L24.885 18.2232Z" fill="#F3A037"/>
<path d="M19.2802 11.5163L19.9831 11.1546C20.0047 11.1412 20.0296 11.134 20.055 11.1338C20.0804 11.1336 20.1055 11.1405 20.1275 11.1537C20.1496 11.1669 20.1678 11.1859 20.1802 11.2087C20.1926 11.2314 20.1988 11.2572 20.198 11.2831L19.8169 18.3012L18.8044 18.3407L19.2008 11.6561C19.1995 11.6273 19.2064 11.5989 19.2204 11.5742C19.2345 11.5494 19.2553 11.5293 19.2802 11.5163Z" fill="#FAD55B"/>
<path d="M19.8898 18.3765L18.7234 18.4229L19.1213 11.6534C19.1205 11.6111 19.1314 11.5695 19.1528 11.5334C19.1742 11.4973 19.2051 11.4682 19.2421 11.4494L19.9449 11.0874C19.973 11.0723 20.0042 11.064 20.036 11.0631C20.0953 11.0609 20.1533 11.0827 20.1972 11.1239C20.2411 11.1651 20.2673 11.2222 20.2702 11.2826L19.8898 18.3765ZM18.8864 18.2592L19.7432 18.2251L20.1172 11.2808C20.1157 11.2693 20.1115 11.2584 20.1049 11.249C20.0984 11.2395 20.0896 11.2318 20.0795 11.2266C20.0694 11.2214 20.0582 11.2187 20.047 11.2189C20.0357 11.2191 20.0246 11.2221 20.0148 11.2276L19.3133 11.589C19.3011 11.5948 19.2909 11.6043 19.284 11.6161C19.277 11.6279 19.2737 11.6415 19.2743 11.6553L18.8864 18.2592Z" fill="#F3A037"/>
<path d="M20.7442 11.5121L21.4465 11.149C21.4681 11.1356 21.493 11.1284 21.5184 11.1282C21.5438 11.128 21.5689 11.1349 21.5909 11.1481C21.613 11.1613 21.6312 11.1803 21.6436 11.2031C21.656 11.2258 21.6622 11.2516 21.6615 11.2775L21.2768 18.2973L20.2649 18.3381L20.6712 11.6488C20.669 11.6211 20.6748 11.5934 20.6878 11.5692C20.7007 11.5449 20.7204 11.5251 20.7442 11.5121Z" fill="#FAD55B"/>
<path d="M21.3534 18.3687L20.187 18.4151L20.5848 11.6456C20.584 11.6033 20.595 11.5617 20.6163 11.5256C20.6377 11.4895 20.6687 11.4604 20.7057 11.4415L21.4084 11.0796C21.4366 11.0645 21.4677 11.0562 21.4996 11.0553C21.5589 11.053 21.6168 11.0749 21.6607 11.1161C21.7046 11.1572 21.7309 11.2143 21.7338 11.2748L21.3534 18.3687ZM20.3506 18.2527L21.2087 18.218L21.5807 11.2729C21.5789 11.2617 21.5746 11.251 21.5679 11.2417C21.5613 11.2325 21.5526 11.2249 21.5426 11.2197C21.5326 11.2146 21.5216 11.2119 21.5104 11.2119C21.4992 11.2119 21.4882 11.2146 21.4784 11.2198L20.7769 11.5812C20.7649 11.5876 20.755 11.5974 20.7482 11.6093C20.7414 11.6213 20.7381 11.6349 20.7385 11.6488L20.3506 18.2527Z" fill="#F3A037"/>
<path d="M26.0525 11.1132L26.7564 10.7531C26.778 10.7397 26.8029 10.7326 26.8283 10.7325C26.8537 10.7324 26.8788 10.7394 26.9008 10.7527C26.9228 10.766 26.9409 10.7851 26.9532 10.8079C26.9656 10.8308 26.9716 10.8566 26.9708 10.8826L26.858 18.2612L25.8418 18.3057L25.9699 11.2606C25.9679 11.2303 25.9746 11.2001 25.9893 11.1739C26.004 11.1477 26.026 11.1266 26.0525 11.1132Z" fill="#FAD55B"/>
<path d="M26.9344 18.3403L25.7696 18.3824L25.898 11.2544C25.8969 11.2114 25.9078 11.1692 25.9293 11.1325C25.9508 11.0958 25.9821 11.0662 26.0196 11.0471L26.7232 10.6868C26.7514 10.6717 26.7825 10.6635 26.8144 10.6627C26.8737 10.6606 26.9316 10.6826 26.9755 10.7238C27.0194 10.765 27.0459 10.8221 27.049 10.8828L26.9344 18.3403ZM25.9261 18.2207L26.7827 18.1892L26.8909 10.886C26.8896 10.8744 26.8855 10.8633 26.8791 10.8537C26.8727 10.844 26.8642 10.836 26.8541 10.8304C26.8441 10.8249 26.8329 10.8218 26.8215 10.8216C26.8102 10.8214 26.7989 10.824 26.7888 10.8293L26.0864 11.189C26.0742 11.1949 26.064 11.2043 26.057 11.2161C26.05 11.2279 26.0466 11.2415 26.0472 11.2554L25.9261 18.2207Z" fill="#F3A037"/>
<path d="M23.3783 8.23751L22.6479 7.92283C22.6252 7.91101 22.5998 7.90565 22.5745 7.90733C22.5492 7.90901 22.5249 7.91765 22.5041 7.93235C22.4834 7.94705 22.4669 7.96727 22.4565 7.99086C22.446 8.01445 22.442 8.04054 22.4449 8.06639L22.5627 18.3229L23.5759 18.2931L23.467 8.37292C23.4671 8.34397 23.4587 8.31557 23.4429 8.29142C23.4271 8.26728 23.4046 8.24849 23.3783 8.23751Z" fill="#F8C534"/>
<path d="M23.6593 18.3659L22.4907 18.3941L22.3607 8.06062C22.3587 8.00016 22.3802 7.94158 22.4205 7.89777C22.4608 7.85395 22.5166 7.82849 22.5756 7.82698C22.6074 7.82499 22.6392 7.83092 22.6684 7.84426L23.4045 8.16374C23.4441 8.18086 23.4782 8.20923 23.5028 8.24548C23.5273 8.28172 23.5413 8.32433 23.5429 8.36824L23.6593 18.3659ZM22.6447 18.2381L23.5042 18.2137L23.3883 8.37174C23.3878 8.35815 23.3834 8.34499 23.3757 8.33388C23.3679 8.32277 23.3572 8.31422 23.3448 8.30928L22.6142 7.99519C22.6032 7.99084 22.5914 7.9893 22.5798 7.9907C22.5682 7.9921 22.5571 7.99639 22.5475 8.0032C22.5379 8.01002 22.5301 8.01915 22.5248 8.02979C22.5195 8.04044 22.5168 8.05228 22.517 8.06429L22.6447 18.2381Z" fill="#F3A037"/>
<path d="M22.28 9.92491L21.5497 9.60719C21.527 9.59528 21.5017 9.58982 21.4763 9.5914C21.451 9.59299 21.4266 9.60155 21.4057 9.61618C21.3848 9.63081 21.3683 9.65098 21.3577 9.67455C21.3472 9.69812 21.3431 9.72422 21.3459 9.7501L21.8146 18.3259L22.8295 18.2999L22.3709 10.0596C22.3707 10.0305 22.3619 10.0021 22.3457 9.97807C22.3295 9.95404 22.3066 9.93552 22.28 9.92491Z" fill="#FAD55B"/>
<path d="M22.9151 18.3722L21.7465 18.4035L21.2639 9.75272C21.2626 9.72246 21.2672 9.69229 21.2773 9.66395C21.2874 9.63561 21.303 9.60965 21.323 9.58757C21.343 9.56549 21.3671 9.54772 21.394 9.53528C21.4208 9.52284 21.4498 9.51598 21.4794 9.5151C21.5118 9.51448 21.5441 9.52072 21.5741 9.53344L22.3039 9.84903C22.3437 9.86606 22.3779 9.89439 22.4026 9.93066C22.4273 9.96692 22.4413 10.0096 22.4431 10.0536L22.9151 18.3722ZM21.892 18.2411L22.7527 18.2197L22.2901 10.0605C22.2898 10.0465 22.2856 10.0327 22.2779 10.021C22.2702 10.0093 22.2594 10.0001 22.2467 9.99461L21.5151 9.6783C21.5042 9.67383 21.4924 9.67213 21.4808 9.67337C21.4692 9.6746 21.4581 9.67872 21.4484 9.68537C21.4387 9.69201 21.4308 9.70099 21.4253 9.71152C21.4198 9.72205 21.417 9.73382 21.4169 9.7458L21.892 18.2411Z" fill="#F3A037"/>
<path d="M23.3659 9.44868L24.0744 9.09583C24.0965 9.08486 24.121 9.07976 24.1457 9.081C24.1704 9.08224 24.1944 9.08978 24.2157 9.10292C24.2369 9.11607 24.2546 9.13441 24.2672 9.15627C24.2798 9.17814 24.2869 9.20284 24.2879 9.22812L24.9586 18.284L23.9439 18.3103L23.2893 9.58563C23.2886 9.55771 23.2954 9.5302 23.3089 9.50606C23.3224 9.48192 23.3421 9.46208 23.3659 9.44868Z" fill="#FAD55B"/>
<path d="M25.0366 18.3569L23.8694 18.388L23.8637 18.3127L23.1951 9.59452C23.1932 9.54983 23.2039 9.50565 23.226 9.46727C23.2481 9.42889 23.2805 9.39795 23.3195 9.37813L24.0286 9.02408C24.057 9.00929 24.0883 9.00136 24.1202 9.00088C24.1796 8.99946 24.2374 9.02225 24.2808 9.06425C24.3241 9.10625 24.3497 9.16402 24.3517 9.22488L25.0366 18.3569ZM24.011 18.2273L24.871 18.2043L24.2087 9.23357C24.2087 9.22124 24.2057 9.20907 24.1999 9.19823C24.194 9.18739 24.1856 9.17823 24.1754 9.17163C24.1651 9.16503 24.1534 9.16121 24.1414 9.16053C24.1294 9.15985 24.1174 9.16233 24.1066 9.16774L23.3975 9.5218C23.3855 9.52753 23.3753 9.53682 23.3684 9.54849C23.3615 9.56015 23.3582 9.57368 23.3588 9.58737L24.011 18.2273Z" fill="#F3A037"/>
<path d="M17.7617 18.0106L9.38152 19.7146L12.2175 32.49C14.9015 34.2209 18.7137 33.7235 18.7137 33.7235C18.7137 33.7235 22.5625 33.8463 25.0215 31.866L26.2976 18.8894L17.7617 18.0106Z" fill="#DD192D"/>
<path d="M13.3613 25.0643C12.9622 22.3096 11.6013 20.2607 10.5385 19.0356L9.43635 19.2227L11.7881 32.3125C11.7881 32.3125 14.0446 29.7826 13.3613 25.0643Z" fill="#DF412F"/>
<path d="M22.9985 25.1042C23.2105 22.3462 24.4225 20.2412 25.3944 18.9664L26.4969 19.0965L25.0321 32.2308C25.0321 32.2308 22.6344 29.8291 22.9985 25.1042Z" fill="#C3151E"/>
<path d="M26.7955 18.7786L9.57984 19.4971L9.25144 18.0259L26.9394 17.2886L26.7955 18.7786Z" fill="#FDFADC"/>
<g style="mix-blend-mode:multiply">
<path d="M11.6412 30.3959L12.1265 32.5245C14.8334 34.2407 18.6699 33.7431 18.6699 33.7431C18.6699 33.7431 22.5451 33.8614 25.0153 31.8925L26.2643 19.0055L26.4028 17.5044L21.4571 17.7449C21.9716 20.3334 23.048 29.6773 11.6412 30.3959Z" fill="#DBDCDB"/>
</g>
</svg>
