<svg width="24" height="26" viewBox="0 0 24 26" fill="none" xmlns="http://www.w3.org/2000/svg">
<path d="M19.3601 6.74702C15.3104 6.0669 7.48943 6.00856 3.45895 6.69016C2.64333 6.82788 0.837442 7.66676 2.58868 10.6996L2.40629 22.3757C2.4011 22.709 2.46226 23.04 2.58622 23.3494C2.71017 23.6589 2.89445 23.9406 3.12831 24.1781C3.36218 24.4156 3.64096 24.6043 3.94842 24.7331C4.25589 24.8618 4.5859 24.9282 4.91924 24.9282H17.9312C18.2643 24.9279 18.5941 24.8614 18.9014 24.7325C19.2086 24.6036 19.4871 24.415 19.7208 24.1774C19.9544 23.9399 20.1385 23.6583 20.2623 23.349C20.3861 23.0397 20.4471 22.7088 20.4419 22.3757L20.2595 10.6996C21.7309 8.14897 20.6579 6.96523 19.3582 6.74886L19.3601 6.74702Z" fill="#7A3303"/>
<path d="M19.3601 4.41498C15.3104 3.73487 7.48943 3.67653 3.45895 4.35812C2.64333 4.49584 0.837442 5.3351 2.58868 8.36793L2.40629 20.044C2.40105 20.3773 2.46217 20.7083 2.58611 21.0178C2.71005 21.3273 2.89433 21.609 3.1282 21.8465C3.36207 22.0841 3.64087 22.2727 3.94836 22.4015C4.25585 22.5302 4.58589 22.5965 4.91924 22.5965H17.9312C18.2643 22.5963 18.5941 22.5298 18.9013 22.401C19.2086 22.2721 19.4871 22.0835 19.7207 21.846C19.9544 21.6085 20.1385 21.3269 20.2623 21.0176C20.3861 20.7083 20.4471 20.3775 20.4419 20.0444L20.2595 8.3683C21.7309 5.81768 20.6579 4.63357 19.3582 4.41535L19.3601 4.41498Z" fill="#D6AB5F"/>
<path d="M6.82007 20.3828L13.6139 25.5978L15.2385 20.3828H6.82007ZM13.0342 24.1748C12.9193 24.1748 12.807 24.1407 12.7115 24.0769C12.616 24.013 12.5415 23.9223 12.4976 23.8162C12.4536 23.71 12.4421 23.5932 12.4646 23.4805C12.487 23.3679 12.5424 23.2644 12.6236 23.1832C12.7049 23.102 12.8084 23.0467 12.9211 23.0243C13.0338 23.0019 13.1506 23.0135 13.2567 23.0575C13.3628 23.1015 13.4535 23.176 13.5173 23.2716C13.5811 23.3671 13.6151 23.4795 13.615 23.5944C13.615 23.6706 13.6 23.7461 13.5708 23.8166C13.5416 23.887 13.4988 23.951 13.4449 24.0049C13.3909 24.0588 13.3269 24.1016 13.2564 24.1307C13.186 24.1598 13.1104 24.1748 13.0342 24.1748Z" fill="#F7C90D"/>
<path d="M1.5688 21.868C1.5688 21.868 5.01221 21.1838 7.58719 22.095L3.59585 12.4844C3.59585 12.4844 -2.34426 17.0879 1.5688 21.868Z" fill="#F7C90D"/>
<path d="M6.19415 6.72989C6.19415 7.34245 6.0125 7.94125 5.67218 8.45057C5.33185 8.95989 4.84813 9.35685 4.28219 9.59125C3.71625 9.82565 3.09352 9.88696 2.49273 9.76743C1.89195 9.6479 1.3401 9.35289 0.906983 8.91972C0.473864 8.48655 0.178925 7.93467 0.0594658 7.33387C-0.0599938 6.73307 0.00139129 6.11034 0.235858 5.54443C0.470325 4.97852 0.867343 4.49485 1.3767 4.15458C1.88606 3.81432 2.48489 3.63274 3.09745 3.63281C3.50414 3.63281 3.90686 3.71292 4.28259 3.86857C4.65832 4.02422 4.99972 4.25235 5.28728 4.53995C5.57484 4.82754 5.80293 5.16896 5.95854 5.54472C6.11414 5.92047 6.1942 6.32319 6.19415 6.72989Z" fill="#B2D43B"/>
<path d="M5.52332 6.72696C5.52332 7.20683 5.38101 7.67592 5.1144 8.07491C4.84779 8.4739 4.46884 8.78487 4.02549 8.96849C3.58214 9.15211 3.09429 9.20014 2.62364 9.10649C2.15299 9.01285 1.72069 8.78174 1.38139 8.44239C1.04209 8.10305 0.811047 7.67071 0.717473 7.20006C0.623899 6.7294 0.671999 6.24156 0.85569 5.79824C1.03938 5.35493 1.35041 4.97603 1.74945 4.70949C2.14848 4.44294 2.6176 4.30071 3.09748 4.30078C3.74088 4.30088 4.3579 4.55654 4.81283 5.01152C5.26775 5.46651 5.52332 6.08356 5.52332 6.72696Z" fill="#E0EF1D"/>
<path d="M20.9559 2.15234H1.85437V4.48584H20.9559V2.15234Z" fill="#AA4907"/>
<path d="M8.96814 18.9779C4.24977 16.421 3.19526 23.7066 7.44101 24.8169C11.6868 25.9271 14.3341 19.0584 8.96814 18.9779Z" fill="#CC1906"/>
<path d="M8.76404 19.756C5.33614 17.8984 4.57036 23.1898 7.65636 23.998C10.7424 24.8063 12.6649 19.8147 8.76404 19.756Z" fill="#FF4E10"/>
<path d="M7.72488 23.7379C7.57314 23.698 7.51481 23.4211 7.59308 23.1198C7.67135 22.8185 7.85891 22.6058 8.01065 22.6453C8.16239 22.6849 8.21999 22.9618 8.14172 23.2634C8.06345 23.5651 7.87626 23.7774 7.72488 23.7379Z" fill="#F9EAC5"/>
<path d="M7.78763 20.3053C7.70714 20.4401 7.42506 20.4186 7.15775 20.2591C6.89044 20.0996 6.73869 19.8596 6.81918 19.7252C6.89967 19.5908 7.18138 19.6119 7.44906 19.7721C7.71674 19.9324 7.86812 20.169 7.78763 20.3053Z" fill="#F9EAC5"/>
<path d="M7.36722 21.3271C7.32328 21.477 7.04562 21.5294 6.74545 21.443C6.44527 21.3566 6.24035 21.1654 6.28134 21.0136C6.32232 20.8619 6.6033 20.8109 6.9031 20.8977C7.20291 20.9845 7.40968 21.1765 7.36722 21.3271Z" fill="#F9EAC5"/>
<path d="M7.44299 22.1696C7.49394 22.3173 7.29529 22.5196 6.99991 22.6208C6.70452 22.7219 6.42501 22.6828 6.37221 22.5344C6.31941 22.3859 6.51991 22.1844 6.81529 22.0836C7.11068 21.9828 7.39314 22.0212 7.44299 22.1696Z" fill="#F9EAC5"/>
<path d="M9.34438 20.73C9.34807 20.8869 9.60284 21.0065 9.91632 20.9973C10.2298 20.9881 10.4772 20.8544 10.4728 20.6986C10.4683 20.5427 10.2117 20.4216 9.90044 20.4301C9.58918 20.4386 9.3418 20.5734 9.34438 20.73Z" fill="#F9EAC5"/>
<path d="M9.21331 21.8181C9.17639 21.9706 9.39423 22.1505 9.69735 22.2243C10.0005 22.2982 10.2767 22.2306 10.3128 22.0766C10.349 21.9226 10.1316 21.7443 9.82806 21.6704C9.52456 21.5966 9.24875 21.6653 9.21331 21.8181Z" fill="#F9EAC5"/>
<path d="M8.73149 22.5286C8.61556 22.6334 8.68866 22.9063 8.89728 23.1389C9.10589 23.3715 9.36803 23.4749 9.48508 23.3697C9.60212 23.2645 9.52754 22.9927 9.32004 22.7605C9.11253 22.5282 8.84854 22.4248 8.73149 22.5286Z" fill="#F9EAC5"/>
<path d="M4.31081 8.33743C-0.405699 5.78017 -1.46206 13.0657 2.78368 14.1771C7.02942 15.2885 9.67678 8.41719 4.31081 8.33743Z" fill="#CC1906"/>
<path d="M4.10666 9.11519C0.678751 7.25761 -0.0870273 12.552 2.99787 13.3576C6.08277 14.1633 8.00608 9.1739 4.10666 9.11519Z" fill="#FF4E10"/>
<path d="M3.06707 13.0982C2.91568 13.0583 2.85734 12.7814 2.93562 12.4801C3.0139 12.1788 3.20147 11.9673 3.35323 12.0042C3.50499 12.0411 3.56222 12.321 3.48431 12.6223C3.4064 12.9236 3.21883 13.1377 3.06707 13.0982Z" fill="#F9EAC5"/>
<path d="M3.13014 9.66881C3.04966 9.80358 2.76758 9.78216 2.50027 9.62229C2.23297 9.46242 2.08122 9.22279 2.16171 9.08839C2.2422 8.95399 2.5239 8.97541 2.79158 9.13528C3.05926 9.29516 3.21026 9.53405 3.13014 9.66881Z" fill="#F9EAC5"/>
<path d="M2.70936 10.681C2.66579 10.8309 2.38776 10.8834 2.08795 10.797C1.78813 10.7106 1.58137 10.5193 1.62494 10.3691C1.6685 10.2188 1.9469 10.166 2.24671 10.2528C2.54653 10.3395 2.75219 10.5304 2.70936 10.681Z" fill="#F9EAC5"/>
<path d="M2.78536 11.525C2.83632 11.6727 2.63767 11.8754 2.3423 11.9762C2.04692 12.077 1.76742 12.0382 1.71647 11.8898C1.66552 11.7414 1.86416 11.5398 2.15953 11.439C2.45491 11.3382 2.73515 11.3766 2.78536 11.525Z" fill="#F9EAC5"/>
<path d="M4.68669 10.0854C4.69076 10.2423 4.94516 10.3619 5.25901 10.3531C5.57285 10.3442 5.8195 10.2098 5.81544 10.054C5.81138 9.89819 5.55439 9.77709 5.24313 9.78558C4.93187 9.79407 4.68263 9.92883 4.68669 10.0854Z" fill="#F9EAC5"/>
<path d="M4.55584 11.1813C4.51892 11.3338 4.7364 11.5154 5.03991 11.5874C5.34342 11.6594 5.61887 11.5937 5.65506 11.4397C5.69124 11.2858 5.47413 11.1074 5.17025 11.0336C4.86637 10.9597 4.59129 11.0292 4.55584 11.1813Z" fill="#F9EAC5"/>
<path d="M4.07378 11.8806C3.95822 11.9855 4.03132 12.2583 4.23956 12.491C4.4478 12.7236 4.71069 12.827 4.82736 12.7221C4.94403 12.6172 4.87019 12.3447 4.66232 12.1125C4.45445 11.8803 4.19119 11.7758 4.07378 11.8806Z" fill="#F9EAC5"/>
<path d="M20.2787 5.11942L20.3928 12.4327C22.0569 12.5982 22.2825 9.94045 22.2803 9.87399C22.2589 9.13774 23.0221 9.09159 23.4397 8.67473C24.1608 7.95547 23.4345 7.16089 23.467 6.31905C23.5649 3.7817 22.3386 3.64324 20.2787 5.11942Z" fill="#B2D43B"/>
<path d="M13.1257 19.1992L4.35724 19.3347C4.15786 21.3304 7.34503 21.5992 7.42478 21.5992C8.30761 21.5734 8.36262 22.4883 8.86256 22.989C9.72507 23.8538 10.6788 22.9827 11.6871 23.0219C14.7296 23.1386 14.8957 21.6694 13.1257 19.1992Z" fill="#A9CC15"/>
<path d="M20.2709 6.52095V14.2134C21.8526 14.3707 21.2493 11.7071 21.2475 11.6443C21.2272 10.9428 21.9523 10.9007 22.3489 10.5045C22.8754 9.97985 22.6897 9.55968 22.436 8.95858C22.1573 8.29877 22.909 7.83835 23.0755 7.25165C23.3569 6.25585 21.9512 5.31506 20.2709 6.52095Z" fill="#E0EF1D"/>
<path d="M21.2443 20.2816C21.2445 21.0151 21.0271 21.7321 20.6197 22.342C20.2124 22.9519 19.6333 23.4273 18.9557 23.7081C18.2782 23.9888 17.5326 24.0624 16.8132 23.9194C16.0938 23.7764 15.433 23.4233 14.9144 22.9047C14.3957 22.3861 14.0425 21.7254 13.8993 21.0061C13.7562 20.2867 13.8296 19.5411 14.1102 18.8635C14.3908 18.1859 14.8661 17.6067 15.4759 17.1992C16.0858 16.7917 16.8027 16.5742 17.5362 16.5742C18.5195 16.5742 19.4626 16.9648 20.158 17.6601C20.8534 18.3553 21.2441 19.2983 21.2443 20.2816Z" fill="#C61C4D"/>
<path d="M7.98123 17.1535C7.98123 17.8869 7.76375 18.6038 7.3563 19.2136C6.94884 19.8234 6.36971 20.2987 5.69213 20.5794C5.01456 20.86 4.26897 20.9335 3.54966 20.7904C2.83035 20.6473 2.16963 20.2941 1.65103 19.7755C1.13244 19.2569 0.779274 18.5962 0.636194 17.8769C0.493114 17.1576 0.566548 16.412 0.847209 15.7344C1.12787 15.0568 1.60315 14.4777 2.21295 14.0703C2.82275 13.6628 3.53969 13.4453 4.27309 13.4453C5.25655 13.4453 6.19973 13.836 6.89514 14.5314C7.59055 15.2268 7.98123 16.17 7.98123 17.1535Z" fill="#C61C4D"/>
<path d="M18.0991 22.8439C18.0992 22.8996 18.0827 22.9541 18.0518 23.0005C18.0209 23.0468 17.9769 23.083 17.9254 23.1044C17.874 23.1258 17.8173 23.1314 17.7626 23.1206C17.708 23.1097 17.6577 23.0829 17.6183 23.0436C17.5789 23.0042 17.552 22.954 17.5411 22.8993C17.5302 22.8447 17.5357 22.788 17.5571 22.7365C17.5784 22.685 17.6145 22.641 17.6608 22.61C17.7071 22.579 17.7616 22.5625 17.8174 22.5625C17.892 22.5625 17.9636 22.5921 18.0164 22.6449C18.0693 22.6976 18.099 22.7692 18.0991 22.8439Z" fill="#E5A3C6"/>
<path d="M20.5334 19.9877C20.5334 20.047 20.5158 20.1051 20.4828 20.1544C20.4499 20.2038 20.403 20.2423 20.3481 20.265C20.2933 20.2877 20.2329 20.2937 20.1747 20.2821C20.1165 20.2705 20.063 20.2419 20.021 20.1999C19.979 20.1579 19.9505 20.1045 19.9389 20.0462C19.9273 19.988 19.9332 19.9277 19.956 19.8728C19.9787 19.818 20.0171 19.7711 20.0665 19.7381C20.1159 19.7051 20.1739 19.6875 20.2333 19.6875C20.3128 19.6876 20.3891 19.7193 20.4454 19.7755C20.5017 19.8318 20.5333 19.9081 20.5334 19.9877Z" fill="#E5A3C6"/>
<path d="M19.8394 22.0051C19.8394 22.0571 19.824 22.1079 19.7951 22.1511C19.7662 22.1943 19.7251 22.228 19.6771 22.2479C19.6291 22.2678 19.5762 22.273 19.5252 22.2629C19.4742 22.2528 19.4274 22.2277 19.3906 22.1909C19.3538 22.1542 19.3288 22.1073 19.3186 22.0564C19.3085 22.0054 19.3137 21.9525 19.3336 21.9045C19.3535 21.8564 19.3872 21.8154 19.4304 21.7865C19.4737 21.7576 19.5245 21.7422 19.5765 21.7422C19.6462 21.7422 19.7131 21.7699 19.7624 21.8192C19.8117 21.8685 19.8394 21.9353 19.8394 22.0051Z" fill="#E5A3C6"/>
<path d="M17.2153 22.1108C17.2153 22.2138 17.1848 22.3146 17.1275 22.4002C17.0703 22.4859 16.9889 22.5527 16.8937 22.5921C16.7985 22.6315 16.6938 22.6419 16.5927 22.6218C16.4916 22.6017 16.3988 22.552 16.3259 22.4792C16.2531 22.4063 16.2035 22.3135 16.1834 22.2124C16.1632 22.1114 16.1736 22.0066 16.213 21.9114C16.2524 21.8163 16.3192 21.7349 16.4049 21.6776C16.4906 21.6204 16.5913 21.5898 16.6943 21.5898C16.8325 21.5898 16.965 21.6447 17.0627 21.7424C17.1604 21.8401 17.2153 21.9726 17.2153 22.1108Z" fill="#E5A3C6"/>
<path d="M2.08905 16.3614C2.08905 16.4344 2.0674 16.5058 2.02682 16.5665C1.98625 16.6272 1.92859 16.6746 1.86112 16.7025C1.79365 16.7305 1.71941 16.7378 1.64778 16.7235C1.57616 16.7093 1.51037 16.6741 1.45873 16.6225C1.40709 16.5708 1.37193 16.5051 1.35768 16.4334C1.34343 16.3618 1.35075 16.2876 1.37869 16.2201C1.40664 16.1526 1.45396 16.095 1.51468 16.0544C1.5754 16.0138 1.64679 15.9922 1.71982 15.9922C1.81774 15.9922 1.91166 16.0311 1.9809 16.1003C2.05015 16.1696 2.08905 16.2635 2.08905 16.3614Z" fill="#E5A3C6"/>
<path d="M2.1418 15.2865C2.14217 15.3158 2.13382 15.3445 2.11782 15.369C2.10181 15.3935 2.07888 15.4128 2.05192 15.4242C2.02497 15.4357 1.99522 15.4389 1.96645 15.4334C1.93768 15.4279 1.91119 15.414 1.89035 15.3934C1.86951 15.3728 1.85526 15.3465 1.84941 15.3178C1.84356 15.2891 1.84638 15.2593 1.8575 15.2322C1.86862 15.2051 1.88755 15.182 1.91187 15.1656C1.9362 15.1493 1.96483 15.1406 1.99411 15.1406C2.03297 15.1406 2.07025 15.1559 2.0979 15.1832C2.12554 15.2105 2.14132 15.2476 2.1418 15.2865Z" fill="#E5A3C6"/>
<path d="M2.5535 18.0378C2.55357 18.1303 2.52619 18.2208 2.47481 18.2978C2.42344 18.3748 2.35039 18.4348 2.26489 18.4703C2.1794 18.5057 2.08531 18.515 1.99454 18.497C1.90376 18.4789 1.82038 18.4344 1.75493 18.3689C1.68949 18.3035 1.64493 18.2201 1.62689 18.1293C1.60885 18.0385 1.61815 17.9444 1.6536 17.8589C1.68905 17.7734 1.74907 17.7004 1.82605 17.649C1.90303 17.5976 1.99353 17.5702 2.08608 17.5703C2.21005 17.5703 2.32894 17.6196 2.41659 17.7072C2.50425 17.7949 2.5535 17.9138 2.5535 18.0378Z" fill="#E5A3C6"/>
<path d="M22.5639 10.7392C22.5639 10.7392 19.1419 11.5234 16.5399 10.6875L20.8104 20.1767C20.8104 20.1767 26.6143 15.4037 22.5639 10.7392ZM21.2959 15.133C21.2073 15.0283 21.1517 14.8997 21.1361 14.7635C21.1206 14.6272 21.1458 14.4894 21.2086 14.3674C21.2714 14.2455 21.3689 14.1449 21.4889 14.0784C21.6088 14.0119 21.7458 13.9825 21.8825 13.9938C22.0192 14.0052 22.1494 14.0568 22.2568 14.1422C22.3641 14.2276 22.4437 14.3429 22.4855 14.4736C22.5273 14.6042 22.5294 14.7443 22.4916 14.8762C22.4537 15.008 22.3776 15.1257 22.2729 15.2142C22.1324 15.3328 21.9505 15.3907 21.7673 15.3752C21.5841 15.3597 21.4145 15.272 21.2959 15.1315V15.133ZM22.0192 17.2904C21.9077 17.2904 21.7987 17.2573 21.706 17.1954C21.6133 17.1334 21.541 17.0454 21.4984 16.9424C21.4557 16.8393 21.4445 16.726 21.4663 16.6166C21.488 16.5072 21.5417 16.4068 21.6206 16.3279C21.6994 16.2491 21.7999 16.1954 21.9093 16.1736C22.0186 16.1519 22.132 16.163 22.235 16.2057C22.338 16.2484 22.4261 16.3206 22.488 16.4134C22.55 16.5061 22.5831 16.6151 22.5831 16.7266C22.5827 16.8759 22.5231 17.0189 22.4174 17.1243C22.3117 17.2297 22.1685 17.2889 22.0192 17.2889V17.2904ZM22.4693 13.4445C22.3803 13.4446 22.2933 13.4183 22.2192 13.3689C22.1452 13.3195 22.0874 13.2492 22.0533 13.167C22.0191 13.0848 22.0102 12.9943 22.0275 12.907C22.0447 12.8197 22.0875 12.7394 22.1504 12.6764C22.2133 12.6134 22.2935 12.5705 22.3808 12.5531C22.4681 12.5356 22.5586 12.5445 22.6409 12.5785C22.7231 12.6125 22.7935 12.6701 22.843 12.7441C22.8925 12.8181 22.919 12.905 22.9191 12.9941C22.9191 13.0532 22.9076 13.1117 22.885 13.1664C22.8625 13.221 22.8294 13.2707 22.7876 13.3125C22.7458 13.3544 22.6962 13.3876 22.6416 13.4102C22.587 13.4329 22.5285 13.4445 22.4693 13.4445Z" fill="#F7C90D"/>
<path d="M19.36 2.87983C15.3104 2.19971 7.48939 2.14137 3.45891 2.82297C2.64329 2.95958 0.838876 3.79958 2.58864 6.83241L2.40624 18.5085C2.40105 18.8418 2.46222 19.1728 2.58617 19.4823C2.71013 19.7917 2.89441 20.0734 3.12827 20.3109C3.36213 20.5485 3.64091 20.7371 3.94838 20.8659C4.25585 20.9946 4.58586 21.061 4.9192 21.061H17.9311C18.2643 21.0607 18.5941 20.9942 18.9013 20.8653C19.2086 20.7365 19.4871 20.5478 19.7207 20.3102C19.9544 20.0727 20.1385 19.7911 20.2623 19.4818C20.3861 19.1725 20.4471 18.8416 20.4419 18.5085L20.2595 6.83241C21.7308 4.28216 20.6579 3.09804 19.3582 2.88167L19.36 2.87983Z" fill="#AA4907"/>
<path d="M19.3601 0.539696C15.3104 -0.14042 7.48943 -0.19802 3.45895 0.482835C2.64333 0.620557 0.837442 1.45944 2.58868 4.49227L2.40629 16.1683C2.40124 16.5015 2.46252 16.8324 2.58654 17.1417C2.71056 17.4511 2.89486 17.7326 3.12871 17.97C3.36256 18.2075 3.64129 18.396 3.94868 18.5247C4.25608 18.6534 4.586 18.7197 4.91924 18.7197H17.9312C18.2643 18.7194 18.5941 18.6529 18.9014 18.5241C19.2086 18.3952 19.4871 18.2065 19.7208 17.969C19.9544 17.7314 20.1385 17.4498 20.2623 17.1405C20.3861 16.8312 20.4471 16.5004 20.4419 16.1672L20.2595 4.49116C21.7309 1.94091 20.6579 0.756801 19.3582 0.540434L19.3601 0.539696Z" fill="#EAC986"/>
<path d="M11.8725 15.9916C11.8725 16.0749 11.8478 16.1563 11.8015 16.2256C11.7552 16.2949 11.6894 16.3489 11.6124 16.3808C11.5354 16.4127 11.4507 16.421 11.369 16.4047C11.2873 16.3885 11.2122 16.3484 11.1533 16.2895C11.0944 16.2305 11.0543 16.1555 11.038 16.0738C11.0217 15.992 11.0301 15.9073 11.062 15.8304C11.0939 15.7534 11.1479 15.6876 11.2171 15.6413C11.2864 15.595 11.3679 15.5703 11.4512 15.5703C11.5629 15.5703 11.6701 15.6147 11.7491 15.6937C11.8281 15.7727 11.8725 15.8799 11.8725 15.9916Z" fill="#D6AB5F"/>
<path d="M10.9049 2.22293C10.9049 2.28865 10.8854 2.3529 10.8489 2.40755C10.8124 2.4622 10.7605 2.50479 10.6997 2.52994C10.639 2.55509 10.5722 2.56167 10.5077 2.54885C10.4433 2.53603 10.384 2.50438 10.3376 2.45791C10.2911 2.41143 10.2594 2.35222 10.2466 2.28776C10.2338 2.2233 10.2404 2.15648 10.2655 2.09576C10.2907 2.03504 10.3333 1.98314 10.3879 1.94663C10.4426 1.91011 10.5068 1.89062 10.5726 1.89062C10.6607 1.89062 10.7452 1.92564 10.8075 1.98796C10.8699 2.05027 10.9049 2.1348 10.9049 2.22293Z" fill="#D6AB5F"/>
<path d="M15.2398 8.05092C15.2398 8.12511 15.2178 8.19764 15.1766 8.25933C15.1353 8.32102 15.0767 8.36911 15.0082 8.3975C14.9397 8.42589 14.8642 8.43332 14.7915 8.41885C14.7187 8.40437 14.6518 8.36864 14.5994 8.31618C14.5469 8.26372 14.5112 8.19687 14.4967 8.1241C14.4822 8.05133 14.4897 7.97591 14.5181 7.90736C14.5465 7.83881 14.5945 7.78022 14.6562 7.739C14.7179 7.69778 14.7904 7.67578 14.8646 7.67578C14.9139 7.67578 14.9627 7.68548 15.0082 7.70434C15.0537 7.72319 15.0951 7.75082 15.1299 7.78566C15.1647 7.82049 15.1924 7.86185 15.2112 7.90736C15.2301 7.95287 15.2398 8.00165 15.2398 8.05092Z" fill="#D6AB5F"/>
<path d="M16.1725 12.801C16.1724 12.8868 16.1469 12.9706 16.0992 13.0418C16.0515 13.1131 15.9837 13.1686 15.9045 13.2013C15.8252 13.234 15.738 13.2425 15.6539 13.2257C15.5699 13.2089 15.4927 13.1675 15.4321 13.1068C15.3716 13.0461 15.3304 12.9688 15.3138 12.8846C15.2971 12.8005 15.3059 12.7134 15.3388 12.6342C15.3717 12.555 15.4274 12.4874 15.4988 12.4399C15.5701 12.3923 15.654 12.367 15.7398 12.3672C15.8547 12.3674 15.9648 12.4132 16.0459 12.4945C16.1271 12.5759 16.1726 12.6861 16.1725 12.801Z" fill="#D6AB5F"/>
<path d="M6.44739 12.6578C6.44739 12.7245 6.4276 12.7897 6.39051 12.8452C6.35343 12.9007 6.30073 12.944 6.23907 12.9695C6.1774 12.9951 6.10955 13.0017 6.04409 12.9887C5.97863 12.9757 5.9185 12.9436 5.8713 12.8964C5.82411 12.8492 5.79197 12.7891 5.77895 12.7236C5.76592 12.6581 5.77261 12.5903 5.79815 12.5286C5.82369 12.467 5.86694 12.4143 5.92244 12.3772C5.97794 12.3401 6.04318 12.3203 6.10992 12.3203C6.19943 12.3203 6.28526 12.3559 6.34855 12.4191C6.41183 12.4824 6.44739 12.5683 6.44739 12.6578Z" fill="#D6AB5F"/>
<path d="M5.15268 16.3312C5.33907 16.3312 5.49017 16.1801 5.49017 15.9937C5.49017 15.8073 5.33907 15.6562 5.15268 15.6562C4.96629 15.6562 4.81519 15.8073 4.81519 15.9937C4.81519 16.1801 4.96629 16.3312 5.15268 16.3312Z" fill="#D6AB5F"/>
<path d="M9.45743 8.64069C9.45743 8.74577 9.42627 8.84849 9.36788 8.93587C9.3095 9.02324 9.22652 9.09134 9.12943 9.13155C9.03234 9.17177 8.92551 9.18229 8.82245 9.16179C8.71938 9.14129 8.6247 9.09068 8.5504 9.01638C8.47609 8.94207 8.42549 8.8474 8.40498 8.74434C8.38448 8.64128 8.39501 8.53445 8.43522 8.43736C8.47544 8.34028 8.54354 8.2573 8.63091 8.19892C8.71829 8.14054 8.82102 8.10938 8.9261 8.10938C9.06702 8.10938 9.20216 8.16535 9.30181 8.26499C9.40145 8.36463 9.45743 8.49977 9.45743 8.64069Z" fill="#D6AB5F"/>
<path d="M5.1525 3.32724C5.1525 3.38502 5.13536 3.44151 5.10325 3.48955C5.07114 3.53759 5.0255 3.57503 4.97211 3.59713C4.91872 3.61922 4.85998 3.62498 4.80331 3.61368C4.74665 3.60238 4.69461 3.57453 4.65377 3.53364C4.61294 3.49276 4.58515 3.44068 4.57393 3.384C4.5627 3.32731 4.56854 3.26857 4.5907 3.21521C4.61286 3.16184 4.65035 3.11625 4.69843 3.0842C4.74651 3.05215 4.80302 3.03508 4.8608 3.03516C4.89913 3.03516 4.9371 3.04271 4.97251 3.0574C5.00793 3.07208 5.0401 3.0936 5.06719 3.12073C5.09428 3.14786 5.11576 3.18006 5.1304 3.21549C5.14504 3.25093 5.15254 3.2889 5.1525 3.32724Z" fill="#D6AB5F"/>
<path d="M5.78005 7.9626C5.9411 7.95858 6.0684 7.82478 6.06438 7.66374C6.06036 7.50271 5.92654 7.37542 5.76549 7.37944C5.60443 7.38346 5.47714 7.51726 5.48116 7.6783C5.48518 7.83933 5.61899 7.96662 5.78005 7.9626Z" fill="#D6AB5F"/>
<path d="M7.9856 6.72957C7.9856 6.78735 7.96846 6.84383 7.93635 6.89187C7.90424 6.93991 7.85861 6.97734 7.80522 6.99944C7.75183 7.02154 7.69309 7.0273 7.63643 7.016C7.57977 7.0047 7.52773 6.97684 7.4869 6.93596C7.44607 6.89508 7.41828 6.843 7.40706 6.78632C7.39583 6.72964 7.40167 6.6709 7.42383 6.61754C7.44599 6.56418 7.48348 6.51859 7.53156 6.48654C7.57963 6.45449 7.63613 6.43743 7.69391 6.4375C7.73225 6.4375 7.77021 6.44506 7.80562 6.45974C7.84103 6.47442 7.8732 6.49594 7.90029 6.52307C7.92738 6.55019 7.94886 6.58239 7.9635 6.61783C7.97814 6.65326 7.98564 6.69123 7.9856 6.72957Z" fill="#D6AB5F"/>
<path d="M14.7813 9.17842C14.7814 9.23622 14.7643 9.29273 14.7322 9.34082C14.7002 9.38891 14.6546 9.4264 14.6012 9.44855C14.5478 9.4707 14.4891 9.47652 14.4324 9.46526C14.3757 9.454 14.3237 9.42618 14.2828 9.38531C14.2419 9.34444 14.2141 9.29237 14.2029 9.23568C14.1916 9.17899 14.1974 9.12023 14.2196 9.06685C14.2417 9.01346 14.2792 8.96785 14.3273 8.93579C14.3754 8.90372 14.4319 8.88665 14.4897 8.88672C14.567 8.88672 14.6412 8.91745 14.6959 8.97216C14.7506 9.02686 14.7813 9.10105 14.7813 9.17842Z" fill="#D6AB5F"/>
<path d="M17.1326 12.9991C17.1326 13.0569 17.1154 13.1134 17.0833 13.1614C17.0512 13.2094 17.0056 13.2469 16.9522 13.269C16.8988 13.2911 16.8401 13.2968 16.7834 13.2855C16.7267 13.2742 16.6747 13.2464 16.6339 13.2055C16.593 13.1646 16.5653 13.1125 16.554 13.0559C16.5428 12.9992 16.5486 12.9404 16.5708 12.8871C16.593 12.8337 16.6305 12.7881 16.6785 12.7561C16.7266 12.724 16.7831 12.707 16.8409 12.707C16.8792 12.707 16.9172 12.7146 16.9526 12.7293C16.988 12.744 17.0202 12.7655 17.0473 12.7926C17.0744 12.8197 17.0958 12.8519 17.1105 12.8874C17.1251 12.9228 17.1326 12.9608 17.1326 12.9991Z" fill="#D6AB5F"/>
<path d="M18.4577 15.4323C18.4577 15.49 18.4406 15.5464 18.4085 15.5944C18.3765 15.6423 18.3309 15.6797 18.2776 15.7018C18.2243 15.7239 18.1657 15.7296 18.1091 15.7184C18.0525 15.7071 18.0005 15.6794 17.9597 15.6386C17.9189 15.5978 17.8911 15.5458 17.8799 15.4892C17.8686 15.4326 17.8744 15.374 17.8965 15.3207C17.9186 15.2674 17.9559 15.2218 18.0039 15.1898C18.0519 15.1577 18.1083 15.1406 18.166 15.1406C18.2433 15.1407 18.3175 15.1715 18.3722 15.2262C18.4268 15.2808 18.4576 15.355 18.4577 15.4323Z" fill="#D6AB5F"/>
<path d="M13.2268 16.7178C13.2268 16.7756 13.2097 16.8321 13.1776 16.8802C13.1455 16.9282 13.0998 16.9656 13.0464 16.9877C12.993 17.0098 12.9343 17.0156 12.8776 17.0043C12.821 16.993 12.7689 16.9651 12.7281 16.9242C12.6873 16.8834 12.6595 16.8313 12.6483 16.7746C12.637 16.7179 12.6429 16.6592 12.665 16.6058C12.6872 16.5525 12.7247 16.5069 12.7728 16.4748C12.8208 16.4428 12.8773 16.4257 12.9351 16.4258C12.9735 16.4258 13.0114 16.4333 13.0468 16.448C13.0822 16.4627 13.1144 16.4842 13.1415 16.5113C13.1686 16.5385 13.1901 16.5707 13.2047 16.6061C13.2193 16.6415 13.2269 16.6795 13.2268 16.7178Z" fill="#D6AB5F"/>
<path d="M17.1897 3.6192C17.1897 3.68846 17.1693 3.75619 17.1308 3.81381C17.0924 3.87143 17.0377 3.91635 16.9738 3.94289C16.9098 3.96943 16.8394 3.97639 16.7715 3.9629C16.7035 3.9494 16.6411 3.91606 16.5921 3.86708C16.5432 3.81811 16.5098 3.7557 16.4963 3.68777C16.4828 3.61983 16.4898 3.54942 16.5163 3.48544C16.5429 3.42147 16.5878 3.3668 16.6454 3.32837C16.703 3.28993 16.7708 3.26946 16.84 3.26953C16.9327 3.26953 17.0217 3.30637 17.0873 3.37195C17.1528 3.43752 17.1897 3.52646 17.1897 3.6192Z" fill="#D6AB5F"/>
</svg>
