<svg width="10" height="9" viewBox="0 0 10 9" fill="none" xmlns="http://www.w3.org/2000/svg">
<path d="M9.67679 3.16916L6.67898 2.75855L5.33889 0.198076C5.30228 0.127972 5.24207 0.071221 5.16768 0.0367253C4.98113 -0.0500703 4.75444 0.0222594 4.66116 0.198076L3.32106 2.75855L0.323258 3.16916C0.240609 3.18028 0.165044 3.21701 0.107189 3.27264C0.0372466 3.3404 -0.00129512 3.43155 3.3232e-05 3.52607C0.00136159 3.62059 0.0424513 3.71074 0.114274 3.77673L2.28323 5.76969L1.7708 8.58387C1.75878 8.64933 1.76647 8.71666 1.79299 8.77821C1.81951 8.83977 1.86379 8.89309 1.92083 8.93213C1.97787 8.97118 2.04537 8.99437 2.11568 8.9991C2.186 9.00383 2.25631 8.98989 2.31865 8.95887L5.00002 7.63023L7.6814 8.95887C7.7546 8.99559 7.83962 9.00783 7.92108 8.99448C8.12653 8.96109 8.26467 8.77749 8.22925 8.58387L7.71682 5.76969L9.88577 3.77673C9.94481 3.7222 9.98377 3.65098 9.99558 3.57309C10.0275 3.37836 9.88341 3.19809 9.67679 3.16916Z" fill="#FCCA17"/>
</svg>
