<svg width="25" height="29" viewBox="0 0 25 29" fill="none" xmlns="http://www.w3.org/2000/svg">
<g style="mix-blend-mode:darken" opacity="0.45">
<path d="M12.8201 28.0034C18.2371 28.0034 22.6284 25.8462 22.6284 23.1853C22.6284 20.5243 18.2371 18.3672 12.8201 18.3672C7.40315 18.3672 3.01184 20.5243 3.01184 23.1853C3.01184 25.8462 7.40315 28.0034 12.8201 28.0034Z" fill="#D8BD82"/>
</g>
<path d="M19.5181 22.855C19.5181 24.2487 16.7415 25.3779 13.3171 25.3779C9.89279 25.3779 7.11621 24.2512 7.11621 22.855C7.11621 21.4588 9.89031 20.332 13.3171 20.332C16.744 20.332 19.5181 21.4588 19.5181 22.855Z" fill="#894111"/>
<path d="M24.4927 14.5965C24.7399 19.9853 19.345 24.698 13.2479 24.698C7.15078 24.698 1.80035 19.782 1.80035 14.3932C1.80035 9.00438 6.87881 5.58984 12.9759 5.58984C19.073 5.58984 24.2306 8.52428 24.4927 14.5965Z" fill="#B26836"/>
<path d="M21.3576 8.65899C21.3576 10.3565 17.6044 11.7306 12.9759 11.7306C8.34746 11.7306 4.92556 10.3222 4.59425 8.65899C4.38903 7.63758 8.34746 5.58984 12.9759 5.58984C17.6044 5.58984 21.3576 6.96398 21.3576 8.65899Z" fill="#BC8157"/>
<path d="M19.1768 8.08423C19.1768 9.26978 16.4571 10.2324 13.0772 10.2324C9.69735 10.2324 6.9801 9.26488 6.9801 8.08423C6.9801 6.90359 9.69982 5.93359 13.0772 5.93359C16.4546 5.93359 19.1768 6.89134 19.1768 8.08423Z" fill="#CC8D62"/>
<path d="M18.8356 8.08629C18.8356 9.04646 16.2741 9.82538 13.1118 9.82538C9.94954 9.82538 7.38806 9.04156 7.38806 8.08629C7.38806 7.13101 9.94954 6.33984 13.1044 6.33984C16.2593 6.33984 18.8356 7.11876 18.8356 8.08629Z" fill="#723308"/>
<g style="mix-blend-mode:multiply" opacity="0.27">
<path d="M20.5392 7.35938C20.5392 8.51796 20.7864 9.58347 20.6109 10.7886C20.329 12.6183 19.3005 14.3623 18.2225 15.8394C16.3014 18.4725 13.1416 20.5742 9.77405 20.3929C8.63919 20.3366 7.05434 20.1308 6.16425 19.3568C5.19101 18.4492 4.46838 17.31 4.06513 16.0476C3.65833 14.393 3.5819 12.6756 3.84013 10.9919C3.90689 10.5314 4.27281 9.50509 3.48904 10.0121C2.92038 10.3844 2.6756 11.5822 2.56681 12.1848C2.02287 15.2319 2.83631 18.8252 4.94533 21.091C5.88486 22.1051 6.83676 23.3592 8.1447 23.9274C9.30428 24.432 10.5949 24.5839 11.8262 24.6941C14.4693 24.9391 17.4906 24.4075 19.5922 22.7983C20.6109 22.0169 21.2018 21.02 22.0647 20.0671C22.8406 19.2139 23.3753 18.173 23.6149 17.0494C24.0046 15.0505 23.8571 12.9852 23.1872 11.0605C22.621 9.4904 21.59 8.43958 20.2746 7.42796L20.5392 7.35938Z" fill="#B26836"/>
</g>
<g style="mix-blend-mode:multiply" opacity="0.27">
<path d="M20.8112 8.04297C20.5244 9.08153 20.6332 9.62531 19.6689 10.3112C19.0089 10.778 18.2693 11.1232 17.4857 11.3301C17.7181 13.0447 17.733 14.4434 17.1816 16.2168C16.6871 17.8579 15.9256 19.6093 14.541 20.6699C12.6075 22.1395 10.2167 23.2148 7.79612 22.5731C7.49437 22.5043 7.20154 22.4016 6.92334 22.2669C11.1265 25.9092 18.1013 24.7923 21.5109 21.1451C23.2416 19.2688 24.2306 15.4011 23.7361 12.9566C23.5211 11.9955 23.1124 11.0874 22.5345 10.2867C22.1908 9.79677 21.0782 8.30261 20.6084 8.23648L20.8112 8.04297Z" fill="#B26836"/>
</g>
<g style="mix-blend-mode:multiply" opacity="0.27">
<path d="M6.36703 10.7799C5.45715 11.2526 5.72665 13.8123 5.75385 14.6745C5.79811 16.2939 6.09159 17.8972 6.62417 19.4289C7.43761 21.7289 9.05956 23.3259 11.2131 24.3278C10.1499 23.8942 9.0645 23.6321 8.01617 23.1814C6.83185 22.6695 5.91456 21.8514 5.04919 20.8961C3.51131 19.1839 2.39869 17.1656 2.27754 14.8704C2.17123 12.8546 2.76462 10.045 4.52503 8.82031C4.78958 9.55515 5.55358 10.4859 6.35219 10.6305C6.36196 10.5648 6.36692 10.4985 6.36703 10.432V10.7799Z" fill="#B26836"/>
</g>
<path opacity="0.75" d="M21.2883 8.86328C20.7147 9.59811 19.9012 10.1443 20.6751 10.9796C21.6416 11.9506 22.2227 13.2341 22.3119 14.595C22.5592 17.0444 21.8174 20.165 19.8815 21.8208C22.6407 20.6867 23.5383 17.4339 23.5383 14.6636C23.5383 12.949 23.2292 9.62261 21.224 8.99555H21.0856L21.2883 8.86328Z" fill="#C47D4D"/>
<path opacity="0.75" d="M6.29779 11.3873C6.0184 12.7419 6.48569 14.5422 7.53402 15.74C8.72327 17.1093 10.7631 16.8447 12.2317 16.0437C13.3319 15.4485 14.3333 14.2214 14.8896 13.1044C15.2209 12.4308 15.2926 12.2496 14.6152 12.1393C14.0465 12.075 13.4711 12.1031 12.9116 12.2226C10.632 12.5263 8.04582 12.492 6.23103 11.0469L6.29779 11.3873Z" fill="#C47D4D"/>
<path opacity="0.75" d="M6.29771 11.0469C5.98865 11.9973 7.50922 13.2514 8.27568 13.5869C8.81221 13.8147 11.7569 14.1479 11.5443 12.9574C11.4553 12.4529 9.31907 12.5508 8.82457 12.4676C7.69712 12.2985 7.09384 12.0609 6.30265 11.1742L6.29771 11.0469Z" fill="#D89060"/>
<g style="mix-blend-mode:multiply" opacity="0.27">
<path d="M8.54777 6.67578C7.41786 7.04565 6.55249 8.93662 6.21376 9.97029C5.58081 11.9029 5.95416 14.0878 6.36706 16.0253C7.04204 19.2096 8.40437 22.0191 11.2032 23.7215C11.4367 23.8459 11.6628 23.9833 11.8807 24.133C9.22029 23.6431 6.72557 22.6829 4.86627 20.6131C3.18252 18.7393 2.02046 16.4491 2.29243 13.8429C2.44721 12.1163 3.12455 10.4763 4.23579 9.13748C4.7105 8.54226 5.22478 7.85886 5.88987 7.44246C6.59947 6.99421 7.45742 7.07994 8.13734 6.81295L8.54777 6.67578Z" fill="#B26836"/>
</g>
<path d="M2.72007 11.2684C2.79672 11.7901 2.73738 12.2482 3.19232 12.765C3.71648 13.3431 4.24064 13.1863 4.86865 13.4998C5.56094 13.8501 5.42743 14.5825 5.49171 15.2536C5.53953 15.942 5.7633 16.6071 6.14197 17.1862C6.63647 17.8672 7.40046 17.9725 8.17929 17.7741C8.80235 17.6149 8.96059 17.2842 9.41552 16.8898C9.67194 16.6661 9.97782 16.5053 10.3085 16.4202C10.6392 16.3351 10.9854 16.3282 11.3193 16.4C12.0413 16.5935 12.2836 17.2254 12.8523 17.6247C13.1711 17.8465 13.5556 17.9566 13.9448 17.9376C14.334 17.9185 14.7056 17.7713 15.0008 17.5194C15.3692 17.1764 15.3791 16.7061 15.6115 16.2946C15.9231 15.7411 16.4942 15.5084 17.1346 15.4863C17.7749 15.4643 18.0791 15.8023 18.5637 16.1403C19.7035 16.9364 21.0361 15.6504 21.7358 14.7588C22.3132 13.9887 22.6979 13.0938 22.8583 12.1477C22.893 11.942 22.8831 11.7534 22.9078 11.5501C22.9078 13.4018 22.166 15.5598 20.4032 16.4881C19.5749 16.9241 18.8777 16.7943 18.1433 16.4073C17.786 16.1982 17.3628 16.1286 16.9564 16.2119C16.55 16.2952 16.1895 16.5256 15.9453 16.858C14.6918 18.5726 13.2256 18.8176 11.6111 17.4189C9.99655 16.0203 8.97048 18.4354 7.3609 18.2517C6.99662 18.2082 6.64858 18.0772 6.34698 17.8702C6.04537 17.6631 5.79932 17.3863 5.63017 17.0638C5.17771 16.2971 5.24199 15.5084 5.13568 14.656C4.99475 13.566 4.28268 13.6517 3.49643 13.2745C2.49013 12.7846 2.65826 12.1085 2.58162 11.1753C2.57505 11.1213 2.55647 11.0694 2.52722 11.0234L2.72007 11.2684Z" fill="#E1C380"/>
<path d="M7.88261 8.70603C7.69717 8.39739 8.85182 8.23083 9.11884 8.1549C9.59603 8.02263 9.72707 7.66501 10.1919 7.48865C10.4391 7.39312 10.6567 7.48865 10.8941 7.46661C11.0871 7.46817 11.2786 7.43239 11.4578 7.36128C11.6927 7.2878 11.8979 7.11633 12.1625 7.17022C12.3528 7.20451 12.5506 7.5107 12.6421 7.51804C12.8894 7.54009 12.9438 7.2731 13.1366 7.17267C13.2799 7.0888 13.4407 7.03876 13.6067 7.02644C13.7726 7.01412 13.9392 7.03985 14.0935 7.10164C14.6077 7.2535 15.033 7.48865 15.5596 7.56458C16.2618 7.66501 17.3274 7.77279 17.9109 8.18919C18.9667 8.94607 17.6365 9.32574 16.9393 9.53394C16.1056 9.75306 15.2477 9.86907 14.3852 9.87931C12.7682 9.95769 10.8644 9.99933 9.38834 9.50944C9.03976 9.41112 8.70865 9.25991 8.40677 9.0612C8.19414 8.89708 7.97904 8.54926 7.83069 8.46108L7.88261 8.70603Z" fill="#EF840F"/>
<path d="M7.72931 8.60444C7.52162 8.40849 8.18424 8.32765 8.3944 8.29826C8.56498 8.29162 8.73504 8.27527 8.90372 8.24927C8.99768 8.22478 9.05207 8.07291 9.15097 8.03862C9.24987 8.00433 9.39822 8.08761 9.45756 8.05577C9.84079 7.85491 9.79876 7.64426 10.1845 7.8892C10.496 8.08516 10.679 8.44033 10.8446 7.79613C11.1487 7.84022 11.3861 7.84266 11.6037 7.57812C12.1229 8.03862 10.4218 8.15129 10.8298 8.69752C10.699 8.76519 10.5543 8.80215 10.4068 8.80555C10.2593 8.80895 10.113 8.77869 9.97925 8.71712C9.08669 9.59402 13.2973 9.20701 11.7594 8.41094C11.8583 8.44033 11.9597 8.41094 12.0635 8.45747C12.4121 7.93819 12.6643 8.86898 12.4764 9.17271C13.1934 9.68465 13.594 8.21988 12.783 8.34235C12.9289 7.83287 13.3467 8.19783 13.4432 8.50401C13.5021 8.66701 13.5143 8.84298 13.4786 9.01245C13.4428 9.18192 13.3604 9.33827 13.2404 9.4642C12.7608 9.92224 11.8188 9.42746 11.2451 9.54013C10.4737 9.68955 9.97925 9.48379 9.23998 9.33438C8.66637 9.2168 8.00375 8.84449 7.46228 8.75876L7.72931 8.60444Z" fill="#C16306"/>
<path d="M7.72937 8.70541C6.92335 8.18123 6.58215 6.61114 6.42885 5.63136C6.18161 3.88245 6.23106 1.58977 7.41784 0.125C7.44005 0.133919 7.45901 0.14929 7.47223 0.16909C7.39558 1.13417 6.86895 2.06251 6.86648 3.07413C6.86065 4.08331 7.02014 5.08674 7.33872 6.04531C7.58596 6.71401 8.24364 7.02509 8.51561 7.63256C8.87164 8.41148 8.15463 8.79359 7.58349 8.65398L7.72937 8.70541Z" fill="#CBDB2A"/>
<path d="M7.77869 8.70778C8.50559 8.46284 7.57348 7.23812 7.35837 6.81436C7.00279 6.10381 6.77202 5.33843 6.67598 4.55107C6.46582 3.18428 6.8713 1.10225 7.57595 0C7.49683 0.950385 6.9974 1.85423 6.96278 2.82176C6.93431 3.69121 7.05469 4.55916 7.31881 5.38878C7.56606 6.22894 8.09764 6.73598 8.58718 7.43897C9.0347 8.08562 8.83443 8.90864 7.88253 8.81801C7.79787 8.81405 7.7144 8.79669 7.63529 8.76657L7.77869 8.70778Z" fill="#B3BC02"/>
<path d="M7.57601 8.81942C6.95048 7.59469 5.0813 6.29403 3.65221 6.25974C1.93632 6.2132 0.232785 7.20768 0.116579 8.99823C-0.281488 8.43241 0.435528 7.18808 0.841013 6.76677C1.56545 6.01479 2.66817 5.68901 3.69177 5.68901C4.55121 5.66373 5.38939 5.95624 6.04308 6.50958C6.61175 6.94313 7.49937 7.63143 7.77381 8.30013C7.8172 8.38388 7.83983 8.47667 7.83983 8.5708C7.83983 8.66493 7.8172 8.75772 7.77381 8.84146C7.6504 8.79439 7.54611 8.70829 7.47712 8.59652L7.57601 8.81942Z" fill="#B3BC02"/>
<g style="mix-blend-mode:multiply" opacity="0.52">
<path d="M21.8051 8.69375C21.5109 9.74456 18.8159 9.90868 15.7847 9.06117C12.7534 8.21366 10.5381 6.67051 10.8397 5.63194C11.1414 4.59337 13.829 4.40721 16.8602 5.26697C19.8914 6.12673 22.0994 7.64294 21.8051 8.69375Z" fill="#723308"/>
</g>
<path d="M22.213 8.11467C21.6122 9.48881 18.6749 9.53045 15.6535 8.20775C12.6322 6.88505 10.6715 4.69769 11.2723 3.3211C11.8731 1.94451 14.8079 1.90532 17.8293 3.22802C20.8506 4.55072 22.8138 6.73808 22.213 8.11467Z" fill="#894111"/>
<path d="M22.5171 7.90876C21.9855 9.13348 19.1076 9.0404 16.0887 7.7177C13.0698 6.395 11.0449 4.33501 11.5764 3.11764C12.108 1.90026 14.9884 1.98599 18.0048 3.3087C21.0213 4.6314 23.0487 6.69383 22.5171 7.90876Z" fill="#BC8157"/>
<path d="M20.4032 5.43561C20.0496 6.28312 18.5439 6.46193 17.0357 5.83242C15.5275 5.20291 14.588 4.00512 14.9489 3.15515C15.3099 2.30519 16.8132 2.13127 18.3164 2.76079C19.8197 3.3903 20.7691 4.58809 20.4032 5.43561Z" fill="#CE9065"/>
<g style="mix-blend-mode:multiply" opacity="0.35">
<path d="M18.5439 3.0625C18.4771 3.11149 18.9642 4.2358 18.9766 4.60322C18.9988 5.26212 18.7046 5.84265 18.0593 6.03615C19.2263 6.86163 17.3002 7.47644 16.5758 7.50584C16.8231 8.09861 18.7219 8.73057 19.34 8.79181C20.0991 8.87509 21.7532 8.83345 22.218 8.17699C22.8312 7.31233 22.1364 6.31294 21.496 5.75447C21.1388 5.48151 20.8077 5.17648 20.507 4.84326C20.2448 4.45868 19.9556 4.09281 19.6417 3.74835C19.2535 3.38338 18.8159 3.25846 18.351 3.11884L18.5439 3.0625Z" fill="#BC8157"/>
</g>
<g style="mix-blend-mode:multiply" opacity="0.35">
<path d="M18.4772 3.0625C18.9099 3.61118 19.4662 3.82674 19.6911 4.60322C19.8543 5.19354 19.7653 6.21742 19.0483 6.39378C19.5725 6.37419 20.02 6.40603 20.1411 7.0086C20.2623 7.61117 19.7802 7.83652 19.5329 8.22844C20.2128 8.83101 22.0054 8.63015 22.1092 7.62587C22.2032 6.57504 21.1573 5.71773 20.287 5.40665C20.6282 4.44155 19.2412 3.65772 18.6601 3.24866L18.4772 3.0625Z" fill="#BC8157"/>
</g>
<path opacity="0.41" d="M18.3535 3.30874C17.4683 2.08403 14.6003 3.94805 15.6511 5.13602C15.253 4.75146 14.8895 4.46488 14.6621 5.21685C14.4618 5.85861 15.0156 6.39748 15.2233 6.93146C14.358 6.35829 13.4333 6.19663 12.6965 5.41771C12.1896 4.89598 11.1264 3.62717 11.9374 2.93643C12.3132 2.61311 12.8572 2.77232 13.3047 2.95358C13.9154 3.19852 13.9846 3.30385 14.5978 3.10789C15.4731 2.82866 16.5956 2.48084 17.5376 2.76742C17.7833 2.84294 18.0021 2.98659 18.168 3.18137L18.3535 3.30874Z" fill="#E8AA80"/>
<path d="M19.6467 2.47735C19.6452 2.6404 19.595 2.79936 19.5025 2.93419C19.4099 3.06902 19.2791 3.17368 19.1266 3.23496C18.9741 3.29624 18.8067 3.31139 18.6455 3.27852C18.4843 3.24564 18.3365 3.16621 18.2208 3.05023C18.1051 2.93426 18.0267 2.78694 17.9954 2.62685C17.9641 2.46677 17.9814 2.3011 18.0451 2.15074C18.1087 2.00037 18.2159 1.87206 18.3531 1.78197C18.4903 1.69188 18.6513 1.64406 18.8159 1.64453C18.9256 1.64518 19.0342 1.66723 19.1353 1.70943C19.2365 1.75163 19.3283 1.81315 19.4054 1.89049C19.4825 1.96782 19.5436 2.05945 19.5849 2.16015C19.6263 2.26084 19.6473 2.36863 19.6467 2.47735Z" fill="#B26836"/>
<path d="M19.3177 1.89346C19.6293 2.474 18.3584 2.89042 18.3683 1.77344C17.6142 2.15066 17.9653 3.41461 18.7837 3.41461C19.6441 3.41461 19.8642 1.87142 19.2782 1.85182L19.3177 1.89346Z" fill="#723308"/>
</svg>
